GeoramaCondensed-Bold.ufo
<glyph name="exclam" format="2">
  <advance width="194.15999999999997"/>
  <unicode hex="0021"/>
  <outline>
    <contour>
      <point x="37.03" y="260.5" type="line"/>
      <point x="156.35999999999999" y="260.5" type="line"/>
      <point x="167.84" y="740.0" type="line"/>
      <point x="27.440000000000005" y="740.0" type="line"/>
    </contour>
    <contour>
      <point x="22.790000000000003" y="79.72" type="curve" smooth="yes"/>
      <point x="22.790000000000003" y="20.529999999999998"/>
      <point x="43.910000000000004" y="-7.07"/>
      <point x="97.07999999999998" y="-7.07" type="curve" smooth="yes"/>
      <point x="150.55" y="-7.07"/>
      <point x="171.36999999999998" y="20.529999999999998"/>
      <point x="171.36999999999998" y="79.72" type="curve" smooth="yes"/>
      <point x="171.36999999999998" y="139.60999999999999"/>
      <point x="150.55" y="167.20999999999998"/>
      <point x="97.07999999999998" y="167.20999999999998" type="curve" smooth="yes"/>
      <point x="43.61" y="167.20999999999998"/>
      <point x="22.790000000000003" y="139.60999999999999"/>
    </contour>
  </outline>
</glyph>
<glyph name="numbersign" format="2">
  <advance width="436.62"/>
  <unicode hex="0023"/>
  <outline>
    <contour>
      <point x="44.04" y="418.98999999999995" type="line"/>
      <point x="92.82000000000001" y="418.98999999999995" type="line"/>
      <point x="77.41000000000001" y="273.84" type="line"/>
      <point x="27.279999999999998" y="273.84" type="line"/>
      <point x="27.279999999999998" y="156.39" type="line"/>
      <point x="68.99" y="156.39" type="line"/>
      <point x="54.510000000000005" y="0.0" type="line"/>
      <point x="160.96" y="0.0" type="line"/>
      <point x="175.43999999999997" y="156.39" type="line"/>
      <point x="229.82" y="156.39" type="line"/>
      <point x="215.34" y="0.0" type="line"/>
      <point x="321.79" y="0.0" type="line"/>
      <point x="336.27" y="156.39" type="line"/>
      <point x="392.65" y="156.39" type="line"/>
      <point x="392.65" y="273.84" type="line"/>
      <point x="344.69" y="273.84" type="line"/>
      <point x="360.1" y="418.98999999999995" type="line"/>
      <point x="409.40999999999997" y="418.98999999999995" type="line"/>
      <point x="409.40999999999997" y="537.56" type="line"/>
      <point x="368.69" y="537.56" type="line"/>
      <point x="383.91" y="700.0" type="line"/>
      <point x="277.46" y="700.0" type="line"/>
      <point x="262.24" y="537.56" type="line"/>
      <point x="207.85999999999999" y="537.56" type="line"/>
      <point x="223.08" y="700.0" type="line"/>
      <point x="116.63000000000001" y="700.0" type="line"/>
      <point x="101.41" y="537.56" type="line"/>
      <point x="44.04" y="537.56" type="line"/>
    </contour>
    <contour>
      <point x="199.27" y="418.98999999999995" type="line"/>
      <point x="253.65000000000003" y="418.98999999999995" type="line"/>
      <point x="238.24" y="273.84" type="line"/>
      <point x="183.86" y="273.84" type="line"/>
    </contour>
  </outline>
</glyph>
<glyph name="dollar" format="2">
  <advance width="436.62"/>
  <unicode hex="0024"/>
  <outline>
    <contour>
      <point x="191.92999999999998" y="-10.0" type="curve" smooth="yes"/>
      <point x="305.03" y="-10.799999999999999"/>
      <point x="408.22999999999996" y="40.8"/>
      <point x="408.22999999999996" y="185.08" type="curve" smooth="yes"/>
      <point x="408.22999999999996" y="303.7"/>
      <point x="341.14" y="358.34999999999997"/>
      <point x="272.22999999999996" y="402.53000000000003" type="curve" smooth="yes"/>
      <point x="216.31" y="439.1"/>
      <point x="175.08999999999997" y="469.99"/>
      <point x="175.08999999999997" y="521.99" type="curve" smooth="yes"/>
      <point x="175.08999999999997" y="561.1199999999999"/>
      <point x="198.36999999999998" y="580.5999999999999"/>
      <point x="248.15" y="580.5999999999999" type="curve" smooth="yes"/>
      <point x="287.36" y="580.5999999999999"/>
      <point x="328.15" y="572.98"/>
      <point x="362.50000000000006" y="559.61" type="curve"/>
      <point x="389.47999999999996" y="679.3" type="line"/>
      <point x="353.46999999999997" y="696.81"/>
      <point x="291.41" y="710.0"/>
      <point x="228.46" y="710.0" type="curve" smooth="yes"/>
      <point x="111.13000000000001" y="709.9399999999999"/>
      <point x="37.88" y="638.28"/>
      <point x="37.88" y="519.7299999999999" type="curve" smooth="yes"/>
      <point x="37.88" y="410.31"/>
      <point x="94.51" y="349.64000000000004"/>
      <point x="155.82999999999998" y="304.03000000000003" type="curve" smooth="yes"/>
      <point x="220.48999999999998" y="259.5"/>
      <point x="273.04" y="229.1"/>
      <point x="273.04" y="177.72" type="curve" smooth="yes"/>
      <point x="273.04" y="138.82"/>
      <point x="245.33" y="115.41"/>
      <point x="194.62" y="115.41" type="curve" smooth="yes"/>
      <point x="154.89000000000001" y="115.41"/>
      <point x="107.63000000000001" y="125.47"/>
      <point x="54.85" y="145.24999999999997" type="curve"/>
      <point x="28.490000000000006" y="26.929999999999996" type="line"/>
      <point x="71.64" y="5.9399999999999995"/>
      <point x="135.73" y="-9.68"/>
    </contour>
    <contour>
      <point x="158.27" y="-105.0" type="line"/>
      <point x="279.79999999999995" y="-105.0" type="line"/>
      <point x="279.79999999999995" y="16.11" type="line"/>
      <point x="158.27" y="6.819999999999999" type="line"/>
    </contour>
    <contour>
      <point x="158.27" y="683.32" type="line"/>
      <point x="279.79999999999995" y="694.04" type="line"/>
      <point x="279.79999999999995" y="803.74" type="line"/>
      <point x="158.27" y="803.74" type="line"/>
    </contour>
  </outline>
</glyph>
<glyph name="ampersand" format="2">
  <advance width="527.21"/>
  <unicode hex="0026"/>
  <outline>
    <contour>
      <point x="379.53" y="-4.500000000000001" type="line"/>
      <point x="526.8199999999999" y="-1.3500000000000003" type="line"/>
      <point x="242.79999999999998" y="426.87" type="line" smooth="yes"/>
      <point x="216.39" y="466.61"/>
      <point x="205.47" y="497.1700000000001"/>
      <point x="205.47" y="523.1899999999999" type="curve" smooth="yes"/>
      <point x="205.47" y="563.41"/>
      <point x="220.84999999999997" y="583.1400000000001"/>
      <point x="250.54999999999995" y="583.1400000000001" type="curve" smooth="yes"/>
      <point x="279.90999999999997" y="583.1400000000001"/>
      <point x="292.71000000000004" y="561.5200000000001"/>
      <point x="292.71000000000004" y="522.8199999999998" type="curve" smooth="yes"/>
      <point x="292.71000000000004" y="495.68"/>
      <point x="288.99" y="475.27000000000004"/>
      <point x="272.52" y="458.88000000000005" type="curve"/>
      <point x="321.34999999999997" y="386.02" type="line"/>
      <point x="379.38" y="418.13999999999993"/>
      <point x="410.48" y="472.43"/>
      <point x="410.48" y="550.42" type="curve" smooth="yes"/>
      <point x="410.48" y="657.29"/>
      <point x="352.3" y="710.0"/>
      <point x="248.25999999999996" y="710.0" type="curve" smooth="yes"/>
      <point x="127.56" y="710.0"/>
      <point x="68.72999999999999" y="641.94"/>
      <point x="68.72999999999999" y="527.77" type="curve" smooth="yes"/>
      <point x="68.72999999999999" y="469.89000000000004"/>
      <point x="90.98" y="413.61000000000007"/>
      <point x="128.15999999999997" y="358.12" type="curve" smooth="yes"/>
    </contour>
    <contour>
      <point x="210.46000000000004" y="-10.0" type="curve" smooth="yes"/>
      <point x="277.87" y="-10.0"/>
      <point x="325.74999999999994" y="15.529999999999996"/>
      <point x="361.36999999999995" y="63.17000000000001" type="curve"/>
      <point x="303.08000000000004" y="150.94" type="line"/>
      <point x="288.16" y="122.66000000000001"/>
      <point x="268.05" y="105.38"/>
      <point x="227.55" y="105.38" type="curve" smooth="yes"/>
      <point x="177.64000000000001" y="105.38"/>
      <point x="143.3" y="144.89"/>
      <point x="143.3" y="200.32000000000002" type="curve" smooth="yes"/>
      <point x="143.3" y="248.30999999999997"/>
      <point x="159.07999999999996" y="276.17"/>
      <point x="191.01999999999998" y="303.72999999999996" type="curve"/>
      <point x="131.71000000000004" y="397.09000000000003" type="line"/>
      <point x="48.89999999999999" y="345.38000000000005"/>
      <point x="15.630000000000003" y="276.28999999999996"/>
      <point x="15.630000000000003" y="185.99" type="curve" smooth="yes"/>
      <point x="15.630000000000003" y="67.56"/>
      <point x="91.38999999999999" y="-10.0"/>
    </contour>
    <contour>
      <point x="429.08" y="123.20000000000002" type="line"/>
      <point x="460.53999999999996" y="177.43999999999997"/>
      <point x="479.55999999999995" y="237.75999999999996"/>
      <point x="479.55999999999995" y="304.31000000000006" type="curve" smooth="yes"/>
      <point x="479.55999999999995" y="325.90999999999997"/>
      <point x="478.40999999999997" y="344.62"/>
      <point x="475.85" y="363.55000000000007" type="curve"/>
      <point x="368.87" y="362.8" type="line"/>
      <point x="370.5799999999999" y="350.3"/>
      <point x="371.5" y="337.83000000000004"/>
      <point x="371.19" y="322.16999999999996" type="curve" smooth="yes"/>
      <point x="370.71999999999997" y="288.27"/>
      <point x="364.24999999999994" y="260.27"/>
      <point x="354.36" y="238.16999999999996" type="curve"/>
    </contour>
  </outline>
</glyph>
<glyph name="quotesingle" format="2">
  <advance width="181.69"/>
  <unicode hex="0027"/>
  <outline>
    <contour>
      <point x="32.800000000000004" y="427.0" type="line"/>
      <point x="147.0" y="427.0" type="line"/>
      <point x="154.87000000000003" y="700.0" type="line"/>
      <point x="26.820000000000004" y="700.0" type="line"/>
    </contour>
  </outline>
</glyph>
<glyph name="parenleft" format="2">
  <advance width="245.72"/>
  <unicode hex="0028"/>
  <outline>
    <contour>
      <point x="29.750000000000004" y="265.0" type="curve" smooth="yes"/>
      <point x="29.750000000000004" y="-12.780000000000001"/>
      <point x="91.03000000000002" y="-195.95000000000002"/>
      <point x="235.65" y="-220.27" type="curve"/>
      <point x="235.65" y="-101.62" type="line"/>
      <point x="171.45" y="-68.22"/>
      <point x="141.43" y="20.189999999999998"/>
      <point x="141.43" y="265.0" type="curve" smooth="yes"/>
      <point x="141.43" y="509.81000000000006"/>
      <point x="171.45" y="598.22"/>
      <point x="235.65" y="631.62" type="curve"/>
      <point x="235.65" y="750.27" type="line"/>
      <point x="91.03000000000002" y="725.9499999999999"/>
      <point x="29.750000000000004" y="542.7800000000001"/>
    </contour>
  </outline>
</glyph>
<glyph name="parenright" format="2">
  <advance width="245.72"/>
  <unicode hex="0029"/>
  <outline>
    <contour>
      <point x="10.07" y="-101.62" type="curve"/>
      <point x="10.07" y="-220.27" type="line"/>
      <point x="154.68999999999997" y="-195.95000000000002"/>
      <point x="215.97" y="-12.780000000000001"/>
      <point x="215.97" y="265.0" type="curve" smooth="yes"/>
      <point x="215.97" y="542.7800000000001"/>
      <point x="154.68999999999997" y="725.9499999999999"/>
      <point x="10.07" y="750.27" type="curve"/>
      <point x="10.07" y="631.62" type="line"/>
      <point x="74.27" y="598.22"/>
      <point x="104.29" y="509.81000000000006"/>
      <point x="104.29" y="265.0" type="curve" smooth="yes"/>
      <point x="104.29" y="20.189999999999998"/>
      <point x="74.27" y="-68.22"/>
    </contour>
  </outline>
</glyph>
<glyph name="asterisk" format="2">
  <advance width="312.32"/>
  <unicode hex="002A"/>
  <outline>
    <contour>
      <point x="94.71" y="406.17" type="line"/>
      <point x="156.19000000000003" y="482.33000000000004" type="line"/>
      <point x="217.54999999999995" y="406.14" type="line"/>
      <point x="270.22" y="442.71000000000004" type="line"/>
      <point x="222.14" y="529.73" type="line"/>
      <point x="307.17" y="571.75" type="line"/>
      <point x="286.86" y="632.59" type="line"/>
      <point x="196.85999999999999" y="608.18" type="line"/>
      <point x="188.88" y="709.0300000000001" type="line"/>
      <point x="123.5" y="709.0300000000001" type="line"/>
      <point x="115.52000000000001" y="608.18" type="line"/>
      <point x="25.459999999999997" y="632.59" type="line"/>
      <point x="5.1499999999999995" y="571.75" type="line"/>
      <point x="90.24000000000001" y="529.73" type="line"/>
      <point x="42.010000000000005" y="442.77" type="line"/>
    </contour>
  </outline>
</glyph>
<glyph name="plus" format="2">
  <advance width="436.04"/>
  <unicode hex="002B"/>
  <outline>
    <contour>
      <point x="156.01" y="130.38" type="line"/>
      <point x="279.96" y="130.38" type="line"/>
      <point x="279.96" y="256.95" type="line"/>
      <point x="392.96" y="256.95" type="line"/>
      <point x="392.96" y="378.09999999999997" type="line"/>
      <point x="279.96" y="378.09999999999997" type="line"/>
      <point x="279.96" y="504.6" type="line"/>
      <point x="156.01" y="504.6" type="line"/>
      <point x="156.01" y="378.09999999999997" type="line"/>
      <point x="43.08" y="378.09999999999997" type="line"/>
      <point x="43.08" y="256.95" type="line"/>
      <point x="156.01" y="256.95" type="line"/>
    </contour>
  </outline>
</glyph>
<glyph name="comma" format="2">
  <advance width="184.23"/>
  <unicode hex="002C"/>
  <outline>
    <contour>
      <point x="25.54" y="87.72000000000001" type="line"/>
      <point x="31.650000000000002" y="54.349999999999994"/>
      <point x="32.980000000000004" y="24.449999999999996"/>
      <point x="32.980000000000004" y="9.439999999999998" type="curve" smooth="yes"/>
      <point x="32.980000000000004" y="-43.900000000000006"/>
      <point x="14.980000000000002" y="-106.00000000000001"/>
      <point x="-18.509999999999998" y="-157.47" type="curve"/>
      <point x="83.46999999999998" y="-186.58999999999997" type="line"/>
      <point x="138.64999999999998" y="-120.81"/>
      <point x="162.04" y="-56.85"/>
      <point x="162.04" y="12.159999999999997" type="curve" smooth="yes"/>
      <point x="162.04" y="43.910000000000004"/>
      <point x="156.99" y="69.07"/>
      <point x="151.05999999999997" y="90.57999999999998" type="curve"/>
    </contour>
  </outline>
</glyph>
<glyph name="hyphen" format="2">
  <advance width="295.29"/>
  <unicode hex="002D"/>
  <outline>
    <contour>
      <point x="29.959999999999997" y="240.3" type="line"/>
      <point x="265.33" y="240.3" type="line"/>
      <point x="265.33" y="370.48" type="line"/>
      <point x="29.959999999999997" y="370.48" type="line"/>
    </contour>
  </outline>
</glyph>
<glyph name="period" format="2">
  <advance width="185.35"/>
  <unicode hex="002E"/>
  <outline>
    <contour>
      <point x="18.400000000000006" y="81.61" type="curve" smooth="yes"/>
      <point x="18.400000000000006" y="22.419999999999998"/>
      <point x="39.52" y="-5.18"/>
      <point x="92.69" y="-5.18" type="curve" smooth="yes"/>
      <point x="146.16" y="-5.18"/>
      <point x="166.98000000000002" y="22.419999999999998"/>
      <point x="166.98000000000002" y="81.61" type="curve" smooth="yes"/>
      <point x="166.98000000000002" y="141.5"/>
      <point x="146.16" y="169.1"/>
      <point x="92.69" y="169.1" type="curve" smooth="yes"/>
      <point x="39.22" y="169.1"/>
      <point x="18.400000000000006" y="141.5"/>
    </contour>
  </outline>
</glyph>
<glyph name="slash" format="2">
  <advance width="355.40999999999997"/>
  <unicode hex="002F"/>
  <outline>
    <contour>
      <point x="-4.759999999999999" y="-210.0" type="line"/>
      <point x="110.64999999999999" y="-210.0" type="line"/>
      <point x="360.16999999999996" y="740.0" type="line"/>
      <point x="244.13" y="740.0" type="line"/>
    </contour>
  </outline>
</glyph>
<glyph name="zero" format="2">
  <advance width="436.62"/>
  <unicode hex="0030"/>
  <outline>
    <contour>
      <point x="17.96" y="350.0" type="curve" smooth="yes"/>
      <point x="17.96" y="78.72"/>
      <point x="79.77" y="-10.0"/>
      <point x="218.31" y="-10.0" type="curve" smooth="yes"/>
      <point x="355.0199999999999" y="-10.0"/>
      <point x="418.66" y="81.24"/>
      <point x="418.66" y="350.0" type="curve" smooth="yes"/>
      <point x="418.66" y="619.66"/>
      <point x="364.4699999999999" y="710.0"/>
      <point x="218.31" y="710.0" type="curve" smooth="yes"/>
      <point x="77.88000000000001" y="710.0"/>
      <point x="17.96" y="624.7"/>
    </contour>
    <contour>
      <point x="157.54999999999998" y="341.81" type="curve" smooth="yes"/>
      <point x="157.54999999999998" y="560.8299999999999"/>
      <point x="178.63" y="586.18"/>
      <point x="218.31" y="586.18" type="curve" smooth="yes"/>
      <point x="258.04999999999995" y="586.18"/>
      <point x="279.12999999999994" y="561.46"/>
      <point x="279.12999999999994" y="341.81" type="curve" smooth="yes"/>
      <point x="279.12999999999994" y="143.21999999999997"/>
      <point x="259.94" y="113.82"/>
      <point x="218.31" y="113.82" type="curve" smooth="yes"/>
      <point x="176.74" y="113.82"/>
      <point x="157.54999999999998" y="142.59"/>
    </contour>
  </outline>
</glyph>
<glyph name="one" format="2">
  <advance width="436.62"/>
  <unicode hex="0031"/>
  <outline>
    <contour>
      <point x="56.89" y="0.0" type="line"/>
      <point x="406.21000000000004" y="0.0" type="line"/>
      <point x="406.21000000000004" y="121.5" type="line"/>
      <point x="308.31000000000006" y="121.5" type="line"/>
      <point x="308.31000000000006" y="700.3" type="line"/>
      <point x="238.0" y="700.3" type="line"/>
      <point x="40.05" y="619.29" type="line"/>
      <point x="65.50999999999999" y="484.07" type="line"/>
      <point x="169.87" y="531.41" type="line"/>
      <point x="169.87" y="121.5" type="line"/>
      <point x="56.89" y="121.5" type="line"/>
    </contour>
  </outline>
</glyph>
<glyph name="two" format="2">
  <advance width="436.84000000000003"/>
  <unicode hex="0032"/>
  <outline>
    <contour>
      <point x="43.22" y="107.71999999999998" type="curve"/>
      <point x="44.835" y="0.0" type="line"/>
      <point x="400.685" y="0.0" type="line"/>
      <point x="400.685" y="121.65" type="line"/>
      <point x="210.365" y="121.65" type="line"/>
      <point x="342.505" y="307.875"/>
      <point x="377.09499999999997" y="392.255"/>
      <point x="377.09499999999997" y="508.48" type="curve" smooth="yes"/>
      <point x="377.09499999999997" y="639.535"/>
      <point x="315.025" y="710.0"/>
      <point x="201.845" y="710.0" type="curve" smooth="yes"/>
      <point x="136.88500000000002" y="710.0"/>
      <point x="78.155" y="690.235"/>
      <point x="26.589999999999996" y="649.605" type="curve"/>
      <point x="75.22" y="515.835" type="line"/>
      <point x="107.405" y="539.7499999999999"/>
      <point x="135.42000000000002" y="549.7249999999999"/>
      <point x="167.28" y="549.7249999999999" type="curve" smooth="yes"/>
      <point x="210.325" y="549.7249999999999"/>
      <point x="236.065" y="522.6800000000001"/>
      <point x="236.065" y="461.38" type="curve" smooth="yes"/>
      <point x="236.065" y="389.245"/>
      <point x="176.09500000000003" y="279.46500000000003"/>
    </contour>
  </outline>
</glyph>
<glyph name="three" format="2">
  <advance width="436.79999999999995"/>
  <unicode hex="0033"/>
  <outline>
    <contour>
      <point x="17.4" y="38.425" type="line"/>
      <point x="73.625" y="3.3999999999999995"/>
      <point x="119.67499999999998" y="-10.0"/>
      <point x="187.775" y="-10.0" type="curve" smooth="yes"/>
      <point x="319.15000000000003" y="-10.0"/>
      <point x="395.55" y="69.6"/>
      <point x="395.55" y="204.15" type="curve" smooth="yes"/>
      <point x="395.55" y="282.45"/>
      <point x="362.375" y="342.77500000000003"/>
      <point x="301.2" y="372.625" type="curve"/>
      <point x="352.65" y="407.05"/>
      <point x="382.85" y="467.475"/>
      <point x="382.85" y="533.875" type="curve" smooth="yes"/>
      <point x="382.85" y="642.15"/>
      <point x="313.15" y="710.0"/>
      <point x="193.52499999999998" y="710.0" type="curve" smooth="yes"/>
      <point x="126.325" y="710.0"/>
      <point x="65.27499999999999" y="692.05"/>
      <point x="21.95" y="658.4499999999999" type="curve"/>
      <point x="64.17500000000001" y="543.0" type="line"/>
      <point x="91.55" y="558.2"/>
      <point x="128.3" y="566.7499999999999"/>
      <point x="161.75" y="566.7499999999999" type="curve" smooth="yes"/>
      <point x="217.25" y="566.7499999999999"/>
      <point x="246.14999999999998" y="537.1"/>
      <point x="246.14999999999998" y="489.07500000000005" type="curve" smooth="yes"/>
      <point x="246.14999999999998" y="443.625"/>
      <point x="221.5" y="412.775"/>
      <point x="174.95000000000002" y="412.775" type="curve" smooth="yes"/>
      <point x="111.475" y="412.775" type="line"/>
      <point x="111.475" y="299.0" type="line"/>
      <point x="171.1" y="299.0" type="line" smooth="yes"/>
      <point x="227.49999999999997" y="299.0"/>
      <point x="257.375" y="270.25"/>
      <point x="257.375" y="215.35000000000002" type="curve" smooth="yes"/>
      <point x="257.375" y="158.62499999999997"/>
      <point x="226.2" y="125.3"/>
      <point x="169.54999999999998" y="125.3" type="curve" smooth="yes"/>
      <point x="130.2" y="125.3"/>
      <point x="98.37499999999999" y="134.175"/>
      <point x="64.275" y="153.97499999999997" type="curve"/>
    </contour>
  </outline>
</glyph>
<glyph name="four" format="2">
  <advance width="436.8"/>
  <unicode hex="0034"/>
  <outline>
    <contour>
      <point x="19.550000000000004" y="112.24999999999999" type="line"/>
      <point x="218.1" y="112.24999999999999" type="line"/>
      <point x="218.1" y="0.0" type="line"/>
      <point x="359.1" y="0.0" type="line"/>
      <point x="359.1" y="112.24999999999999" type="line"/>
      <point x="421.84999999999997" y="112.24999999999999" type="line"/>
      <point x="421.84999999999997" y="231.95" type="line"/>
      <point x="359.1" y="231.95" type="line"/>
      <point x="359.1" y="699.55" type="line"/>
      <point x="206.89999999999998" y="701.3499999999999" type="line"/>
      <point x="17.9" y="235.20000000000002" type="line"/>
    </contour>
    <contour>
      <point x="114.65" y="231.95" type="line"/>
      <point x="224.4" y="517.45" type="line"/>
      <point x="224.4" y="231.95" type="line"/>
    </contour>
  </outline>
</glyph>
<glyph name="five" format="2">
  <advance width="436.8"/>
  <unicode hex="0035"/>
  <outline>
    <contour>
      <point x="28.680000000000003" y="33.345" type="line"/>
      <point x="76.38000000000001" y="4.42"/>
      <point x="123.15" y="-10.0"/>
      <point x="187.33999999999997" y="-10.0" type="curve" smooth="yes"/>
      <point x="318.295" y="-10.0"/>
      <point x="409.385" y="72.24999999999999"/>
      <point x="409.385" y="224.95" type="curve" smooth="yes"/>
      <point x="409.385" y="353.37"/>
      <point x="347.38000000000005" y="415.0249999999999"/>
      <point x="242.815" y="419.11999999999995" type="curve" smooth="yes"/>
      <point x="195.2" y="420.28999999999996" type="line"/>
      <point x="205.97499999999997" y="573.0550000000001" type="line"/>
      <point x="388.31499999999994" y="573.0550000000001" type="line"/>
      <point x="388.31499999999994" y="700.0" type="line"/>
      <point x="96.915" y="700.0" type="line"/>
      <point x="61.85" y="319.60999999999996" type="line"/>
      <point x="70.72" y="307.6" type="line"/>
      <point x="168.53000000000003" y="307.6" type="line" smooth="yes"/>
      <point x="240.73000000000002" y="307.6"/>
      <point x="269.705" y="278.69"/>
      <point x="269.705" y="219.15" type="curve" smooth="yes"/>
      <point x="269.705" y="162.12"/>
      <point x="240.655" y="125.28999999999999"/>
      <point x="170.88500000000002" y="125.28999999999999" type="curve" smooth="yes"/>
      <point x="122.595" y="125.28999999999999"/>
      <point x="87.62499999999999" y="137.39499999999998"/>
      <point x="58.915" y="152.655" type="curve"/>
    </contour>
  </outline>
</glyph>
<glyph name="six" format="2">
  <advance width="436.8"/>
  <unicode hex="0036"/>
  <outline>
    <contour>
      <point x="222.77500000000003" y="-10.0" type="curve" smooth="yes"/>
      <point x="353.25000000000006" y="-10.0"/>
      <point x="419.575" y="73.0"/>
      <point x="419.575" y="234.05" type="curve" smooth="yes"/>
      <point x="419.575" y="366.9"/>
      <point x="365.425" y="445.025"/>
      <point x="270.575" y="445.025" type="curve" smooth="yes"/>
      <point x="219.72500000000002" y="445.025"/>
      <point x="178.42499999999995" y="424.09999999999997"/>
      <point x="150.37499999999997" y="387.275" type="curve"/>
      <point x="148.65" y="278.675" type="line"/>
      <point x="168.55" y="313.02500000000003"/>
      <point x="193.575" y="334.6"/>
      <point x="223.125" y="334.6" type="curve" smooth="yes"/>
      <point x="260.15000000000003" y="334.6"/>
      <point x="282.57500000000005" y="297.82500000000005"/>
      <point x="282.57500000000005" y="228.675" type="curve" smooth="yes"/>
      <point x="282.57500000000005" y="148.0"/>
      <point x="261.0" y="110.77499999999999"/>
      <point x="226.9" y="110.77499999999999" type="curve" smooth="yes"/>
      <point x="184.1" y="110.77499999999999"/>
      <point x="164.225" y="148.05"/>
      <point x="164.225" y="350.99999999999994" type="curve" smooth="yes"/>
      <point x="164.225" y="503.3"/>
      <point x="179.975" y="580.4749999999999"/>
      <point x="281.375" y="580.4749999999999" type="curve" smooth="yes"/>
      <point x="313.975" y="580.4749999999999"/>
      <point x="343.52500000000003" y="570.575"/>
      <point x="370.475" y="555.3" type="curve"/>
      <point x="411.24999999999994" y="672.025" type="line"/>
      <point x="377.4" y="694.4250000000001"/>
      <point x="316.1000000000001" y="710.0"/>
      <point x="258.9750000000001" y="710.0" type="curve" smooth="yes"/>
      <point x="102.425" y="710.0"/>
      <point x="21.125" y="584.8000000000001"/>
      <point x="21.125" y="326.45" type="curve" smooth="yes"/>
      <point x="21.125" y="91.05000000000001"/>
      <point x="86.5" y="-10.0"/>
    </contour>
  </outline>
</glyph>
<glyph name="seven" format="2">
  <advance width="436.8"/>
  <unicode hex="0037"/>
  <outline>
    <contour>
      <point x="106.335" y="0.0" type="curve"/>
      <point x="252.84" y="0.0" type="line"/>
      <point x="253.68499999999997" y="124.50000000000001"/>
      <point x="272.33" y="214.60000000000002"/>
      <point x="318.94" y="348.13" type="curve" smooth="yes"/>
      <point x="407.18499999999995" y="602.0349999999999" type="line"/>
      <point x="407.18499999999995" y="700.0" type="line"/>
      <point x="30.425000000000004" y="700.0" type="line"/>
      <point x="30.425000000000004" y="573.0250000000001" type="line"/>
      <point x="257.745" y="573.0250000000001" type="line"/>
      <point x="179.26" y="377.51" type="line" smooth="yes"/>
      <point x="126.22000000000001" y="244.805"/>
      <point x="106.335" y="136.23"/>
    </contour>
  </outline>
</glyph>
<glyph name="eight" format="2">
  <advance width="436.84000000000003"/>
  <unicode hex="0038"/>
  <outline>
    <contour>
      <point x="221.81500000000003" y="401.375" type="curve"/>
      <point x="296.6" y="351.29499999999996" type="line"/>
      <point x="371.59499999999997" y="405.225"/>
      <point x="403.63499999999993" y="466.46999999999997"/>
      <point x="403.63499999999993" y="537.33" type="curve" smooth="yes"/>
      <point x="403.63499999999993" y="645.34"/>
      <point x="336.445" y="710.0"/>
      <point x="222.91" y="710.0" type="curve" smooth="yes"/>
      <point x="100.78999999999999" y="710.0"/>
      <point x="32.455" y="643.09"/>
      <point x="32.455" y="521.61" type="curve" smooth="yes"/>
      <point x="32.455" y="299.09"/>
      <point x="283.91499999999996" y="323.4"/>
      <point x="283.91499999999996" y="178.385" type="curve" smooth="yes"/>
      <point x="283.91499999999996" y="132.15"/>
      <point x="262.315" y="106.91"/>
      <point x="222.305" y="106.91" type="curve" smooth="yes"/>
      <point x="176.84" y="106.91"/>
      <point x="151.54500000000002" y="136.005"/>
      <point x="151.54500000000002" y="191.1" type="curve" smooth="yes"/>
      <point x="151.54500000000002" y="246.315"/>
      <point x="169.935" y="279.04"/>
      <point x="210.375" y="313.045" type="curve"/>
      <point x="131.555" y="372.52000000000004" type="line"/>
      <point x="53.730000000000004" y="326.44500000000005"/>
      <point x="17.505" y="261.63499999999993"/>
      <point x="17.505" y="181.255" type="curve" smooth="yes"/>
      <point x="17.505" y="59.050000000000004"/>
      <point x="88.9" y="-10.0"/>
      <point x="216.38" y="-10.0" type="curve" smooth="yes"/>
      <point x="349.84000000000003" y="-10.0"/>
      <point x="420.02500000000003" y="58.004999999999995"/>
      <point x="420.02500000000003" y="184.91500000000002" type="curve" smooth="yes"/>
      <point x="420.02500000000003" y="421.12999999999994"/>
      <point x="162.655" y="387.085"/>
      <point x="162.655" y="524.3399999999999" type="curve" smooth="yes"/>
      <point x="162.655" y="564.605"/>
      <point x="182.4" y="590.4549999999999"/>
      <point x="218.115" y="590.4549999999999" type="curve" smooth="yes"/>
      <point x="258.17499999999995" y="590.4549999999999"/>
      <point x="278.925" y="564.525"/>
      <point x="278.925" y="514.83" type="curve" smooth="yes"/>
      <point x="278.925" y="464.99"/>
      <point x="265.59499999999997" y="434.40000000000003"/>
    </contour>
  </outline>
</glyph>
<glyph name="nine" format="2">
  <advance width="436.8"/>
  <unicode hex="0039"/>
  <outline>
    <contour>
      <point x="182.475" y="-10.0" type="curve" smooth="yes"/>
      <point x="339.02500000000003" y="-10.0"/>
      <point x="419.17499999999995" y="114.75000000000001"/>
      <point x="419.17499999999995" y="372.5" type="curve" smooth="yes"/>
      <point x="419.17499999999995" y="608.3499999999999"/>
      <point x="356.05" y="710.0"/>
      <point x="218.625" y="710.0" type="curve" smooth="yes"/>
      <point x="88.0" y="710.0"/>
      <point x="20.725" y="626.8"/>
      <point x="20.725" y="465.74999999999994" type="curve" smooth="yes"/>
      <point x="20.725" y="332.5"/>
      <point x="75.525" y="254.975"/>
      <point x="170.77499999999998" y="254.975" type="curve" smooth="yes"/>
      <point x="220.025" y="254.975"/>
      <point x="262.175" y="276.05"/>
      <point x="289.925" y="312.57500000000005" type="curve"/>
      <point x="293.9" y="424.17500000000007" type="line"/>
      <point x="273.625" y="386.4000000000001"/>
      <point x="246.975" y="365.49999999999994"/>
      <point x="216.37500000000003" y="365.49999999999994" type="curve" smooth="yes"/>
      <point x="180.65" y="365.49999999999994"/>
      <point x="157.67499999999995" y="402.025"/>
      <point x="157.67499999999995" y="471.4749999999999" type="curve" smooth="yes"/>
      <point x="157.67499999999995" y="551.55"/>
      <point x="179.65" y="589.2249999999999"/>
      <point x="215.35" y="589.2249999999999" type="curve" smooth="yes"/>
      <point x="259.55" y="589.2249999999999"/>
      <point x="276.175" y="549.3499999999999"/>
      <point x="276.175" y="349.09999999999997" type="curve" smooth="yes"/>
      <point x="276.175" y="196.79999999999998"/>
      <point x="261.12500000000006" y="119.225"/>
      <point x="159.875" y="119.225" type="curve" smooth="yes"/>
      <point x="127.125" y="119.225"/>
      <point x="96.67500000000001" y="129.125"/>
      <point x="69.825" y="144.4" type="curve"/>
      <point x="29.050000000000004" y="28.275" type="line"/>
      <point x="62.9" y="5.875"/>
      <point x="125.35" y="-10.0"/>
    </contour>
  </outline>
</glyph>
<glyph name="less" format="2">
  <advance width="436.04"/>
  <unicode hex="003C"/>
  <outline>
    <contour>
      <point x="405.92" y="95.61" type="line"/>
      <point x="405.92" y="207.11999999999998" type="line"/>
      <point x="156.72" y="305.78999999999996" type="line"/>
      <point x="405.92" y="405.35" type="line"/>
      <point x="405.92" y="515.8" type="line"/>
      <point x="30.120000000000005" y="365.62999999999994" type="line"/>
      <point x="30.120000000000005" y="245.74" type="line"/>
    </contour>
  </outline>
</glyph>
<glyph name="equal" format="2">
  <advance width="423.44"/>
  <unicode hex="003D"/>
  <outline>
    <contour>
      <point x="380.36" y="256.78000000000003" type="line"/>
      <point x="43.08" y="256.78000000000003" type="line"/>
      <point x="43.08" y="135.63000000000002" type="line"/>
      <point x="380.36" y="135.63000000000002" type="line"/>
    </contour>
    <contour>
      <point x="380.36" y="477.01" type="line"/>
      <point x="43.08" y="477.01" type="line"/>
      <point x="43.08" y="355.86" type="line"/>
      <point x="380.36" y="355.86" type="line"/>
    </contour>
  </outline>
</glyph>
<glyph name="greater" format="2">
  <advance width="436.04"/>
  <unicode hex="003E"/>
  <outline>
    <contour>
      <point x="405.92" y="245.47" type="line"/>
      <point x="405.92" y="365.35999999999996" type="line"/>
      <point x="30.120000000000005" y="515.8" type="line"/>
      <point x="30.120000000000005" y="404.78" type="line"/>
      <point x="279.32" y="305.52000000000004" type="line"/>
      <point x="30.120000000000005" y="206.58" type="line"/>
      <point x="30.120000000000005" y="95.61" type="line"/>
    </contour>
  </outline>
</glyph>
<glyph name="question" format="2">
  <advance width="363.15999999999997"/>
  <unicode hex="003F"/>
  <outline>
    <contour>
      <point x="108.11" y="260.40999999999997" type="line"/>
      <point x="228.06999999999996" y="260.40999999999997" type="line"/>
      <point x="228.20999999999998" y="332.52" type="line"/>
      <point x="314.92" y="382.53"/>
      <point x="351.18999999999994" y="454.15"/>
      <point x="351.18999999999994" y="554.4000000000001" type="curve" smooth="yes"/>
      <point x="351.18999999999994" y="683.7"/>
      <point x="277.07" y="749.37"/>
      <point x="161.75000000000003" y="749.37" type="curve" smooth="yes"/>
      <point x="104.36000000000001" y="749.37"/>
      <point x="46.800000000000004" y="727.7900000000001"/>
      <point x="7.84" y="696.1199999999999" type="curve"/>
      <point x="55.76" y="573.84" type="line"/>
      <point x="89.59" y="599.63"/>
      <point x="114.6" y="606.16"/>
      <point x="139.91000000000003" y="606.16" type="curve" smooth="yes"/>
      <point x="182.06" y="606.16"/>
      <point x="208.42" y="575.9399999999999"/>
      <point x="208.42" y="530.09" type="curve" smooth="yes"/>
      <point x="208.42" y="483.34000000000003"/>
      <point x="191.36" y="440.78999999999996"/>
      <point x="105.1" y="393.81" type="curve"/>
    </contour>
    <contour>
      <point x="93.94999999999999" y="79.72" type="curve" smooth="yes"/>
      <point x="93.94999999999999" y="20.529999999999998"/>
      <point x="114.98000000000002" y="-7.07"/>
      <point x="168.51" y="-7.07" type="curve" smooth="yes"/>
      <point x="221.07999999999998" y="-7.07"/>
      <point x="242.8" y="20.529999999999998"/>
      <point x="242.8" y="79.72" type="curve" smooth="yes"/>
      <point x="242.8" y="139.60999999999999"/>
      <point x="221.07999999999998" y="167.20999999999998"/>
      <point x="168.51" y="167.20999999999998" type="curve" smooth="yes"/>
      <point x="114.41" y="167.20999999999998"/>
      <point x="93.94999999999999" y="139.60999999999999"/>
    </contour>
  </outline>
</glyph>
<glyph name="at" format="2">
  <advance width="726.5"/>
  <unicode hex="0040"/>
  <outline>
    <contour>
      <point x="367.30000000000007" y="-124.35999999999999" type="curve" smooth="yes"/>
      <point x="424.46" y="-124.35999999999999"/>
      <point x="498.4" y="-105.47999999999999"/>
      <point x="536.9999999999999" y="-80.75999999999999" type="curve"/>
      <point x="517.02" y="-24.720000000000002" type="line"/>
      <point x="473.64" y="-44.58000000000001"/>
      <point x="421.54" y="-57.96000000000001"/>
      <point x="368.68" y="-57.96000000000001" type="curve" smooth="yes"/>
      <point x="212.96" y="-57.96000000000001"/>
      <point x="100.12" y="21.78"/>
      <point x="100.12" y="263.78" type="curve" smooth="yes"/>
      <point x="100.12" y="488.04"/>
      <point x="191.05999999999997" y="647.36"/>
      <point x="377.03999999999996" y="647.36" type="curve" smooth="yes"/>
      <point x="563.7399999999999" y="647.36"/>
      <point x="633.0799999999999" y="537.7600000000001"/>
      <point x="633.0799999999999" y="337.21999999999997" type="curve" smooth="yes"/>
      <point x="633.0799999999999" y="219.27999999999997"/>
      <point x="599.8599999999999" y="133.89999999999998"/>
      <point x="561.0600000000002" y="134.1" type="curve" smooth="yes"/>
      <point x="532.04" y="134.1"/>
      <point x="510.61999999999995" y="155.73999999999998"/>
      <point x="517.02" y="246.16000000000003" type="curve" smooth="yes"/>
      <point x="538.38" y="520.6400000000001" type="line"/>
      <point x="486.94000000000005" y="542.64"/>
      <point x="441.32" y="553.5600000000002"/>
      <point x="382.4200000000001" y="553.5600000000002" type="curve" smooth="yes"/>
      <point x="244.92" y="553.5600000000002"/>
      <point x="184.34" y="423.2"/>
      <point x="184.34" y="257.5" type="curve" smooth="yes"/>
      <point x="184.34" y="104.32"/>
      <point x="234.98" y="51.120000000000005"/>
      <point x="299.94" y="51.120000000000005" type="curve" smooth="yes"/>
      <point x="354.78000000000003" y="51.120000000000005"/>
      <point x="388.14" y="86.22"/>
      <point x="418.78" y="153.3" type="curve"/>
      <point x="431.92" y="82.50000000000001"/>
      <point x="465.94" y="43.98000000000001"/>
      <point x="535.66" y="43.98000000000001" type="curve" smooth="yes"/>
      <point x="645.0000000000001" y="43.580000000000005"/>
      <point x="704.36" y="174.18"/>
      <point x="704.36" y="348.6" type="curve" smooth="yes"/>
      <point x="704.36" y="591.7"/>
      <point x="579.38" y="709.9999999999999"/>
      <point x="388.66" y="709.9999999999999" type="curve" smooth="yes"/>
      <point x="144.20000000000002" y="709.9999999999999"/>
      <point x="23.459999999999997" y="529.3000000000001"/>
      <point x="23.459999999999997" y="272.3999999999999" type="curve" smooth="yes"/>
      <point x="23.459999999999997" y="-6.920000000000002"/>
      <point x="159.02" y="-124.35999999999999"/>
    </contour>
    <contour>
      <point x="350.99999999999994" y="175.35999999999999" type="curve" smooth="yes"/>
      <point x="333.99999999999994" y="175.35999999999999"/>
      <point x="318.86" y="195.59999999999997"/>
      <point x="318.86" y="253.34" type="curve" smooth="yes"/>
      <point x="318.86" y="351.08000000000004"/>
      <point x="341.97999999999996" y="461.0800000000001"/>
      <point x="382.24" y="461.0800000000001" type="curve" smooth="yes"/>
      <point x="392.44" y="461.0800000000001"/>
      <point x="403.17999999999995" y="457.2"/>
      <point x="413.36" y="452.58000000000004" type="curve"/>
      <point x="398.02" y="286.44" type="line" smooth="yes"/>
      <point x="386.24000000000007" y="191.62000000000003"/>
      <point x="374.09999999999997" y="175.35999999999999"/>
    </contour>
  </outline>
</glyph>
<glyph name="A" format="2">
  <advance width="461.61"/>
  <unicode hex="0041"/>
  <anchor x="454.33" y="0.0" name="ogonek"/>
  <anchor x="229.08" y="0.0" name="bottom"/>
  <anchor x="230.3" y="700.0" name="top"/>
  <outline>
    <contour>
      <point x="7.340000000000001" y="0.0" type="line"/>
      <point x="148.39999999999998" y="0.0" type="line"/>
      <point x="169.28" y="130.0" type="line"/>
      <point x="288.2" y="130.0" type="line"/>
      <point x="310.12999999999994" y="0.0" type="line"/>
      <point x="454.33" y="0.0" type="line"/>
      <point x="323.96999999999997" y="703.0" type="line"/>
      <point x="135.03" y="703.0" type="line"/>
    </contour>
    <contour>
      <point x="185.95999999999998" y="269.33000000000004" type="line"/>
      <point x="229.22" y="593.36" type="line"/>
      <point x="271.52" y="269.33000000000004" type="line"/>
    </contour>
  </outline>
</glyph>
<glyph name="B" format="2">
  <advance width="449.96"/>
  <unicode hex="0042"/>
  <anchor x="221.43999999999997" y="700.0" name="top"/>
  <anchor x="221.43999999999997" y="0.0" name="bottom"/>
  <outline>
    <contour>
      <point x="34.995000000000005" y="2.0749999999999993" type="line"/>
      <point x="137.76" y="-8.225000000000001"/>
      <point x="148.04" y="-10.0"/>
      <point x="218.82" y="-10.0" type="curve" smooth="yes"/>
      <point x="372.78" y="-10.0"/>
      <point x="436.145" y="54.425000000000004"/>
      <point x="436.145" y="203.54000000000002" type="curve" smooth="yes"/>
      <point x="436.145" y="285.935"/>
      <point x="400.41" y="351.33500000000004"/>
      <point x="339.62999999999994" y="380.705" type="curve"/>
      <point x="339.62999999999994" y="382.48" type="line"/>
      <point x="386.00000000000006" y="411.69"/>
      <point x="411.715" y="467.42499999999995"/>
      <point x="411.715" y="536.56" type="curve" smooth="yes"/>
      <point x="411.715" y="655.18"/>
      <point x="352.085" y="710.0"/>
      <point x="218.22" y="710.0" type="curve" smooth="yes"/>
      <point x="170.35" y="710.0"/>
      <point x="110.47499999999998" y="705.8249999999999"/>
      <point x="34.995000000000005" y="697.325" type="curve"/>
    </contour>
    <contour>
      <point x="174.45499999999998" y="407.64" type="line"/>
      <point x="174.45499999999998" y="578.165" type="line"/>
      <point x="193.21" y="581.4649999999999"/>
      <point x="201.69" y="582.4649999999999"/>
      <point x="219.205" y="582.4649999999999" type="curve" smooth="yes"/>
      <point x="266.205" y="582.4649999999999"/>
      <point x="285.98" y="554.0949999999999"/>
      <point x="285.98" y="493.7150000000001" type="curve" smooth="yes"/>
      <point x="285.98" y="439.80499999999995"/>
      <point x="265.7" y="407.64"/>
      <point x="229.365" y="407.64" type="curve" smooth="yes"/>
    </contour>
    <contour>
      <point x="174.45499999999998" y="120.66499999999999" type="curve"/>
      <point x="174.45499999999998" y="295.985" type="line"/>
      <point x="228.195" y="295.985" type="line" smooth="yes"/>
      <point x="275.37999999999994" y="295.985"/>
      <point x="297.23" y="265.73499999999996"/>
      <point x="297.23" y="208.23999999999998" type="curve" smooth="yes"/>
      <point x="297.23" y="144.06999999999996"/>
      <point x="276.505" y="117.17499999999998"/>
      <point x="219.005" y="117.17499999999998" type="curve" smooth="yes"/>
      <point x="206.77999999999997" y="117.17499999999998"/>
      <point x="193.89000000000001" y="118.365"/>
    </contour>
  </outline>
</glyph>
<glyph name="C" format="2">
  <advance width="403.1700000000001"/>
  <unicode hex="0043"/>
  <anchor x="233.23999999999998" y="700.0" name="top"/>
  <anchor x="237.23999999999998" y="0.0" name="bottom"/>
  <outline>
    <contour>
      <point x="18.51" y="344.22" type="curve" smooth="yes"/>
      <point x="18.51" y="80.41000000000001"/>
      <point x="89.60000000000001" y="-10.0"/>
      <point x="243.05" y="-10.0" type="curve" smooth="yes"/>
      <point x="300.46999999999997" y="-10.0"/>
      <point x="348.85999999999996" y="-1.4700000000000004"/>
      <point x="389.0" y="15.09" type="curve"/>
      <point x="364.92" y="140.1" type="line"/>
      <point x="337.13" y="130.6"/>
      <point x="297.37" y="123.55999999999999"/>
      <point x="268.65999999999997" y="123.55999999999999" type="curve" smooth="yes"/>
      <point x="190.80999999999997" y="123.55999999999999"/>
      <point x="159.05" y="170.75"/>
      <point x="159.05" y="341.84000000000003" type="curve" smooth="yes"/>
      <point x="159.05" y="526.03"/>
      <point x="191.98000000000002" y="576.45"/>
      <point x="268.9" y="576.45" type="curve" smooth="yes"/>
      <point x="299.07" y="576.45"/>
      <point x="325.56" y="571.66"/>
      <point x="359.81" y="561.0200000000001" type="curve"/>
      <point x="387.46000000000004" y="685.1999999999999" type="line"/>
      <point x="350.78000000000003" y="701.4300000000001"/>
      <point x="304.48" y="710.0"/>
      <point x="250.57" y="710.0" type="curve" smooth="yes"/>
      <point x="90.92" y="710.0"/>
      <point x="18.51" y="610.4399999999999"/>
    </contour>
  </outline>
</glyph>
<glyph name="D" format="2">
  <advance width="466.01"/>
  <unicode hex="0044"/>
  <anchor x="227.13" y="700.0" name="top"/>
  <outline>
    <contour>
      <point x="208.20000000000002" y="-10.0" type="curve" smooth="yes"/>
      <point x="376.88" y="-10.0"/>
      <point x="447.455" y="94.255"/>
      <point x="447.455" y="351.95" type="curve" smooth="yes"/>
      <point x="447.455" y="605.5799999999999"/>
      <point x="387.23999999999995" y="710.0"/>
      <point x="208.325" y="710.0" type="curve" smooth="yes"/>
      <point x="144.46499999999997" y="710.0"/>
      <point x="93.63" y="707.225"/>
      <point x="34.995000000000005" y="699.7299999999999" type="curve"/>
      <point x="34.995000000000005" y="-1.6500000000000006" type="line"/>
      <point x="84.76" y="-7.18"/>
      <point x="142.2" y="-10.0"/>
    </contour>
    <contour>
      <point x="221.24" y="116.02499999999999" type="curve" smooth="yes"/>
      <point x="203.23999999999998" y="116.02499999999999"/>
      <point x="189.39" y="117.25499999999998"/>
      <point x="173.87000000000003" y="118.82000000000001" type="curve"/>
      <point x="173.87000000000003" y="579.2800000000001" type="line"/>
      <point x="187.4" y="581.32"/>
      <point x="205.3" y="582.4699999999999"/>
      <point x="220.72499999999997" y="582.4699999999999" type="curve" smooth="yes"/>
      <point x="282.11" y="582.4699999999999"/>
      <point x="303.46" y="536.6000000000001"/>
      <point x="303.46" y="349.58" type="curve" smooth="yes"/>
      <point x="303.46" y="170.55499999999998"/>
      <point x="280.75" y="116.02499999999999"/>
    </contour>
  </outline>
</glyph>
<glyph name="E" format="2">
  <advance width="393.945"/>
  <unicode hex="0045"/>
  <anchor x="378.67999999999995" y="0.0" name="ogonek"/>
  <anchor x="206.385" y="0.0" name="bottom"/>
  <anchor x="205.67000000000002" y="700.0" name="top"/>
  <outline>
    <contour>
      <point x="34.995000000000005" y="0.0" type="line"/>
      <point x="378.8299999999999" y="0.0" type="line"/>
      <point x="378.8299999999999" y="133.63" type="line"/>
      <point x="174.205" y="133.63" type="line"/>
      <point x="174.205" y="290.2799999999999" type="line"/>
      <point x="344.575" y="290.2799999999999" type="line"/>
      <point x="344.575" y="416.685" type="line"/>
      <point x="174.205" y="416.685" type="line"/>
      <point x="174.205" y="563.445" type="line"/>
      <point x="366.28499999999997" y="563.445" type="line"/>
      <point x="366.28499999999997" y="700.0" type="line"/>
      <point x="34.995000000000005" y="700.0" type="line"/>
    </contour>
  </outline>
</glyph>
<glyph name="F" format="2">
  <advance width="376.32"/>
  <unicode hex="0046"/>
  <outline>
    <contour>
      <point x="34.995000000000005" y="0.0" type="line"/>
      <point x="175.19" y="0.0" type="line"/>
      <point x="175.19" y="246.62000000000003" type="line"/>
      <point x="334.65999999999997" y="246.62000000000003" type="line"/>
      <point x="334.65999999999997" y="382.84999999999997" type="line"/>
      <point x="173.87000000000003" y="382.84999999999997" type="line"/>
      <point x="173.87000000000003" y="562.545" type="line"/>
      <point x="364.8499999999999" y="562.545" type="line"/>
      <point x="364.8499999999999" y="700.0" type="line"/>
      <point x="34.995000000000005" y="700.0" type="line"/>
    </contour>
  </outline>
</glyph>
<glyph name="G" format="2">
  <advance width="443.64"/>
  <unicode hex="0047"/>
  <anchor x="235.64999999999998" y="700.0" name="top"/>
  <anchor x="235.45000000000002" y="0.0" name="bottom"/>
  <outline>
    <contour>
      <point x="18.51" y="345.48" type="curve" smooth="yes"/>
      <point x="18.51" y="100.38000000000001"/>
      <point x="84.67" y="-10.0"/>
      <point x="230.97" y="-10.0" type="curve" smooth="yes"/>
      <point x="304.67999999999995" y="-10.0"/>
      <point x="365.21999999999997" y="4.41"/>
      <point x="416.72" y="35.5" type="curve"/>
      <point x="416.72" y="392.66" type="line"/>
      <point x="226.25" y="392.66" type="line"/>
      <point x="226.25" y="265.90000000000003" type="line"/>
      <point x="289.69" y="265.90000000000003" type="line"/>
      <point x="289.69" y="124.61" type="line"/>
      <point x="277.72" y="119.10999999999999"/>
      <point x="260.01" y="116.13999999999999"/>
      <point x="238.87" y="116.13999999999999" type="curve" smooth="yes"/>
      <point x="182.26000000000002" y="116.13999999999999"/>
      <point x="157.79" y="173.93"/>
      <point x="157.79" y="337.43" type="curve" smooth="yes"/>
      <point x="157.79" y="508.35999999999996"/>
      <point x="189.95" y="577.71"/>
      <point x="266.65000000000003" y="577.71" type="curve" smooth="yes"/>
      <point x="299.59" y="577.71"/>
      <point x="342.04" y="570.36"/>
      <point x="373.94" y="559.9999999999999" type="curve"/>
      <point x="398.86" y="685.38" type="line"/>
      <point x="362.22" y="699.8"/>
      <point x="302.06" y="710.0"/>
      <point x="251.47" y="710.0" type="curve" smooth="yes"/>
      <point x="90.55" y="710.0"/>
      <point x="18.51" y="596.7299999999999"/>
    </contour>
  </outline>
</glyph>
<glyph name="H" format="2">
  <advance width="472.54"/>
  <unicode hex="0048"/>
  <anchor x="236.6" y="700.0" name="top"/>
  <outline>
    <contour>
      <point x="34.980000000000004" y="0.0" type="line"/>
      <point x="173.63000000000002" y="0.0" type="line"/>
      <point x="173.63000000000002" y="245.68" type="line"/>
      <point x="298.90999999999997" y="245.68" type="line"/>
      <point x="298.90999999999997" y="0.0" type="line"/>
      <point x="437.56" y="0.0" type="line"/>
      <point x="437.56" y="700.0" type="line"/>
      <point x="298.90999999999997" y="700.0" type="line"/>
      <point x="298.90999999999997" y="384.76000000000005" type="line"/>
      <point x="173.63000000000002" y="384.76000000000005" type="line"/>
      <point x="173.63000000000002" y="700.0" type="line"/>
      <point x="34.980000000000004" y="700.0" type="line"/>
    </contour>
  </outline>
</glyph>
<glyph name="I" format="2">
  <advance width="208.61"/>
  <unicode hex="0049"/>
  <anchor x="173.63000000000002" y="0.0" name="ogonek"/>
  <anchor x="104.62" y="0.0" name="bottom"/>
  <anchor x="104.62" y="700.0" name="top"/>
  <outline>
    <contour>
      <point x="34.980000000000004" y="0.0" type="line"/>
      <point x="173.63000000000002" y="0.0" type="line"/>
      <point x="173.63000000000002" y="700.0" type="line"/>
      <point x="34.980000000000004" y="700.0" type="line"/>
    </contour>
  </outline>
</glyph>
<glyph name="J" format="2">
  <advance width="337.74"/>
  <unicode hex="004A"/>
  <anchor x="176.63" y="700.0" name="top"/>
  <outline>
    <contour>
      <point x="3.0600000000000005" y="18.38" type="line"/>
      <point x="42.38" y="2.0699999999999994"/>
      <point x="89.75000000000001" y="-10.03"/>
      <point x="144.43" y="-10.03" type="curve" smooth="yes"/>
      <point x="255.02" y="-10.03"/>
      <point x="306.76" y="57.919999999999995"/>
      <point x="306.76" y="181.98" type="curve" smooth="yes"/>
      <point x="306.76" y="700.0" type="line"/>
      <point x="39.92" y="700.0" type="line"/>
      <point x="39.92" y="563.3" type="line"/>
      <point x="168.11" y="563.3" type="line"/>
      <point x="168.11" y="229.47" type="line" smooth="yes"/>
      <point x="168.11" y="143.67999999999998"/>
      <point x="145.64" y="122.25999999999999"/>
      <point x="95.99" y="122.25999999999999" type="curve" smooth="yes"/>
      <point x="77.87" y="122.25999999999999"/>
      <point x="52.01" y="127.36999999999999"/>
      <point x="27.269999999999996" y="134.64999999999998" type="curve"/>
    </contour>
  </outline>
</glyph>
<glyph name="K" format="2">
  <advance width="475.7"/>
  <unicode hex="004B"/>
  <anchor x="239.45" y="700.0" name="top"/>
  <anchor x="248.54999999999998" y="0.0" name="bottom"/>
  <outline>
    <contour>
      <point x="434.25" y="-10.0" type="curve" smooth="yes"/>
      <point x="441.59999999999997" y="-10.0"/>
      <point x="448.75" y="-10.0"/>
      <point x="458.55" y="-8.0" type="curve"/>
      <point x="458.55" y="155.60000000000002" type="line"/>
      <point x="455.04999999999995" y="155.6"/>
      <point x="451.09999999999997" y="155.6"/>
      <point x="447.85" y="155.6" type="curve" smooth="yes"/>
      <point x="427.74999999999994" y="155.7"/>
      <point x="404.19999999999993" y="165.65"/>
      <point x="349.15" y="235.29999999999998" type="curve" smooth="yes"/>
      <point x="170.8" y="461.15" type="line"/>
      <point x="170.8" y="700.0" type="line"/>
      <point x="37.1" y="700.0" type="line"/>
      <point x="37.1" y="0.0" type="line"/>
      <point x="170.8" y="0.0" type="line"/>
      <point x="170.8" y="238.30000000000004" type="line"/>
      <point x="303.55" y="68.85000000000001" type="line" smooth="yes"/>
      <point x="344.8" y="16.3"/>
      <point x="383.15" y="-10.0"/>
    </contour>
    <contour>
      <point x="259.29999999999995" y="277.55" type="line"/>
      <point x="355.5" y="378.5"/>
      <point x="432.65" y="503.65000000000003"/>
      <point x="465.75" y="670.0" type="curve"/>
      <point x="346.15" y="701.5500000000001" type="line"/>
      <point x="316.05" y="559.75"/>
      <point x="236.9" y="441.79999999999995"/>
      <point x="184.65" y="383.35" type="curve"/>
    </contour>
  </outline>
</glyph>
<glyph name="L" format="2">
  <advance width="367.2"/>
  <unicode hex="004C"/>
  <anchor x="183.93" y="350.0" name="center"/>
  <anchor x="104.62" y="700.0" name="top"/>
  <anchor x="236.35" y="700.0" name="topright"/>
  <anchor x="195.93" y="0.0" name="bottom"/>
  <outline>
    <contour>
      <point x="34.980000000000004" y="0.0" type="line"/>
      <point x="356.5" y="0.0" type="line"/>
      <point x="356.5" y="134.67000000000002" type="line"/>
      <point x="174.26" y="134.67000000000002" type="line"/>
      <point x="174.26" y="700.0" type="line"/>
      <point x="34.980000000000004" y="700.0" type="line"/>
    </contour>
  </outline>
</glyph>
<glyph name="M" format="2">
  <advance width="555.79"/>
  <unicode hex="004D"/>
  <outline>
    <contour>
      <point x="35.08" y="0.0" type="line"/>
      <point x="160.64" y="0.0" type="line"/>
      <point x="160.64" y="454.33000000000004" type="line"/>
      <point x="241.56" y="171.75000000000003" type="line"/>
      <point x="311.96999999999997" y="171.75000000000003" type="line"/>
      <point x="395.15000000000003" y="455.37" type="line"/>
      <point x="395.15000000000003" y="0.0" type="line"/>
      <point x="520.71" y="0.0" type="line"/>
      <point x="520.71" y="700.0" type="line"/>
      <point x="377.95000000000005" y="700.0" type="line"/>
      <point x="280.39" y="380.18" type="line"/>
      <point x="183.14" y="700.0" type="line"/>
      <point x="35.08" y="700.0" type="line"/>
    </contour>
  </outline>
</glyph>
<glyph name="N" format="2">
  <advance width="476.875"/>
  <unicode hex="004E"/>
  <anchor x="238.60000000000002" y="700.0" name="top"/>
  <anchor x="238.60000000000002" y="0.0" name="bottom"/>
  <outline>
    <contour>
      <point x="34.974999999999994" y="0.0" type="line"/>
      <point x="158.025" y="0.0" type="line"/>
      <point x="158.025" y="395.27500000000003" type="line"/>
      <point x="301.1" y="-0.30000000000000004" type="line"/>
      <point x="441.9" y="-0.30000000000000004" type="line"/>
      <point x="441.9" y="700.0" type="line"/>
      <point x="318.95" y="700.0" type="line"/>
      <point x="318.95" y="285.62500000000006" type="line"/>
      <point x="176.39999999999998" y="700.3" type="line"/>
      <point x="34.974999999999994" y="700.3" type="line"/>
    </contour>
  </outline>
</glyph>
<glyph name="O" format="2">
  <advance width="464.375"/>
  <unicode hex="004F"/>
  <anchor x="309.05" y="7.349999999999999" name="ogonek"/>
  <anchor x="232.09999999999997" y="700.0" name="top"/>
  <anchor x="356.12499999999994" y="695.15" name="topright"/>
  <anchor x="231.875" y="0.0" name="bottom"/>
  <outline>
    <contour>
      <point x="232.09999999999997" y="117.4" type="curve" smooth="yes"/>
      <point x="182.825" y="117.4"/>
      <point x="161.025" y="158.85"/>
      <point x="161.025" y="349.175" type="curve" smooth="yes"/>
      <point x="161.025" y="540.725"/>
      <point x="182.875" y="583.2"/>
      <point x="232.09999999999997" y="583.2" type="curve" smooth="yes"/>
      <point x="282.67499999999995" y="583.2"/>
      <point x="303.67499999999995" y="541.5"/>
      <point x="303.67499999999995" y="350.40000000000003" type="curve" smooth="yes"/>
      <point x="303.67499999999995" y="160.49999999999997"/>
      <point x="282.275" y="117.4"/>
    </contour>
    <contour>
      <point x="231.875" y="-10.0" type="curve" smooth="yes"/>
      <point x="375.575" y="-10.0"/>
      <point x="445.5" y="74.44999999999999"/>
      <point x="445.5" y="351.72499999999997" type="curve" smooth="yes"/>
      <point x="445.5" y="626.2499999999999"/>
      <point x="377.425" y="710.0"/>
      <point x="232.09999999999997" y="710.0" type="curve" smooth="yes"/>
      <point x="87.22500000000001" y="710.0"/>
      <point x="18.875000000000004" y="624.95"/>
      <point x="18.875000000000004" y="348.95000000000005" type="curve" smooth="yes"/>
      <point x="18.875000000000004" y="73.75"/>
      <point x="88.4" y="-10.0"/>
    </contour>
  </outline>
</glyph>
<glyph name="P" format="2">
  <advance width="451.95000000000005"/>
  <unicode hex="0050"/>
  <outline>
    <contour>
      <point x="34.980000000000004" y="0.0" type="line"/>
      <point x="174.26" y="0.0" type="line"/>
      <point x="174.26" y="197.75" type="line"/>
      <point x="210.73" y="194.56"/>
      <point x="215.22999999999996" y="194.53"/>
      <point x="248.95" y="194.53" type="curve" smooth="yes"/>
      <point x="382.29" y="194.53"/>
      <point x="438.03000000000003" y="277.96999999999997"/>
      <point x="438.03000000000003" y="459.33" type="curve" smooth="yes"/>
      <point x="438.03000000000003" y="634.0899999999999"/>
      <point x="386.46000000000004" y="710.0"/>
      <point x="217.58" y="710.0" type="curve" smooth="yes"/>
      <point x="190.37000000000003" y="710.0"/>
      <point x="128.82999999999998" y="708.5600000000001"/>
      <point x="34.980000000000004" y="702.34" type="curve"/>
    </contour>
    <contour>
      <point x="174.89" y="580.8000000000001" type="line"/>
      <point x="200.16" y="584.0200000000001"/>
      <point x="213.63" y="584.3499999999999"/>
      <point x="227.29999999999998" y="584.3499999999999" type="curve" smooth="yes"/>
      <point x="283.62" y="584.3499999999999"/>
      <point x="298.26000000000005" y="548.86"/>
      <point x="298.26000000000005" y="466.01" type="curve" smooth="yes"/>
      <point x="298.26000000000005" y="357.52"/>
      <point x="279.83000000000004" y="319.04"/>
      <point x="218.56" y="319.04" type="curve" smooth="yes"/>
      <point x="202.01999999999998" y="319.04"/>
      <point x="191.60000000000002" y="319.2"/>
      <point x="174.89" y="321.1" type="curve"/>
    </contour>
  </outline>
</glyph>
<glyph name="Q" format="2">
  <advance width="464.48"/>
  <unicode hex="0051"/>
  <outline>
    <contour>
      <point x="331.42" y="40.739999999999995" type="curve"/>
      <point x="225.29999999999998" y="8.870000000000001" type="line"/>
      <point x="246.56" y="-122.49999999999999"/>
      <point x="279.24" y="-178.46"/>
      <point x="358.20000000000005" y="-178.46" type="curve" smooth="yes"/>
      <point x="382.44" y="-178.46"/>
      <point x="407.90999999999997" y="-172.91"/>
      <point x="429.59" y="-164.68" type="curve"/>
      <point x="414.09999999999997" y="-32.720000000000006" type="line"/>
      <point x="403.77" y="-37.62000000000001"/>
      <point x="392.15" y="-41.160000000000004"/>
      <point x="381.29999999999995" y="-41.160000000000004" type="curve" smooth="yes"/>
      <point x="356.07" y="-41.160000000000004"/>
      <point x="344.2" y="-16.010000000000023"/>
    </contour>
    <component base="O"/>
  </outline>
</glyph>
<glyph name="R" format="2">
  <advance width="474.15"/>
  <unicode hex="0052"/>
  <anchor x="234.2" y="700.0" name="top"/>
  <anchor x="237.85" y="0.0" name="bottom"/>
  <outline>
    <contour>
      <point x="420.4" y="-10.0" type="curve" smooth="yes"/>
      <point x="441.65" y="-10.0"/>
      <point x="453.75" y="-7.65"/>
      <point x="463.04999999999995" y="-5.5" type="curve"/>
      <point x="461.75" y="141.60000000000002" type="line"/>
      <point x="459.0" y="141.60000000000002"/>
      <point x="452.59999999999997" y="141.45000000000002"/>
      <point x="450.09999999999997" y="141.45000000000002" type="curve" smooth="yes"/>
      <point x="414.6" y="141.45000000000002"/>
      <point x="383.24999999999994" y="169.6"/>
      <point x="339.7" y="278.25" type="curve"/>
      <point x="406.65" y="306.4"/>
      <point x="438.19999999999993" y="385.15"/>
      <point x="438.19999999999993" y="490.75" type="curve" smooth="yes"/>
      <point x="438.19999999999993" y="644.05"/>
      <point x="366.69999999999993" y="709.6"/>
      <point x="227.25" y="709.6" type="curve" smooth="yes"/>
      <point x="158.15" y="709.6"/>
      <point x="101.2" y="706.1999999999999"/>
      <point x="37.1" y="700.55" type="curve"/>
      <point x="37.1" y="0.0" type="line"/>
      <point x="169.10000000000002" y="0.0" type="line"/>
      <point x="169.10000000000002" y="233.10000000000002" type="line"/>
      <point x="180.89999999999998" y="232.39999999999998"/>
      <point x="194.15" y="232.29999999999998"/>
      <point x="206.1" y="232.29999999999998" type="curve" smooth="yes"/>
      <point x="211.14999999999998" y="232.29999999999998"/>
      <point x="219.1" y="232.75"/>
      <point x="224.25" y="233.25000000000003" type="curve"/>
      <point x="299.79999999999995" y="15.95"/>
      <point x="351.45" y="-10.0"/>
    </contour>
    <contour>
      <point x="220.55" y="342.6" type="curve" smooth="yes"/>
      <point x="201.70000000000002" y="342.6"/>
      <point x="187.45" y="343.7"/>
      <point x="169.10000000000002" y="344.95" type="curve"/>
      <point x="169.10000000000002" y="581.45" type="line"/>
      <point x="192.45" y="584.7"/>
      <point x="206.35000000000002" y="585.55"/>
      <point x="223.95000000000002" y="585.55" type="curve" smooth="yes"/>
      <point x="285.1" y="585.55"/>
      <point x="303.45" y="551.45"/>
      <point x="303.45" y="469.20000000000005" type="curve" smooth="yes"/>
      <point x="303.45" y="382.45"/>
      <point x="278.09999999999997" y="342.6"/>
    </contour>
  </outline>
</glyph>
<glyph name="S" format="2">
  <advance width="421.04999999999995"/>
  <unicode hex="0053"/>
  <anchor x="213.92499999999998" y="700.0" name="top"/>
  <anchor x="205.39" y="0.0" name="bottom"/>
  <outline>
    <contour>
      <point x="388.415" y="679.24" type="line"/>
      <point x="357.79" y="694.275"/>
      <point x="287.795" y="710.0"/>
      <point x="227.2" y="710.0" type="curve" smooth="yes"/>
      <point x="72.7" y="710.0"/>
      <point x="17.67" y="615.7850000000001"/>
      <point x="17.67" y="517.265" type="curve" smooth="yes"/>
      <point x="17.67" y="415.79999999999995"/>
      <point x="64.75" y="355.07"/>
      <point x="136.99500000000003" y="308.21999999999997" type="curve" smooth="yes"/>
      <point x="216.21" y="259.55"/>
      <point x="268.605" y="229.745"/>
      <point x="268.605" y="179.755" type="curve" smooth="yes"/>
      <point x="268.605" y="137.31"/>
      <point x="236.41" y="115.41999999999999"/>
      <point x="182.745" y="115.41999999999999" type="curve" smooth="yes"/>
      <point x="141.445" y="115.41999999999999"/>
      <point x="89.96" y="125.015"/>
      <point x="34.794999999999995" y="145.15" type="curve"/>
      <point x="6.965000000000002" y="26.919999999999998" type="line"/>
      <point x="65.08" y="0.25500000000000017"/>
      <point x="131.065" y="-10.0"/>
      <point x="185.04000000000002" y="-10.0" type="curve" smooth="yes"/>
      <point x="331.95" y="-10.0"/>
      <point x="407.48499999999996" y="69.895"/>
      <point x="407.48499999999996" y="187.325" type="curve" smooth="yes"/>
      <point x="407.48499999999996" y="295.085"/>
      <point x="354.095" y="351.42999999999995"/>
      <point x="273.53" y="396.69999999999993" type="curve" smooth="yes"/>
      <point x="200.095" y="438.45"/>
      <point x="158.85000000000002" y="467.38"/>
      <point x="158.85000000000002" y="516.6600000000001" type="curve" smooth="yes"/>
      <point x="158.85000000000002" y="559.51"/>
      <point x="187.935" y="580.9599999999999"/>
      <point x="238.365" y="580.9599999999999" type="curve" smooth="yes"/>
      <point x="276.37" y="580.9599999999999"/>
      <point x="320.24500000000006" y="574.9599999999999"/>
      <point x="360.41" y="559.5749999999999" type="curve"/>
    </contour>
  </outline>
</glyph>
<glyph name="T" format="2">
  <advance width="413.61999999999995"/>
  <unicode hex="0054"/>
  <anchor x="206.80999999999997" y="700.0" name="top"/>
  <anchor x="206.80999999999997" y="0.0" name="bottom"/>
  <outline>
    <contour>
      <point x="403.34" y="562.84" type="line"/>
      <point x="403.34" y="700.0" type="line"/>
      <point x="10.28" y="700.0" type="line"/>
      <point x="10.28" y="562.84" type="line"/>
      <point x="137.8" y="562.84" type="line"/>
      <point x="137.8" y="0.0" type="line"/>
      <point x="276.45000000000005" y="0.0" type="line"/>
      <point x="276.45000000000005" y="562.84" type="line"/>
    </contour>
  </outline>
</glyph>
<glyph name="U" format="2">
  <advance width="463.59999999999997"/>
  <unicode hex="0055"/>
  <anchor x="302.12" y="1.26" name="ogonek"/>
  <anchor x="232.24999999999997" y="700.0" name="top"/>
  <anchor x="432.62" y="700.0" name="topright"/>
  <anchor x="232.24999999999997" y="0.0" name="bottom"/>
  <outline>
    <contour>
      <point x="30.979999999999997" y="194.44" type="line"/>
      <point x="30.979999999999997" y="42.4"/>
      <point x="107.52000000000001" y="-10.0"/>
      <point x="230.99" y="-10.0" type="curve" smooth="yes"/>
      <point x="358.87" y="-10.0"/>
      <point x="432.62" y="42.4"/>
      <point x="432.62" y="194.44" type="curve" smooth="yes"/>
      <point x="432.62" y="700.0" type="line"/>
      <point x="293.27" y="700.0" type="line"/>
      <point x="293.27" y="180.92999999999998" type="line" smooth="yes"/>
      <point x="293.27" y="130.67000000000002"/>
      <point x="267.67" y="115.76999999999998"/>
      <point x="231.20000000000002" y="115.76999999999998" type="curve" smooth="yes"/>
      <point x="195.85" y="115.76999999999998"/>
      <point x="169.07" y="130.04"/>
      <point x="169.07" y="180.92999999999998" type="curve" smooth="yes"/>
      <point x="169.07" y="700.0" type="line"/>
      <point x="30.979999999999997" y="700.0" type="line"/>
    </contour>
  </outline>
</glyph>
<glyph name="V" format="2">
  <advance width="455.4099999999999"/>
  <unicode hex="0056"/>
  <outline>
    <contour>
      <point x="141.17000000000002" y="0.0" type="line"/>
      <point x="318.95000000000005" y="0.0" type="line"/>
      <point x="454.01" y="699.85" type="line"/>
      <point x="304.22" y="700.82" type="line"/>
      <point x="230.2" y="138.45" type="line"/>
      <point x="151.79999999999998" y="700.82" type="line"/>
      <point x="1.4000000000000006" y="699.85" type="line"/>
    </contour>
  </outline>
</glyph>
<glyph name="W" format="2">
  <advance width="593.15"/>
  <unicode hex="0057"/>
  <anchor x="296.65" y="700.0" name="top"/>
  <anchor x="296.65" y="0.0" name="bottom"/>
  <outline>
    <contour>
      <point x="498.53999999999996" y="0.0" type="line"/>
      <point x="591.4699999999999" y="699.96" type="line"/>
      <point x="439.89" y="700.71" type="line"/>
      <point x="416.07000000000005" y="158.36" type="line"/>
      <point x="351.82" y="660.97" type="line"/>
      <point x="244.49999999999997" y="660.97" type="line"/>
      <point x="179.05999999999997" y="158.47999999999996" type="line"/>
      <point x="152.84" y="700.71" type="line"/>
      <point x="1.6800000000000015" y="699.96" type="line"/>
      <point x="93.66" y="0.0" type="line"/>
      <point x="240.2" y="0.0" type="line"/>
      <point x="295.14" y="427.9" type="line"/>
      <point x="346.78" y="0.0" type="line"/>
    </contour>
  </outline>
</glyph>
<glyph name="X" format="2">
  <advance width="469.08"/>
  <unicode hex="0058"/>
  <outline>
    <contour>
      <point x="3.4799999999999995" y="0.7100000000000002" type="line"/>
      <point x="168.71999999999997" y="-1.3900000000000001" type="line"/>
      <point x="234.93499999999997" y="262.855" type="line"/>
      <point x="300.05" y="-1.3900000000000001" type="line"/>
      <point x="464.835" y="0.7100000000000002" type="line"/>
      <point x="338.79999999999995" y="357.28499999999997" type="line"/>
      <point x="456.53499999999997" y="699.0649999999999" type="line"/>
      <point x="296.135" y="701.015" type="line"/>
      <point x="236.605" y="449.45" type="line"/>
      <point x="176.08" y="701.015" type="line"/>
      <point x="14.045000000000002" y="699.0649999999999" type="line"/>
      <point x="131.83" y="356.02" type="line"/>
    </contour>
  </outline>
</glyph>
<glyph name="Y" format="2">
  <advance width="452.79999999999995"/>
  <unicode hex="0059"/>
  <anchor x="226.67" y="700.0" name="top"/>
  <anchor x="226.61" y="0.0" name="bottom"/>
  <outline>
    <contour>
      <point x="157.24" y="0.0" type="line"/>
      <point x="295.89" y="0.0" type="line"/>
      <point x="295.89" y="241.30000000000004" type="line"/>
      <point x="450.69" y="698.95" type="line"/>
      <point x="293.92" y="701.05" type="line"/>
      <point x="227.01999999999995" y="340.32" type="line"/>
      <point x="158.07999999999998" y="701.05" type="line"/>
      <point x="1.0300000000000007" y="698.95" type="line"/>
      <point x="157.24" y="241.30000000000004" type="line"/>
    </contour>
  </outline>
</glyph>
<glyph name="Z" format="2">
  <advance width="420.3"/>
  <unicode hex="005A"/>
  <anchor x="212.25" y="350.0" name="center"/>
  <anchor x="212.25" y="0.0" name="bottom"/>
  <anchor x="215.46" y="700.0" name="top"/>
  <outline>
    <contour>
      <point x="14.53" y="0.0" type="line"/>
      <point x="406.49" y="0.0" type="line"/>
      <point x="406.49" y="129.12" type="line"/>
      <point x="163.30999999999997" y="129.12" type="line"/>
      <point x="163.30999999999997" y="130.31" type="line"/>
      <point x="397.23999999999995" y="568.8" type="line"/>
      <point x="397.23999999999995" y="700.0" type="line"/>
      <point x="25.06" y="700.0" type="line"/>
      <point x="25.06" y="571.33" type="line"/>
      <point x="248.60000000000002" y="571.33" type="line"/>
      <point x="248.60000000000002" y="569.69" type="line"/>
      <point x="14.53" y="131.65" type="line"/>
    </contour>
  </outline>
</glyph>
<glyph name="bracketleft" format="2">
  <advance width="245.72"/>
  <unicode hex="005B"/>
  <outline>
    <contour>
      <point x="135.34" y="-99.7" type="line"/>
      <point x="135.34" y="629.6999999999999" type="line"/>
      <point x="235.01999999999998" y="629.6999999999999" type="line"/>
      <point x="235.01999999999998" y="740.0" type="line"/>
      <point x="29.450000000000003" y="740.0" type="line"/>
      <point x="29.450000000000003" y="-210.0" type="line"/>
      <point x="235.01999999999998" y="-210.0" type="line"/>
      <point x="235.01999999999998" y="-99.7" type="line"/>
    </contour>
  </outline>
</glyph>
<glyph name="backslash" format="2">
  <advance width="355.40999999999997"/>
  <unicode hex="005C"/>
  <outline>
    <contour>
      <point x="111.27999999999999" y="740.0" type="line"/>
      <point x="-4.759999999999999" y="740.0" type="line"/>
      <point x="244.76" y="-210.0" type="line"/>
      <point x="360.16999999999996" y="-210.0" type="line"/>
    </contour>
  </outline>
</glyph>
<glyph name="bracketright" format="2">
  <advance width="245.72"/>
  <unicode hex="005D"/>
  <outline>
    <contour>
      <point x="10.700000000000001" y="-99.7" type="line"/>
      <point x="10.700000000000001" y="-210.0" type="line"/>
      <point x="216.27" y="-210.0" type="line"/>
      <point x="216.27" y="740.0" type="line"/>
      <point x="10.700000000000001" y="740.0" type="line"/>
      <point x="10.700000000000001" y="629.6999999999999" type="line"/>
      <point x="110.38000000000001" y="629.6999999999999" type="line"/>
      <point x="110.38000000000001" y="-99.7" type="line"/>
    </contour>
  </outline>
</glyph>
<glyph name="asciicircum" format="2">
  <advance width="436.04"/>
  <unicode hex="005E"/>
  <outline>
    <contour>
      <point x="45.75" y="250.20999999999998" type="line"/>
      <point x="147.31" y="250.20999999999998" type="line"/>
      <point x="218.02" y="559.91" type="line"/>
      <point x="289.43" y="250.20999999999998" type="line"/>
      <point x="390.28999999999996" y="250.20999999999998" type="line"/>
      <point x="285.49" y="703.0" type="line"/>
      <point x="150.54999999999998" y="703.0" type="line"/>
    </contour>
  </outline>
</glyph>
<glyph name="underscore" format="2">
  <advance width="661.34"/>
  <unicode hex="005F"/>
  <outline>
    <contour>
      <point x="14.0" y="-187.17" type="line"/>
      <point x="647.34" y="-187.17" type="line"/>
      <point x="647.34" y="-63.57" type="line"/>
      <point x="14.0" y="-63.57" type="line"/>
    </contour>
  </outline>
</glyph>
<glyph name="a" format="2">
  <advance width="419.6499999999999"/>
  <unicode hex="0061"/>
  <anchor x="417.1" y="10.799999999999999" name="ogonek"/>
  <anchor x="207.15" y="0.0" name="bottom"/>
  <anchor x="201.4" y="544.0" name="top"/>
  <outline>
    <contour>
      <point x="11.3" y="147.79999999999998" type="curve" smooth="yes"/>
      <point x="11.3" y="62.849999999999994"/>
      <point x="47.9" y="-10.0"/>
      <point x="130.8" y="-10.0" type="curve" smooth="yes"/>
      <point x="185.1" y="-10.0"/>
      <point x="217.2" y="8.850000000000001"/>
      <point x="249.6" y="40.05" type="curve"/>
      <point x="264.09999999999997" y="6.85"/>
      <point x="290.25000000000006" y="-10.0"/>
      <point x="336.9" y="-10.0" type="curve" smooth="yes"/>
      <point x="372.90000000000003" y="-10.0"/>
      <point x="396.75" y="-0.8500000000000009"/>
      <point x="417.1" y="10.95" type="curve"/>
      <point x="407.09999999999997" y="128.95" type="line"/>
      <point x="401.44999999999993" y="126.15"/>
      <point x="394.29999999999995" y="125.14999999999998"/>
      <point x="388.29999999999995" y="125.14999999999998" type="curve" smooth="yes"/>
      <point x="378.79999999999995" y="125.14999999999998"/>
      <point x="371.0" y="131.75"/>
      <point x="371.0" y="159.24999999999997" type="curve" smooth="yes"/>
      <point x="371.0" y="367.15" type="line" smooth="yes"/>
      <point x="371.0" y="486.4"/>
      <point x="318.25" y="554.0"/>
      <point x="182.9" y="554.0" type="curve" smooth="yes"/>
      <point x="139.34999999999997" y="554.0"/>
      <point x="77.95" y="542.3"/>
      <point x="32.05" y="524.0" type="curve"/>
      <point x="59.800000000000004" y="400.45" type="line"/>
      <point x="111.19999999999999" y="417.2"/>
      <point x="145.2" y="420.5"/>
      <point x="170.0" y="420.5" type="curve" smooth="yes"/>
      <point x="210.85" y="420.5"/>
      <point x="240.05" y="400.85"/>
      <point x="240.05" y="364.0" type="curve" smooth="yes"/>
      <point x="240.05" y="326.34999999999997" type="line"/>
      <point x="91.65" y="307.15"/>
      <point x="11.3" y="273.29999999999995"/>
    </contour>
    <contour>
      <point x="141.64999999999998" y="161.15" type="curve" smooth="yes"/>
      <point x="141.64999999999998" y="222.0"/>
      <point x="181.70000000000002" y="234.10000000000002"/>
      <point x="240.05" y="240.35" type="curve"/>
      <point x="240.05" y="120.89999999999999" type="line"/>
      <point x="225.20000000000002" y="104.85000000000001"/>
      <point x="202.2" y="94.55000000000001"/>
      <point x="181.4" y="94.55000000000001" type="curve" smooth="yes"/>
      <point x="157.6" y="94.55000000000001"/>
      <point x="141.64999999999998" y="113.75"/>
    </contour>
  </outline>
</glyph>
<glyph name="b" format="2">
  <advance width="421.43"/>
  <unicode hex="0062"/>
  <outline>
    <contour>
      <point x="31.35" y="15.29" type="line"/>
      <point x="85.15" y="-0.2900000000000002"/>
      <point x="145.85" y="-10.0"/>
      <point x="193.32" y="-10.0" type="curve" smooth="yes"/>
      <point x="345.08000000000004" y="-10.0"/>
      <point x="403.05" y="70.91"/>
      <point x="403.05" y="287.82" type="curve" smooth="yes"/>
      <point x="403.05" y="467.67"/>
      <point x="356.65000000000003" y="554.0"/>
      <point x="260.59999999999997" y="554.0" type="curve" smooth="yes"/>
      <point x="231.02" y="554.0"/>
      <point x="194.92" y="542.0600000000001"/>
      <point x="168.6" y="523.9499999999999" type="curve"/>
      <point x="168.6" y="740.0" type="line"/>
      <point x="31.35" y="740.0" type="line"/>
    </contour>
    <contour>
      <point x="168.6" y="105.75" type="curve"/>
      <point x="168.6" y="411.0" type="line"/>
      <point x="185.83" y="422.21999999999997"/>
      <point x="198.16999999999996" y="426.6"/>
      <point x="213.05" y="426.6" type="curve" smooth="yes"/>
      <point x="244.24" y="426.6"/>
      <point x="258.59" y="387.10999999999996"/>
      <point x="258.59" y="273.60999999999996" type="curve" smooth="yes"/>
      <point x="258.59" y="135.57"/>
      <point x="243.78" y="99.81"/>
      <point x="202.26" y="99.81" type="curve" smooth="yes"/>
      <point x="192.36" y="99.81"/>
      <point x="182.54999999999995" y="101.6"/>
    </contour>
  </outline>
</glyph>
<glyph name="c" format="2">
  <advance width="360.17"/>
  <unicode hex="0063"/>
  <anchor x="217.95000000000002" y="544.0" name="top"/>
  <anchor x="222.42" y="0.0" name="bottom"/>
  <outline>
    <contour>
      <point x="18.680000000000003" y="269.06000000000006" type="curve" smooth="yes"/>
      <point x="18.680000000000003" y="79.34000000000002"/>
      <point x="81.89" y="-10.0"/>
      <point x="213.97" y="-10.0" type="curve" smooth="yes"/>
      <point x="261.09000000000003" y="-10.0"/>
      <point x="318.65999999999997" y="-0.5500000000000003"/>
      <point x="350.08000000000004" y="11.709999999999999" type="curve"/>
      <point x="323.16999999999996" y="135.78000000000003" type="line"/>
      <point x="296.97" y="129.62"/>
      <point x="270.91999999999996" y="125.63"/>
      <point x="247.39" y="125.63" type="curve" smooth="yes"/>
      <point x="191.67" y="125.63"/>
      <point x="161.94" y="163.81"/>
      <point x="161.94" y="272.38999999999993" type="curve" smooth="yes"/>
      <point x="161.94" y="382.83"/>
      <point x="191.31" y="417.69000000000005"/>
      <point x="250.32000000000002" y="417.69000000000005" type="curve" smooth="yes"/>
      <point x="274.65000000000003" y="417.69000000000005"/>
      <point x="298.12" y="414.8500000000001"/>
      <point x="320.37" y="409.1" type="curve"/>
      <point x="342.90000000000003" y="538.19" type="line"/>
      <point x="315.1" y="548.1"/>
      <point x="267.74" y="554.0"/>
      <point x="224.95" y="554.0" type="curve" smooth="yes"/>
      <point x="87.07000000000001" y="554.0"/>
      <point x="18.680000000000003" y="461.38"/>
    </contour>
  </outline>
</glyph>
<glyph name="d" format="2">
  <advance width="422.15999999999997"/>
  <unicode hex="0064"/>
  <anchor x="210.11" y="275.0" name="center"/>
  <anchor x="206.925" y="740.0" name="top"/>
  <anchor x="433.35999999999996" y="740.0" name="topright"/>
  <anchor x="210.11" y="0.0" name="bottom"/>
  <outline>
    <contour>
      <point x="267.87" y="-0.30999999999999994" type="line"/>
      <point x="390.88499999999993" y="-0.30999999999999994" type="line"/>
      <point x="390.88499999999993" y="740.0" type="line"/>
      <point x="252.82500000000002" y="740.0" type="line"/>
      <point x="252.82500000000002" y="547.8050000000001" type="line"/>
      <point x="236.23" y="551.8899999999999"/>
      <point x="216.95" y="554.0"/>
      <point x="200.92999999999998" y="554.0" type="curve" smooth="yes"/>
      <point x="78.78" y="554.0"/>
      <point x="18.335000000000004" y="457.96999999999997"/>
      <point x="18.335000000000004" y="261.865" type="curve" smooth="yes"/>
      <point x="18.335000000000004" y="82.52000000000001"/>
      <point x="66.28999999999999" y="-10.0"/>
      <point x="157.99500000000003" y="-10.0" type="curve" smooth="yes"/>
      <point x="193.26000000000002" y="-10.0"/>
      <point x="228.60999999999999" y="1.4"/>
      <point x="255.86" y="21.235000000000003" type="curve"/>
    </contour>
    <contour>
      <point x="252.78500000000003" y="129.31" type="line"/>
      <point x="237.475" y="120.12999999999998"/>
      <point x="223.815" y="115.67500000000001"/>
      <point x="209.4" y="115.67500000000001" type="curve" smooth="yes"/>
      <point x="177.96999999999997" y="115.67500000000001"/>
      <point x="163.59" y="158.0"/>
      <point x="163.59" y="281.04" type="curve" smooth="yes"/>
      <point x="163.59" y="408.43"/>
      <point x="178.29500000000002" y="442.12"/>
      <point x="219.07999999999998" y="442.12" type="curve" smooth="yes"/>
      <point x="229.77" y="442.12"/>
      <point x="239.02999999999997" y="440.43500000000006"/>
      <point x="252.78500000000003" y="434.41" type="curve"/>
    </contour>
  </outline>
</glyph>
<glyph name="e" format="2">
  <advance width="408.08"/>
  <unicode hex="0065"/>
  <anchor x="344.11" y="8.829999999999998" name="ogonek"/>
  <anchor x="209.58" y="0.0" name="bottom"/>
  <anchor x="212.46" y="544.0" name="top"/>
  <outline>
    <contour>
      <point x="212.70999999999998" y="-10.0" type="curve" smooth="yes"/>
      <point x="278.30999999999995" y="-10.0"/>
      <point x="331.14000000000004" y="-0.07000000000000028"/>
      <point x="385.09" y="22.07" type="curve"/>
      <point x="366.74" y="136.18" type="line"/>
      <point x="325.72" y="124.69"/>
      <point x="283.66" y="116.00999999999999"/>
      <point x="246.18" y="116.00999999999999" type="curve" smooth="yes"/>
      <point x="180.08999999999997" y="116.00999999999999"/>
      <point x="159.85" y="144.36999999999998"/>
      <point x="159.77" y="214.14000000000001" type="curve" smooth="yes"/>
      <point x="159.77" y="218.41000000000003"/>
      <point x="159.77" y="222.13000000000002"/>
      <point x="159.92" y="226.40000000000003" type="curve"/>
      <point x="234.19" y="228.43"/>
      <point x="336.98" y="240.22000000000003"/>
      <point x="388.59" y="246.84" type="curve"/>
      <point x="389.18000000000006" y="263.10999999999996"/>
      <point x="390.14000000000004" y="293.6"/>
      <point x="390.14000000000004" y="305.83000000000004" type="curve" smooth="yes"/>
      <point x="390.14000000000004" y="482.84000000000003"/>
      <point x="337.46000000000004" y="554.0"/>
      <point x="218.55" y="554.0" type="curve" smooth="yes"/>
      <point x="90.9" y="554.0"/>
      <point x="18.560000000000002" y="477.59000000000003"/>
      <point x="18.560000000000002" y="261.78999999999996" type="curve" smooth="yes"/>
      <point x="18.560000000000002" y="70.03"/>
      <point x="83.69000000000001" y="-10.0"/>
    </contour>
    <contour>
      <point x="160.11" y="317.08" type="curve"/>
      <point x="164.20000000000002" y="423.65999999999997"/>
      <point x="183.45" y="445.28"/>
      <point x="211.10999999999999" y="445.28" type="curve" smooth="yes"/>
      <point x="239.73999999999998" y="445.28"/>
      <point x="253.88000000000002" y="419.78000000000003"/>
      <point x="254.49999999999997" y="322.6500000000001" type="curve"/>
      <point x="236.36999999999998" y="320.41"/>
      <point x="194.8" y="317.31000000000006"/>
    </contour>
  </outline>
</glyph>
<glyph name="f" format="2">
  <advance width="288.06"/>
  <unicode hex="0066"/>
  <outline>
    <contour>
      <point x="63.22000000000001" y="0.0" type="line"/>
      <point x="197.67" y="0.0" type="line"/>
      <point x="197.67" y="399.59" type="line"/>
      <point x="273.3" y="399.59" type="line"/>
      <point x="273.3" y="512.35" type="line"/>
      <point x="198.3" y="512.35" type="line"/>
      <point x="198.3" y="530.06" type="line" smooth="yes"/>
      <point x="198.3" y="601.09"/>
      <point x="217.16" y="629.08"/>
      <point x="256.05" y="629.08" type="curve" smooth="yes"/>
      <point x="270.28" y="629.08"/>
      <point x="285.73999999999995" y="626.63"/>
      <point x="305.92" y="620.21" type="curve"/>
      <point x="326.4" y="726.54" type="line"/>
      <point x="289.27" y="743.3399999999999"/>
      <point x="256.67" y="750.03"/>
      <point x="219.53" y="750.03" type="curve" smooth="yes"/>
      <point x="116.62" y="750.03"/>
      <point x="63.22000000000001" y="676.1200000000001"/>
      <point x="63.22000000000001" y="531.7399999999999" type="curve" smooth="yes"/>
      <point x="63.22000000000001" y="512.35" type="line"/>
      <point x="8.450000000000001" y="504.77000000000004" type="line"/>
      <point x="8.450000000000001" y="399.59" type="line"/>
      <point x="63.22000000000001" y="399.59" type="line"/>
    </contour>
  </outline>
</glyph>
<glyph name="g" format="2">
  <advance width="424.56999999999994"/>
  <unicode hex="0067"/>
  <anchor x="196.83999999999997" y="544.0" name="top"/>
  <anchor x="209.44000000000003" y="-211.0" name="bottom"/>
  <outline>
    <contour>
      <point x="192.32999999999998" y="-220.0" type="curve" smooth="yes"/>
      <point x="333.85" y="-220.0"/>
      <point x="409.75999999999993" y="-150.03000000000003"/>
      <point x="409.75999999999993" y="-33.25" type="curve" smooth="yes"/>
      <point x="409.75999999999993" y="61.33"/>
      <point x="359.95000000000005" y="116.98"/>
      <point x="271.66" y="116.98" type="curve" smooth="yes"/>
      <point x="174.18" y="116.98" type="line" smooth="yes"/>
      <point x="143.92" y="116.98"/>
      <point x="128.17" y="128.5"/>
      <point x="128.17" y="151.54999999999998" type="curve" smooth="yes"/>
      <point x="128.17" y="174.26"/>
      <point x="137.15000000000003" y="185.98000000000002"/>
      <point x="159.22" y="200.81" type="curve"/>
      <point x="88.58" y="223.50000000000003" type="line"/>
      <point x="52.900000000000006" y="197.9"/>
      <point x="27.42" y="162.58999999999997"/>
      <point x="27.42" y="109.67000000000002" type="curve" smooth="yes"/>
      <point x="27.42" y="41.2"/>
      <point x="77.39" y="-5.9899999999999975"/>
      <point x="161.86" y="-5.9899999999999975" type="curve" smooth="yes"/>
      <point x="235.56999999999996" y="-5.9899999999999975" type="line" smooth="yes"/>
      <point x="270.56" y="-5.9899999999999975"/>
      <point x="283.46000000000004" y="-20.18"/>
      <point x="283.46000000000004" y="-48.690000000000005" type="curve" smooth="yes"/>
      <point x="283.46000000000004" y="-83.11"/>
      <point x="255.83" y="-103.19000000000003"/>
      <point x="200.19" y="-103.19000000000003" type="curve" smooth="yes"/>
      <point x="140.86999999999998" y="-103.19000000000003"/>
      <point x="115.86999999999998" y="-85.98000000000002"/>
      <point x="115.86999999999998" y="-47.79000000000001" type="curve" smooth="yes"/>
      <point x="115.86999999999998" y="-22.530000000000005"/>
      <point x="126.44" y="-7.629999999999997"/>
      <point x="147.45999999999998" y="6.050000000000002" type="curve"/>
      <point x="74.30999999999999" y="34.980000000000004" type="line"/>
      <point x="35.05" y="12.000000000000002"/>
      <point x="10.020000000000001" y="-25.61"/>
      <point x="10.020000000000001" y="-81.94000000000001" type="curve" smooth="yes"/>
      <point x="10.020000000000001" y="-172.99999999999997"/>
      <point x="74.75999999999998" y="-220.0"/>
    </contour>
    <contour>
      <point x="199.14999999999998" y="175.79000000000005" type="curve" smooth="yes"/>
      <point x="312.03000000000003" y="175.79000000000005"/>
      <point x="370.36999999999995" y="239.76"/>
      <point x="370.36999999999995" y="364.84000000000003" type="curve" smooth="yes"/>
      <point x="370.36999999999995" y="490.07000000000005"/>
      <point x="312.03000000000003" y="554.04"/>
      <point x="199.14999999999998" y="554.04" type="curve" smooth="yes"/>
      <point x="85.82" y="554.04"/>
      <point x="27.480000000000004" y="490.07000000000005"/>
      <point x="27.480000000000004" y="364.84000000000003" type="curve" smooth="yes"/>
      <point x="27.480000000000004" y="239.76"/>
      <point x="85.82" y="175.79000000000005"/>
    </contour>
    <contour>
      <point x="199.14999999999998" y="276.8" type="curve" smooth="yes"/>
      <point x="170.70000000000002" y="276.8"/>
      <point x="157.83" y="297.83"/>
      <point x="157.83" y="364.84000000000003" type="curve" smooth="yes"/>
      <point x="157.83" y="432.15"/>
      <point x="170.70000000000002" y="453.18"/>
      <point x="199.14999999999998" y="453.18" type="curve" smooth="yes"/>
      <point x="227.6" y="453.18"/>
      <point x="240.01999999999998" y="432.15"/>
      <point x="240.01999999999998" y="364.84000000000003" type="curve" smooth="yes"/>
      <point x="240.01999999999998" y="297.83"/>
      <point x="227.6" y="276.8"/>
    </contour>
    <contour>
      <point x="342.85" y="420.02" type="line"/>
      <point x="352.75" y="440.7300000000001"/>
      <point x="365.63" y="451.05000000000007"/>
      <point x="381.19" y="451.05000000000007" type="curve" smooth="yes"/>
      <point x="391.27000000000004" y="451.05000000000007"/>
      <point x="398.39" y="449.65000000000003"/>
      <point x="405.73999999999995" y="447.87" type="curve"/>
      <point x="425.13999999999993" y="566.53" type="line"/>
      <point x="412.96000000000004" y="572.7399999999999"/>
      <point x="396.54999999999995" y="576.5899999999999"/>
      <point x="379.46999999999997" y="576.5899999999999" type="curve" smooth="yes"/>
      <point x="341.4" y="576.5899999999999"/>
      <point x="312.01" y="556.72"/>
      <point x="292.50000000000006" y="514.8100000000001" type="curve"/>
    </contour>
  </outline>
</glyph>
<glyph name="h" format="2">
  <advance width="421.91499999999996"/>
  <unicode hex="0068"/>
  <anchor x="210.29500000000002" y="395.0" name="center"/>
  <anchor x="210.995" y="0.0" name="bottom"/>
  <anchor x="215.815" y="740.0" name="top"/>
  <outline>
    <contour>
      <point x="31.275000000000002" y="0.0" type="line"/>
      <point x="168.75" y="0.0" type="line"/>
      <point x="168.75" y="408.48" type="line"/>
      <point x="184.4" y="418.45000000000005"/>
      <point x="201.115" y="424.555"/>
      <point x="217.32" y="424.555" type="curve" smooth="yes"/>
      <point x="239.13" y="424.555"/>
      <point x="253.74999999999997" y="412.07"/>
      <point x="253.74999999999997" y="381.145" type="curve" smooth="yes"/>
      <point x="253.74999999999997" y="0.0" type="line"/>
      <point x="391.80999999999995" y="0.0" type="line"/>
      <point x="391.80999999999995" y="420.265" type="line" smooth="yes"/>
      <point x="391.80999999999995" y="514.4600000000002"/>
      <point x="347.995" y="554.0"/>
      <point x="279.0" y="554.0" type="curve" smooth="yes"/>
      <point x="242.49499999999998" y="554.0"/>
      <point x="203.09" y="540.535"/>
      <point x="168.75" y="511.455" type="curve"/>
      <point x="168.75" y="740.0" type="line"/>
      <point x="31.275000000000002" y="740.0" type="line"/>
    </contour>
  </outline>
</glyph>
<glyph name="i" format="2">
  <advance width="199.95"/>
  <unicode hex="0069"/>
  <anchor x="168.57" y="0.0" name="ogonek"/>
  <anchor x="100.28999999999999" y="0.0" name="bottom"/>
  <outline>
    <contour>
      <point x="100.28999999999999" y="601.47" type="curve" smooth="yes"/>
      <point x="153.96999999999997" y="601.47"/>
      <point x="178.92" y="627.74"/>
      <point x="178.92" y="683.57" type="curve" smooth="yes"/>
      <point x="178.92" y="740.66"/>
      <point x="152.70999999999998" y="766.3"/>
      <point x="100.28999999999999" y="766.3" type="curve" smooth="yes"/>
      <point x="47.239999999999995" y="766.3"/>
      <point x="21.03" y="740.66"/>
      <point x="21.03" y="683.57" type="curve" smooth="yes"/>
      <point x="21.03" y="627.11"/>
      <point x="47.540000000000006" y="601.47"/>
    </contour>
    <contour>
      <point x="31.35" y="0.0" type="line"/>
      <point x="168.6" y="0.0" type="line"/>
      <point x="168.6" y="544.0" type="line"/>
      <point x="31.35" y="544.0" type="line"/>
    </contour>
  </outline>
</glyph>
<glyph name="j" format="2">
  <advance width="201.7"/>
  <unicode hex="006A"/>
  <outline>
    <contour>
      <point x="170.38" y="544.0" type="line"/>
      <point x="33.13" y="544.0" type="line"/>
      <point x="33.13" y="23.38" type="line" smooth="yes"/>
      <point x="33.13" y="-37.43000000000001"/>
      <point x="20.750000000000004" y="-65.58"/>
      <point x="-8.64" y="-75.18" type="curve" smooth="yes"/>
      <point x="-18.2" y="-76.71000000000001"/>
      <point x="-26.5" y="-76.05000000000001"/>
      <point x="-38.25" y="-73.83000000000001" type="curve"/>
      <point x="-53.230000000000004" y="-204.92" type="line"/>
      <point x="-25.929999999999996" y="-211.15"/>
      <point x="0.47000000000000036" y="-213.34"/>
      <point x="23.589999999999996" y="-211.54" type="curve" smooth="yes"/>
      <point x="129.35999999999999" y="-200.5"/>
      <point x="170.38" y="-126.96"/>
      <point x="170.38" y="12.809999999999999" type="curve" smooth="yes"/>
    </contour>
    <contour>
      <point x="102.01" y="601.47" type="curve" smooth="yes"/>
      <point x="155.42" y="601.47"/>
      <point x="180.64" y="627.74"/>
      <point x="180.64" y="683.57" type="curve" smooth="yes"/>
      <point x="180.64" y="740.66"/>
      <point x="154.16" y="766.3"/>
      <point x="102.01" y="766.3" type="curve" smooth="yes"/>
      <point x="48.96" y="766.3"/>
      <point x="22.750000000000004" y="740.66"/>
      <point x="22.750000000000004" y="683.57" type="curve" smooth="yes"/>
      <point x="22.750000000000004" y="627.11"/>
      <point x="49.26" y="601.47"/>
    </contour>
  </outline>
</glyph>
<glyph name="k" format="2">
  <advance width="405.85"/>
  <unicode hex="006B"/>
  <anchor x="95.65" y="740.0" name="top"/>
  <anchor x="212.29999999999998" y="0.0" name="bottom"/>
  <outline>
    <contour>
      <point x="363.29999999999995" y="-9.15" type="curve" smooth="yes"/>
      <point x="375.65000000000003" y="-9.15"/>
      <point x="387.25" y="-8.15"/>
      <point x="399.75" y="-5.0" type="curve"/>
      <point x="398.9" y="138.39999999999998" type="line"/>
      <point x="395.34999999999997" y="138.39999999999998"/>
      <point x="392.0" y="137.79999999999998"/>
      <point x="388.95" y="137.79999999999998" type="curve" smooth="yes"/>
      <point x="362.45000000000005" y="137.79999999999998"/>
      <point x="340.25" y="154.2"/>
      <point x="273.6" y="248.70000000000002" type="curve" smooth="yes"/>
      <point x="158.0" y="414.0" type="line"/>
      <point x="158.0" y="740.0" type="line"/>
      <point x="33.3" y="740.0" type="line"/>
      <point x="33.3" y="0.0" type="line"/>
      <point x="158.0" y="0.0" type="line"/>
      <point x="158.0" y="198.75000000000003" type="line"/>
      <point x="237.89999999999998" y="86.1" type="line" smooth="yes"/>
      <point x="293.5" y="7.6"/>
      <point x="319.55" y="-9.15"/>
    </contour>
    <contour>
      <point x="241.5" y="222.55" type="line"/>
      <point x="314.65" y="319.05"/>
      <point x="381.2" y="437.65"/>
      <point x="397.74999999999994" y="543.8499999999999" type="curve"/>
      <point x="269.29999999999995" y="553.0" type="line"/>
      <point x="257.5" y="449.00000000000006"/>
      <point x="217.04999999999998" y="380.65"/>
      <point x="157.05" y="305.2" type="curve"/>
    </contour>
  </outline>
</glyph>
<glyph name="l" format="2">
  <advance width="232.91000000000003"/>
  <unicode hex="006C"/>
  <anchor x="116.85000000000001" y="395.0" name="center"/>
  <anchor x="100.28999999999999" y="740.0" name="top"/>
  <anchor x="211.14999999999998" y="740.0" name="topright"/>
  <anchor x="132.65" y="0.0" name="bottom"/>
  <outline>
    <contour>
      <point x="168.6" y="740.0" type="line"/>
      <point x="31.35" y="740.0" type="line"/>
      <point x="31.35" y="156.18999999999997" type="line" smooth="yes"/>
      <point x="31.35" y="34.3"/>
      <point x="70.71" y="-10.0"/>
      <point x="155.29" y="-10.0" type="curve" smooth="yes"/>
      <point x="186.63000000000002" y="-10.0"/>
      <point x="214.97" y="0.5499999999999986"/>
      <point x="233.33999999999997" y="11.2" type="curve"/>
      <point x="223.45999999999998" y="126.97" type="line"/>
      <point x="212.89" y="124.08999999999999"/>
      <point x="204.14000000000001" y="122.63"/>
      <point x="197.57" y="122.63" type="curve" smooth="yes"/>
      <point x="180.06" y="122.63"/>
      <point x="168.6" y="131.56999999999996"/>
      <point x="168.6" y="174.18" type="curve" smooth="yes"/>
    </contour>
  </outline>
</glyph>
<glyph name="m" format="2">
  <advance width="632.83"/>
  <unicode hex="006D"/>
  <outline>
    <contour>
      <point x="31.35" y="0.0" type="line"/>
      <point x="169.23" y="0.0" type="line"/>
      <point x="169.23" y="409.40999999999997" type="line"/>
      <point x="182.68" y="418.22"/>
      <point x="198.09" y="424.28000000000003"/>
      <point x="212.85000000000002" y="424.28000000000003" type="curve" smooth="yes"/>
      <point x="235.51000000000002" y="424.28000000000003"/>
      <point x="248.18000000000004" y="409.46000000000004"/>
      <point x="248.18000000000004" y="381.07" type="curve" smooth="yes"/>
      <point x="248.18000000000004" y="0.0" type="line"/>
      <point x="386.05999999999995" y="0.0" type="line"/>
      <point x="386.05999999999995" y="388.49" type="line" smooth="yes"/>
      <point x="386.05999999999995" y="395.64000000000004"/>
      <point x="385.19" y="402.71000000000004"/>
      <point x="383.44" y="408.3" type="curve"/>
      <point x="397.79" y="417.82"/>
      <point x="413.84000000000003" y="424.5"/>
      <point x="429.69" y="424.5" type="curve" smooth="yes"/>
      <point x="452.4" y="424.5"/>
      <point x="464.86" y="409.71999999999997"/>
      <point x="464.86" y="381.19" type="curve" smooth="yes"/>
      <point x="464.86" y="0.0" type="line"/>
      <point x="602.74" y="0.0" type="line"/>
      <point x="602.74" y="423.40000000000003" type="line" smooth="yes"/>
      <point x="602.74" y="507.61999999999995"/>
      <point x="564.4" y="554.0"/>
      <point x="492.83000000000004" y="554.0" type="curve" smooth="yes"/>
      <point x="449.05" y="554.0"/>
      <point x="408.40999999999997" y="540.4"/>
      <point x="365.43" y="507.07000000000005" type="curve"/>
      <point x="347.67" y="537.53"/>
      <point x="318.2" y="553.85"/>
      <point x="275.21999999999997" y="553.85" type="curve" smooth="yes"/>
      <point x="236.64999999999998" y="553.85"/>
      <point x="197.26" y="542.67"/>
      <point x="156.35000000000002" y="511.08" type="curve"/>
      <point x="156.35000000000002" y="544.0" type="line"/>
      <point x="31.35" y="544.0" type="line"/>
    </contour>
  </outline>
</glyph>
<glyph name="n" format="2">
  <advance width="422.40999999999997"/>
  <unicode hex="006E"/>
  <anchor x="211.89999999999998" y="544.0" name="top"/>
  <anchor x="212.5" y="0.0" name="bottom"/>
  <outline>
    <contour>
      <point x="31.35" y="0.0" type="line"/>
      <point x="169.23" y="0.0" type="line"/>
      <point x="169.23" y="408.54" type="line"/>
      <point x="184.31" y="417.97"/>
      <point x="201.67000000000002" y="424.78000000000003"/>
      <point x="217.98000000000002" y="424.78000000000003" type="curve" smooth="yes"/>
      <point x="239.79000000000002" y="424.78000000000003"/>
      <point x="254.44000000000003" y="412.19"/>
      <point x="254.44000000000003" y="381.21999999999997" type="curve" smooth="yes"/>
      <point x="254.44000000000003" y="0.0" type="line"/>
      <point x="392.32" y="0.0" type="line"/>
      <point x="392.32" y="423.43" type="line" smooth="yes"/>
      <point x="392.32" y="508.66999999999996"/>
      <point x="352.99" y="554.0"/>
      <point x="279.51" y="554.0" type="curve" smooth="yes"/>
      <point x="238.67" y="554.0"/>
      <point x="198.78" y="542.57"/>
      <point x="156.35000000000002" y="510.39" type="curve"/>
      <point x="156.35000000000002" y="544.0" type="line"/>
      <point x="31.35" y="544.0" type="line"/>
    </contour>
  </outline>
</glyph>
<glyph name="o" format="2">
  <advance width="421.29999999999995"/>
  <unicode hex="006F"/>
  <anchor x="289.96999999999997" y="6.4" name="ogonek"/>
  <anchor x="210.64999999999998" y="544.0" name="top"/>
  <anchor x="319.94" y="534.3" name="topright"/>
  <anchor x="210.69" y="0.0" name="bottom"/>
  <outline>
    <contour>
      <point x="18.410000000000004" y="272.83" type="curve" smooth="yes"/>
      <point x="18.410000000000004" y="95.53"/>
      <point x="58.53" y="-10.0"/>
      <point x="210.69" y="-10.0" type="curve" smooth="yes"/>
      <point x="362.77" y="-10.0"/>
      <point x="402.89" y="95.53"/>
      <point x="402.89" y="272.83" type="curve" smooth="yes"/>
      <point x="402.89" y="448.83"/>
      <point x="364.51" y="554.0"/>
      <point x="210.69" y="554.0" type="curve" smooth="yes"/>
      <point x="56.730000000000004" y="554.0"/>
      <point x="18.410000000000004" y="448.83"/>
    </contour>
    <contour>
      <point x="161.65" y="272.78999999999996" type="curve" smooth="yes"/>
      <point x="161.65" y="405.71000000000004"/>
      <point x="173.51" y="430.54"/>
      <point x="210.64999999999998" y="430.54" type="curve" smooth="yes"/>
      <point x="247.2" y="430.54"/>
      <point x="259.59" y="405.71000000000004"/>
      <point x="259.59" y="272.78999999999996" type="curve" smooth="yes"/>
      <point x="259.59" y="139.13"/>
      <point x="246.3" y="114.08999999999999"/>
      <point x="210.64999999999998" y="114.08999999999999" type="curve" smooth="yes"/>
      <point x="174.37" y="114.08999999999999"/>
      <point x="161.65" y="139.13"/>
    </contour>
  </outline>
</glyph>
<glyph name="p" format="2">
  <advance width="422.06"/>
  <unicode hex="0070"/>
  <outline>
    <contour>
      <point x="31.35" y="-210.0" type="line"/>
      <point x="169.29999999999998" y="-210.0" type="line"/>
      <point x="169.29999999999998" y="-3.669999999999999" type="line"/>
      <point x="187.52" y="-7.859999999999999"/>
      <point x="206.71" y="-10.0"/>
      <point x="221.04000000000002" y="-10.0" type="curve" smooth="yes"/>
      <point x="343.19" y="-10.0"/>
      <point x="403.68" y="86.66"/>
      <point x="403.68" y="282.78" type="curve" smooth="yes"/>
      <point x="403.68" y="461.37"/>
      <point x="356.02" y="554.0"/>
      <point x="265.01" y="554.0" type="curve" smooth="yes"/>
      <point x="228.43" y="554.0"/>
      <point x="195.62" y="543.5300000000001"/>
      <point x="163.91" y="521.71" type="curve"/>
      <point x="156.35000000000002" y="546.7" type="line"/>
      <point x="31.35" y="546.7" type="line"/>
    </contour>
    <contour>
      <point x="202.89" y="102.33" type="curve" smooth="yes"/>
      <point x="192.36" y="102.33"/>
      <point x="182.54999999999995" y="104.75"/>
      <point x="169.23" y="110.16" type="curve"/>
      <point x="169.23" y="415.40999999999997" type="line"/>
      <point x="185.20000000000002" y="425.37"/>
      <point x="198.16999999999996" y="429.12"/>
      <point x="212.42000000000002" y="429.12" type="curve" smooth="yes"/>
      <point x="244.24" y="429.12"/>
      <point x="258.59" y="388.37"/>
      <point x="258.59" y="263.53" type="curve" smooth="yes"/>
      <point x="258.59" y="136.83"/>
      <point x="243.78" y="102.33"/>
    </contour>
  </outline>
</glyph>
<glyph name="q" format="2">
  <advance width="422.69"/>
  <unicode hex="0071"/>
  <outline>
    <contour>
      <point x="391.34" y="531.5000000000001" type="line"/>
      <point x="341.77000000000004" y="545.8199999999999"/>
      <point x="281.25000000000006" y="554.0"/>
      <point x="229.37" y="554.0" type="curve" smooth="yes"/>
      <point x="83.91" y="554.0"/>
      <point x="18.380000000000003" y="468.68"/>
      <point x="18.380000000000003" y="273.82000000000005" type="curve" smooth="yes"/>
      <point x="18.380000000000003" y="79.75"/>
      <point x="64.42" y="-10.0"/>
      <point x="162.09000000000003" y="-10.0" type="curve" smooth="yes"/>
      <point x="192.93" y="-10.0"/>
      <point x="229.03" y="1.9400000000000004"/>
      <point x="254.08999999999997" y="19.42" type="curve"/>
      <point x="254.08999999999997" y="-210.0" type="line"/>
      <point x="391.34" y="-210.0" type="line"/>
    </contour>
    <contour>
      <point x="253.46" y="436.71999999999997" type="curve"/>
      <point x="253.46" y="131.74" type="line"/>
      <point x="237.49" y="121.14999999999999"/>
      <point x="224.52" y="116.14"/>
      <point x="209.64000000000001" y="116.14" type="curve" smooth="yes"/>
      <point x="178.71999999999997" y="116.14"/>
      <point x="164.10000000000002" y="156.17000000000002"/>
      <point x="164.10000000000002" y="269.13" type="curve" smooth="yes"/>
      <point x="164.10000000000002" y="407.17"/>
      <point x="178.91" y="442.93"/>
      <point x="220.43" y="442.93" type="curve" smooth="yes"/>
      <point x="229.5" y="442.93"/>
      <point x="240.14000000000001" y="441.14000000000004"/>
    </contour>
  </outline>
</glyph>
<glyph name="r" format="2">
  <advance width="305.06"/>
  <unicode hex="0072"/>
  <anchor x="162.40999999999997" y="544.0" name="top"/>
  <anchor x="99.66000000000001" y="0.0" name="bottom"/>
  <outline>
    <contour>
      <point x="155.72" y="544.0" type="line"/>
      <point x="31.35" y="544.0" type="line"/>
      <point x="31.35" y="0.0" type="line"/>
      <point x="167.97" y="0.0" type="line"/>
      <point x="167.97" y="383.40999999999997" type="line"/>
      <point x="193.04999999999995" y="403.7"/>
      <point x="213.35999999999999" y="410.57000000000005"/>
      <point x="236.34" y="410.57000000000005" type="curve" smooth="yes"/>
      <point x="247.31" y="410.57000000000005"/>
      <point x="264.59999999999997" y="409.37"/>
      <point x="280.48" y="404.84000000000003" type="curve"/>
      <point x="304.28" y="544.99" type="line"/>
      <point x="285.01" y="552.21"/>
      <point x="269.57" y="554.0"/>
      <point x="256.24" y="554.0" type="curve" smooth="yes"/>
      <point x="214.18999999999997" y="554.0"/>
      <point x="189.23" y="537.16"/>
      <point x="155.72" y="497.13000000000005" type="curve"/>
    </contour>
  </outline>
</glyph>
<glyph name="s" format="2">
  <advance width="352.1"/>
  <unicode hex="0073"/>
  <anchor x="177.4" y="544.0" name="top"/>
  <anchor x="178.5" y="0.0" name="bottom"/>
  <outline>
    <contour>
      <point x="12.450000000000001" y="18.2" type="line"/>
      <point x="56.449999999999996" y="-1.1"/>
      <point x="102.64999999999999" y="-10.0"/>
      <point x="158.45" y="-10.0" type="curve" smooth="yes"/>
      <point x="271.55" y="-10.0"/>
      <point x="342.3" y="46.6"/>
      <point x="342.3" y="160.7" type="curve" smooth="yes"/>
      <point x="342.3" y="273.7"/>
      <point x="283.95" y="307.40000000000003"/>
      <point x="219.15000000000003" y="332.40000000000003" type="curve" smooth="yes"/>
      <point x="171.25" y="350.85"/>
      <point x="140.29999999999998" y="362.35"/>
      <point x="140.29999999999998" y="393.5" type="curve" smooth="yes"/>
      <point x="140.29999999999998" y="419.75000000000006"/>
      <point x="159.60000000000002" y="431.05"/>
      <point x="193.14999999999998" y="431.05" type="curve" smooth="yes"/>
      <point x="231.79999999999998" y="431.05"/>
      <point x="267.84999999999997" y="423.75"/>
      <point x="302.7" y="411.90000000000003" type="curve"/>
      <point x="322.09999999999997" y="528.95" type="line"/>
      <point x="289.09999999999997" y="543.95"/>
      <point x="237.99999999999997" y="554.0"/>
      <point x="190.29999999999998" y="554.0" type="curve" smooth="yes"/>
      <point x="76.45" y="554.0"/>
      <point x="13.849999999999998" y="492.20000000000005"/>
      <point x="13.849999999999998" y="380.90000000000003" type="curve" smooth="yes"/>
      <point x="13.849999999999998" y="297.24999999999994"/>
      <point x="51.55000000000001" y="249.20000000000002"/>
      <point x="117.55" y="222.55" type="curve" smooth="yes"/>
      <point x="170.1" y="201.25000000000003"/>
      <point x="212.0" y="189.15"/>
      <point x="212.0" y="152.60000000000002" type="curve" smooth="yes"/>
      <point x="212.0" y="126.79999999999998"/>
      <point x="192.6" y="110.64999999999999"/>
      <point x="154.75" y="110.64999999999999" type="curve" smooth="yes"/>
      <point x="115.85" y="110.64999999999999"/>
      <point x="59.6" y="119.49999999999999"/>
      <point x="27.699999999999996" y="131.89999999999998" type="curve"/>
    </contour>
  </outline>
</glyph>
<glyph name="t" format="2">
  <advance width="296.65999999999997"/>
  <unicode hex="0074"/>
  <anchor x="145.23000000000002" y="275.0" name="center"/>
  <anchor x="133.94" y="658.0699999999999" name="top"/>
  <anchor x="241.72" y="760.9" name="topright"/>
  <anchor x="170.12" y="0.0" name="bottom"/>
  <outline>
    <contour>
      <point x="185.88" y="-10.0" type="curve" smooth="yes"/>
      <point x="217.23000000000002" y="-10.0"/>
      <point x="257.73" y="-6.27"/>
      <point x="297.66" y="11.11" type="curve"/>
      <point x="277.64" y="123.49999999999999" type="line"/>
      <point x="262.53999999999996" y="119.5"/>
      <point x="248.29999999999998" y="117.6"/>
      <point x="235.98" y="117.6" type="curve" smooth="yes"/>
      <point x="207.92999999999998" y="117.6"/>
      <point x="193.4" y="132.44"/>
      <point x="193.4" y="183.72" type="curve" smooth="yes"/>
      <point x="193.4" y="431.24" type="line"/>
      <point x="280.11" y="431.24" type="line"/>
      <point x="280.11" y="544.0" type="line"/>
      <point x="193.4" y="544.0" type="line"/>
      <point x="193.4" y="658.0699999999999" type="line"/>
      <point x="74.21" y="658.0699999999999" type="line"/>
      <point x="56.15" y="544.0" type="line"/>
      <point x="5.950000000000001" y="537.0500000000001" type="line"/>
      <point x="5.950000000000001" y="431.87" type="line"/>
      <point x="56.15" y="431.87" type="line"/>
      <point x="56.15" y="168.88" type="line" smooth="yes"/>
      <point x="56.15" y="50.22"/>
      <point x="96.85" y="-10.0"/>
    </contour>
  </outline>
</glyph>
<glyph name="u" format="2">
  <advance width="435.64000000000004"/>
  <unicode hex="0075"/>
  <anchor x="434.40999999999997" y="11.739999999999998" name="ogonek"/>
  <anchor x="210.39000000000001" y="544.0" name="top"/>
  <anchor x="389.14" y="544.0" name="topright"/>
  <anchor x="218.34" y="0.0" name="bottom"/>
  <outline>
    <contour>
      <point x="148.09" y="-10.0" type="curve" smooth="yes"/>
      <point x="192.97000000000003" y="-10.0"/>
      <point x="232.23000000000002" y="5.839999999999999"/>
      <point x="267.46" y="32.01" type="curve"/>
      <point x="284.15000000000003" y="7.180000000000001"/>
      <point x="310.05" y="-10.0"/>
      <point x="348.58" y="-10.0" type="curve" smooth="yes"/>
      <point x="385.26" y="-10.0"/>
      <point x="412.47999999999996" y="-0.3400000000000001"/>
      <point x="434.40999999999997" y="11.739999999999998" type="curve"/>
      <point x="423.73" y="129.44" type="line"/>
      <point x="418.18" y="127.03"/>
      <point x="411.09" y="125.69999999999999"/>
      <point x="405.15" y="125.69999999999999" type="curve" smooth="yes"/>
      <point x="394.78999999999996" y="125.69999999999999"/>
      <point x="389.14" y="131.95"/>
      <point x="389.14" y="154.33" type="curve" smooth="yes"/>
      <point x="389.14" y="544.0" type="line"/>
      <point x="251.89" y="544.0" type="line"/>
      <point x="251.89" y="135.01" type="line"/>
      <point x="236.82" y="124.79999999999998"/>
      <point x="219.72" y="118.94"/>
      <point x="204.16000000000003" y="118.94" type="curve" smooth="yes"/>
      <point x="182.69" y="118.94"/>
      <point x="167.97" y="131.38"/>
      <point x="167.97" y="161.20000000000002" type="curve" smooth="yes"/>
      <point x="167.97" y="544.0" type="line"/>
      <point x="30.090000000000003" y="544.0" type="line"/>
      <point x="30.090000000000003" y="135.72" type="line" smooth="yes"/>
      <point x="30.090000000000003" y="28.4"/>
      <point x="80.89" y="-10.0"/>
    </contour>
  </outline>
</glyph>
<glyph name="v" format="2">
  <advance width="420.98499999999996"/>
  <unicode hex="0076"/>
  <outline>
    <contour>
      <point x="123.46" y="0.0" type="line"/>
      <point x="296.44499999999994" y="0.0" type="line"/>
      <point x="415.59" y="543.28" type="line"/>
      <point x="268.31" y="544.72" type="line"/>
      <point x="211.64499999999998" y="131.93" type="line"/>
      <point x="153.54999999999998" y="544.72" type="line"/>
      <point x="5.220000000000001" y="543.28" type="line"/>
    </contour>
  </outline>
</glyph>
<glyph name="w" format="2">
  <advance width="614.84"/>
  <unicode hex="0077"/>
  <anchor x="307.33" y="544.0" name="top"/>
  <anchor x="307.33" y="0.0" name="bottom"/>
  <outline>
    <contour>
      <point x="90.18" y="0.0" type="line"/>
      <point x="262.96" y="0.0" type="line"/>
      <point x="307.82" y="371.77" type="line"/>
      <point x="351.86" y="0.0" type="line"/>
      <point x="522.8900000000001" y="0.0" type="line"/>
      <point x="607.66" y="542.99" type="line"/>
      <point x="470.03000000000003" y="544.52" type="line"/>
      <point x="429.04" y="131.75" type="line"/>
      <point x="381.17" y="544.0" type="line"/>
      <point x="233.42000000000002" y="544.0" type="line"/>
      <point x="185.65" y="131.70999999999998" type="line"/>
      <point x="146.14" y="544.52" type="line"/>
      <point x="6.93" y="542.99" type="line"/>
    </contour>
  </outline>
</glyph>
<glyph name="x" format="2">
  <advance width="430.82"/>
  <unicode hex="0078"/>
  <outline>
    <contour>
      <point x="4.32" y="-1.3100000000000007" type="line"/>
      <point x="158.25500000000002" y="-2.83" type="line"/>
      <point x="216.29999999999995" y="202.13" type="line"/>
      <point x="275.605" y="-2.83" type="line"/>
      <point x="427.935" y="-1.3100000000000007" type="line"/>
      <point x="317.98499999999996" y="276.61" type="line"/>
      <point x="420.365" y="543.29" type="line"/>
      <point x="271.81" y="544.96" type="line"/>
      <point x="217.51" y="340.755" type="line"/>
      <point x="163.31" y="545.125" type="line"/>
      <point x="13.200000000000001" y="543.0250000000001" type="line"/>
      <point x="114.855" y="277.03000000000003" type="line"/>
    </contour>
  </outline>
</glyph>
<glyph name="y" format="2">
  <advance width="424.6449999999999"/>
  <unicode hex="0079"/>
  <anchor x="208.89499999999998" y="544.0" name="top"/>
  <anchor x="376.605" y="0.0" name="bottom"/>
  <outline>
    <contour>
      <point x="109.26000000000002" y="-209.34" type="line"/>
      <point x="257.39" y="-211.26" type="line"/>
      <point x="419.15500000000003" y="543.46" type="line"/>
      <point x="270.045" y="544.8400000000001" type="line"/>
      <point x="214.54000000000005" y="122.82" type="line"/>
      <point x="157.42999999999998" y="544.8399999999999" type="line"/>
      <point x="5.49" y="543.4" type="line"/>
      <point x="136.525" y="0.0" type="line"/>
      <point x="157.66" y="0.0" type="line"/>
    </contour>
  </outline>
</glyph>
<glyph name="z" format="2">
  <advance width="374.915"/>
  <unicode hex="007A"/>
  <anchor x="189.7" y="544.0" name="top"/>
  <outline>
    <contour>
      <point x="16.795" y="0.0" type="line"/>
      <point x="359.62999999999994" y="0.0" type="line"/>
      <point x="359.62999999999994" y="121.62" type="line"/>
      <point x="169.48999999999998" y="121.62" type="line"/>
      <point x="349.96999999999997" y="435.975" type="line"/>
      <point x="349.96999999999997" y="544.0" type="line"/>
      <point x="25.135" y="544.0" type="line"/>
      <point x="25.135" y="423.7" type="line"/>
      <point x="198.5" y="423.7" type="line"/>
      <point x="16.795" y="109.93" type="line"/>
    </contour>
  </outline>
</glyph>
<glyph name="braceleft" format="2">
  <advance width="251.92999999999998"/>
  <unicode hex="007B"/>
  <outline>
    <contour>
      <point x="45.42000000000001" y="-45.510000000000005" type="curve" smooth="yes"/>
      <point x="45.42000000000001" y="-158.32"/>
      <point x="100.48" y="-210.63"/>
      <point x="169.75" y="-210.63" type="curve" smooth="yes"/>
      <point x="234.72" y="-210.63" type="line"/>
      <point x="234.72" y="-100.33000000000001" type="line"/>
      <point x="203.35000000000002" y="-100.33000000000001" type="line" smooth="yes"/>
      <point x="172.15" y="-100.33000000000001"/>
      <point x="159.36" y="-70.62"/>
      <point x="159.36" y="-28.710000000000004" type="curve" smooth="yes"/>
      <point x="159.36" y="27.01"/>
      <point x="186.13" y="77.28"/>
      <point x="186.13" y="140.62" type="curve" smooth="yes"/>
      <point x="186.13" y="184.39"/>
      <point x="173.39000000000001" y="233.29"/>
      <point x="129.79" y="265.0" type="curve"/>
      <point x="173.36" y="296.43"/>
      <point x="186.13" y="344.91999999999996"/>
      <point x="186.13" y="388.69" type="curve" smooth="yes"/>
      <point x="186.13" y="450.26"/>
      <point x="159.36" y="500.38000000000005"/>
      <point x="159.36" y="558.02" type="curve" smooth="yes"/>
      <point x="159.36" y="599.93"/>
      <point x="172.15" y="629.6999999999999"/>
      <point x="203.35000000000002" y="629.6999999999999" type="curve" smooth="yes"/>
      <point x="234.72" y="629.6999999999999" type="line"/>
      <point x="234.72" y="740.0" type="line"/>
      <point x="169.75" y="740.0" type="line" smooth="yes"/>
      <point x="100.48" y="740.0"/>
      <point x="45.42000000000001" y="687.63"/>
      <point x="45.42000000000001" y="574.8199999999999" type="curve" smooth="yes"/>
      <point x="45.42000000000001" y="484.70000000000005"/>
      <point x="78.14" y="435.93000000000006"/>
      <point x="78.14" y="381.69" type="curve" smooth="yes"/>
      <point x="78.14" y="347.95"/>
      <point x="71.03" y="322.6"/>
      <point x="46.82" y="322.6" type="curve" smooth="yes"/>
      <point x="29.18" y="322.6" type="line"/>
      <point x="29.18" y="206.76999999999998" type="line"/>
      <point x="46.82" y="206.76999999999998" type="line" smooth="yes"/>
      <point x="71.03" y="206.76999999999998"/>
      <point x="78.14" y="181.63"/>
      <point x="78.14" y="147.62" type="curve" smooth="yes"/>
      <point x="78.14" y="92.63"/>
      <point x="45.42000000000001" y="42.65999999999999"/>
    </contour>
  </outline>
</glyph>
<glyph name="bar" format="2">
  <advance width="170.58"/>
  <unicode hex="007C"/>
  <outline>
    <contour>
      <point x="143.59" y="790.63" type="line"/>
      <point x="26.990000000000002" y="790.63" type="line"/>
      <point x="26.990000000000002" y="-210.0" type="line"/>
      <point x="143.59" y="-210.0" type="line"/>
    </contour>
  </outline>
</glyph>
<glyph name="braceright" format="2">
  <advance width="251.92999999999998"/>
  <unicode hex="007D"/>
  <outline>
    <contour>
      <point x="17.21" y="-100.33000000000001" type="line"/>
      <point x="17.21" y="-210.63" type="line"/>
      <point x="82.44999999999999" y="-210.63" type="line" smooth="yes"/>
      <point x="151.72" y="-210.63"/>
      <point x="206.78" y="-158.32"/>
      <point x="206.78" y="-45.510000000000005" type="curve" smooth="yes"/>
      <point x="206.78" y="42.65999999999999"/>
      <point x="174.06" y="92.63"/>
      <point x="174.06" y="147.62" type="curve" smooth="yes"/>
      <point x="174.06" y="181.63"/>
      <point x="181.17000000000002" y="206.76999999999998"/>
      <point x="205.38" y="206.76999999999998" type="curve" smooth="yes"/>
      <point x="222.74999999999997" y="206.76999999999998" type="line"/>
      <point x="222.74999999999997" y="322.6" type="line"/>
      <point x="205.38" y="322.6" type="line" smooth="yes"/>
      <point x="180.9" y="322.6"/>
      <point x="174.06" y="347.95"/>
      <point x="174.06" y="381.69" type="curve" smooth="yes"/>
      <point x="174.06" y="435.93000000000006"/>
      <point x="206.78" y="484.70000000000005"/>
      <point x="206.78" y="574.8199999999999" type="curve" smooth="yes"/>
      <point x="206.78" y="687.63"/>
      <point x="151.72" y="740.0"/>
      <point x="82.44999999999999" y="740.0" type="curve" smooth="yes"/>
      <point x="17.21" y="740.0" type="line"/>
      <point x="17.21" y="629.6999999999999" type="line"/>
      <point x="38.14" y="629.6999999999999" type="line" smooth="yes"/>
      <point x="69.07000000000001" y="629.6999999999999"/>
      <point x="82.13" y="599.93"/>
      <point x="82.13" y="558.02" type="curve" smooth="yes"/>
      <point x="82.13" y="500.38000000000005"/>
      <point x="55.36" y="450.26"/>
      <point x="55.36" y="388.69" type="curve" smooth="yes"/>
      <point x="55.36" y="344.91999999999996"/>
      <point x="67.86" y="296.43"/>
      <point x="111.7" y="265.0" type="curve"/>
      <point x="67.83" y="233.29"/>
      <point x="55.36" y="184.39"/>
      <point x="55.36" y="140.62" type="curve" smooth="yes"/>
      <point x="55.36" y="77.28"/>
      <point x="82.13" y="27.01"/>
      <point x="82.13" y="-28.710000000000004" type="curve" smooth="yes"/>
      <point x="82.13" y="-70.62"/>
      <point x="69.07000000000001" y="-100.33000000000001"/>
      <point x="38.14" y="-100.33000000000001" type="curve" smooth="yes"/>
    </contour>
  </outline>
</glyph>
<glyph name="asciitilde" format="2">
  <advance width="436.04"/>
  <unicode hex="007E"/>
  <outline>
    <contour>
      <point x="382.24999999999994" y="240.32999999999998" type="curve"/>
      <point x="382.24999999999994" y="360.49999999999994" type="line"/>
      <point x="358.26000000000005" y="335.73"/>
      <point x="334.38" y="325.99999999999994"/>
      <point x="306.31" y="325.99999999999994" type="curve" smooth="yes"/>
      <point x="234.48000000000002" y="325.99999999999994"/>
      <point x="205.46" y="407.93"/>
      <point x="134.98" y="407.93" type="curve" smooth="yes"/>
      <point x="94.58" y="407.93"/>
      <point x="62.99" y="386.64"/>
      <point x="54.129999999999995" y="374.96000000000004" type="curve"/>
      <point x="54.129999999999995" y="254.76000000000002" type="line"/>
      <point x="65.33" y="268.34000000000003"/>
      <point x="96.13000000000001" y="288.95"/>
      <point x="134.00000000000003" y="288.95" type="curve" smooth="yes"/>
      <point x="202.04" y="288.95"/>
      <point x="232.17" y="206.95"/>
      <point x="306.16999999999996" y="206.95" type="curve" smooth="yes"/>
      <point x="334.80000000000007" y="206.95"/>
      <point x="359.21" y="216.68"/>
    </contour>
  </outline>
</glyph>
<glyph name="exclamdown" format="2">
  <advance width="194.15999999999997"/>
  <unicode hex="00A1"/>
  <outline>
    <contour>
      <point x="157.62" y="283.43" type="line"/>
      <point x="38.290000000000006" y="283.43" type="line"/>
      <point x="26.810000000000002" y="-196.07" type="line"/>
      <point x="167.20999999999998" y="-196.07" type="line"/>
    </contour>
    <contour>
      <point x="171.36999999999998" y="464.21" type="curve" smooth="yes"/>
      <point x="171.36999999999998" y="523.4"/>
      <point x="150.55" y="551.0"/>
      <point x="97.07999999999998" y="551.0" type="curve" smooth="yes"/>
      <point x="43.910000000000004" y="551.0"/>
      <point x="22.790000000000003" y="523.4"/>
      <point x="22.790000000000003" y="464.21" type="curve" smooth="yes"/>
      <point x="22.790000000000003" y="404.32"/>
      <point x="43.61" y="376.72"/>
      <point x="97.07999999999998" y="376.72" type="curve" smooth="yes"/>
      <point x="150.55" y="376.72"/>
      <point x="171.36999999999998" y="404.32"/>
    </contour>
  </outline>
</glyph>
<glyph name="cent" format="2">
  <advance width="436.62"/>
  <unicode hex="00A2"/>
  <outline>
    <contour>
      <point x="248.19" y="-10.629999999999999" type="curve" smooth="yes"/>
      <point x="293.89" y="-10.629999999999999"/>
      <point x="341.93000000000006" y="-2.5000000000000004"/>
      <point x="376.69" y="11.799999999999999" type="curve"/>
      <point x="350.15" y="140.39999999999998" type="line"/>
      <point x="324.40000000000003" y="133.19"/>
      <point x="302.94" y="130.13"/>
      <point x="282.37" y="130.13" type="curve" smooth="yes"/>
      <point x="234.21000000000004" y="130.13"/>
      <point x="209.20999999999998" y="173.7"/>
      <point x="209.20999999999998" y="266.51" type="curve" smooth="yes"/>
      <point x="209.20999999999998" y="370.18"/>
      <point x="233.66000000000003" y="412.89"/>
      <point x="284.85" y="412.89" type="curve" smooth="yes"/>
      <point x="308.17" y="412.89"/>
      <point x="327.40000000000003" y="409.0"/>
      <point x="346.85" y="404.27" type="curve"/>
      <point x="369.87999999999994" y="538.19" type="line"/>
      <point x="343.98999999999995" y="545.57"/>
      <point x="299.04" y="555.26"/>
      <point x="250.76" y="555.26" type="curve" smooth="yes"/>
      <point x="108.88" y="555.26"/>
      <point x="65.73" y="430.45"/>
      <point x="65.73" y="262.30999999999995" type="curve" smooth="yes"/>
      <point x="65.73" y="79.55999999999999"/>
      <point x="124.08999999999999" y="-10.629999999999999"/>
    </contour>
    <contour>
      <point x="178.64" y="-105.63000000000001" type="line"/>
      <point x="300.13999999999993" y="-105.63000000000001" type="line"/>
      <point x="300.13999999999993" y="7.909999999999998" type="line"/>
      <point x="178.64" y="14.78" type="line"/>
    </contour>
    <contour>
      <point x="178.64" y="527.31" type="line"/>
      <point x="300.13999999999993" y="538.0799999999999" type="line"/>
      <point x="300.13999999999993" y="648.37" type="line"/>
      <point x="178.64" y="648.37" type="line"/>
    </contour>
  </outline>
</glyph>
<glyph name="sterling" format="2">
  <advance width="436.79999999999995"/>
  <unicode hex="00A3"/>
  <outline>
    <contour>
      <point x="57.3" y="0.0" type="line"/>
      <point x="386.97" y="0.0" type="line"/>
      <point x="386.97" y="120.94999999999999" type="line"/>
      <point x="207.6" y="120.94999999999999" type="line"/>
      <point x="240.52000000000004" y="160.95999999999998"/>
      <point x="272.42999999999995" y="200.02"/>
      <point x="272.42999999999995" y="265.61" type="curve" smooth="yes"/>
      <point x="272.42999999999995" y="343.12"/>
      <point x="225.15" y="406.32"/>
      <point x="225.15" y="477.3" type="curve" smooth="yes"/>
      <point x="225.15" y="550.2200000000001"/>
      <point x="258.40000000000003" y="576.25"/>
      <point x="298.94999999999993" y="576.25" type="curve" smooth="yes"/>
      <point x="323.24000000000007" y="576.25"/>
      <point x="344.22999999999996" y="572.14"/>
      <point x="363.06" y="565.6500000000001" type="curve"/>
      <point x="384.5299999999999" y="681.5400000000001" type="line"/>
      <point x="352.46999999999997" y="700.45"/>
      <point x="309.54" y="710.0"/>
      <point x="269.34999999999997" y="710.0" type="curve" smooth="yes"/>
      <point x="146.78000000000003" y="710.0"/>
      <point x="81.97" y="633.76"/>
      <point x="81.97" y="521.8599999999999" type="curve" smooth="yes"/>
      <point x="81.97" y="400.96000000000004"/>
      <point x="142.3" y="358.86"/>
      <point x="142.3" y="251.23000000000002" type="curve" smooth="yes"/>
      <point x="142.3" y="198.54"/>
      <point x="115.62999999999998" y="148.10999999999999"/>
      <point x="57.3" y="92.24999999999999" type="curve"/>
    </contour>
    <contour>
      <point x="49.46999999999999" y="316.64" type="line"/>
      <point x="359.18" y="316.64" type="line"/>
      <point x="359.18" y="396.59" type="line"/>
      <point x="49.46999999999999" y="396.59" type="line"/>
    </contour>
  </outline>
</glyph>
<glyph name="currency" format="2">
  <advance width="433.7"/>
  <unicode hex="00A4"/>
  <outline>
    <contour>
      <point x="25.81" y="400.04" type="line"/>
      <point x="79.79" y="345.06" type="line"/>
      <point x="72.34" y="329.83"/>
      <point x="67.83" y="312.43"/>
      <point x="67.83" y="293.69" type="curve" smooth="yes"/>
      <point x="67.83" y="274.25"/>
      <point x="72.34" y="255.51999999999998"/>
      <point x="80.79" y="239.66000000000003" type="curve"/>
      <point x="25.81" y="184.68" type="line"/>
      <point x="109.32" y="101.17" type="line"/>
      <point x="170.10999999999999" y="161.89000000000001" type="line"/>
      <point x="183.59" y="154.49"/>
      <point x="200.5" y="151.19"/>
      <point x="218.38" y="151.19" type="curve" smooth="yes"/>
      <point x="235.14000000000001" y="151.19"/>
      <point x="250.53" y="154.56"/>
      <point x="263.52" y="161.32999999999998" type="curve"/>
      <point x="324.38" y="101.17" type="line"/>
      <point x="407.89" y="184.68" type="line"/>
      <point x="355.08" y="236.86" type="line"/>
      <point x="364.02000000000004" y="253.91"/>
      <point x="369.16" y="273.13"/>
      <point x="369.16" y="293.69" type="curve" smooth="yes"/>
      <point x="369.16" y="312.91999999999996"/>
      <point x="364.09000000000003" y="331.44"/>
      <point x="355.71" y="347.86" type="curve"/>
      <point x="407.89" y="400.04" type="line"/>
      <point x="324.38" y="483.55" type="line"/>
      <point x="266.04" y="425.21" type="line"/>
      <point x="252.42000000000002" y="432.04999999999995"/>
      <point x="236.07" y="436.34999999999997"/>
      <point x="218.38" y="436.34999999999997" type="curve" smooth="yes"/>
      <point x="198.94" y="436.34999999999997"/>
      <point x="182.03" y="431.42"/>
      <point x="167.29" y="424.65" type="curve"/>
      <point x="109.32" y="483.55" type="line"/>
    </contour>
    <contour>
      <point x="218.31" y="238.73999999999998" type="curve" smooth="yes"/>
      <point x="186.34" y="238.73999999999998"/>
      <point x="163.99" y="261.02"/>
      <point x="163.99" y="293.06" type="curve" smooth="yes"/>
      <point x="163.99" y="323.92999999999995"/>
      <point x="186.27" y="348.17"/>
      <point x="218.31" y="348.17" type="curve" smooth="yes"/>
      <point x="250.65" y="348.17"/>
      <point x="273.0" y="323.92999999999995"/>
      <point x="273.0" y="293.06" type="curve" smooth="yes"/>
      <point x="273.0" y="261.02"/>
      <point x="250.58" y="238.73999999999998"/>
    </contour>
  </outline>
</glyph>
<glyph name="yen" format="2">
  <advance width="443.0"/>
  <unicode hex="00A5"/>
  <outline>
    <contour>
      <point x="47.2" y="303.90000000000003" type="line"/>
      <point x="155.9" y="303.90000000000003" type="line"/>
      <point x="155.9" y="258.1" type="line"/>
      <point x="47.2" y="258.1" type="line"/>
      <point x="47.2" y="181.49999999999997" type="line"/>
      <point x="155.9" y="181.49999999999997" type="line"/>
      <point x="155.9" y="0.0" type="line"/>
      <point x="289.35" y="0.0" type="line"/>
      <point x="289.35" y="181.49999999999997" type="line"/>
      <point x="398.34999999999997" y="181.49999999999997" type="line"/>
      <point x="398.34999999999997" y="258.1" type="line"/>
      <point x="289.35" y="258.1" type="line"/>
      <point x="289.35" y="303.90000000000003" type="line"/>
      <point x="398.34999999999997" y="303.90000000000003" type="line"/>
      <point x="398.34999999999997" y="380.05" type="line"/>
      <point x="289.35" y="380.05" type="line"/>
      <point x="431.54999999999995" y="698.6" type="line"/>
      <point x="284.24999999999994" y="701.55" type="line"/>
      <point x="222.74999999999997" y="470.24999999999994" type="line"/>
      <point x="158.89999999999998" y="701.55" type="line"/>
      <point x="11.600000000000005" y="698.6" type="line"/>
      <point x="155.9" y="380.05" type="line"/>
      <point x="47.2" y="380.05" type="line"/>
    </contour>
  </outline>
</glyph>
<glyph name="brokenbar" format="2">
  <advance width="169.95"/>
  <unicode hex="00A6"/>
  <outline>
    <contour>
      <point x="142.96" y="391.0" type="line"/>
      <point x="142.96" y="790.63" type="line"/>
      <point x="26.990000000000002" y="790.63" type="line"/>
      <point x="26.990000000000002" y="391.0" type="line"/>
    </contour>
    <contour>
      <point x="26.990000000000002" y="190.63" type="line"/>
      <point x="26.990000000000002" y="-210.0" type="line"/>
      <point x="142.96" y="-210.0" type="line"/>
      <point x="142.96" y="190.63" type="line"/>
    </contour>
  </outline>
</glyph>
<glyph name="section" format="2">
  <advance width="450.095"/>
  <unicode hex="00A7"/>
  <outline>
    <contour>
      <point x="178.98" y="-220.73499999999999" type="curve" smooth="yes"/>
      <point x="325.52000000000004" y="-220.73499999999999"/>
      <point x="417.44" y="-100.735"/>
      <point x="417.44" y="62.97500000000001" type="curve" smooth="yes"/>
      <point x="417.44" y="135.525"/>
      <point x="398.10999999999996" y="227.6"/>
      <point x="345.955" y="355.15500000000003" type="curve" smooth="yes"/>
      <point x="299.43" y="471.55"/>
      <point x="283.48" y="511.35999999999996"/>
      <point x="283.48" y="545.1700000000001" type="curve" smooth="yes"/>
      <point x="283.48" y="581.3650000000001"/>
      <point x="302.14" y="603.2650000000001"/>
      <point x="334.73499999999996" y="603.2650000000001" type="curve" smooth="yes"/>
      <point x="347.64000000000004" y="603.2650000000001"/>
      <point x="359.225" y="601.1150000000001"/>
      <point x="373.605" y="593.8550000000001" type="curve"/>
      <point x="401.43999999999994" y="725.63" type="line"/>
      <point x="373.115" y="740.7199999999999"/>
      <point x="330.125" y="749.775"/>
      <point x="286.87" y="749.775" type="curve" smooth="yes"/>
      <point x="131.525" y="749.775"/>
      <point x="32.019999999999996" y="646.5699999999999"/>
      <point x="36.19" y="480.375" type="curve" smooth="yes"/>
      <point x="38.095" y="402.835"/>
      <point x="48.89" y="328.265"/>
      <point x="112.53" y="175.975" type="curve" smooth="yes"/>
      <point x="156.69500000000002" y="65.705"/>
      <point x="176.31500000000003" y="22.694999999999997"/>
      <point x="176.315" y="-17.680000000000003" type="curve" smooth="yes"/>
      <point x="176.31500000000003" y="-55.980000000000004"/>
      <point x="154.655" y="-74.35500000000002"/>
      <point x="120.07999999999998" y="-74.35500000000002" type="curve" smooth="yes"/>
      <point x="100.58" y="-74.35500000000002"/>
      <point x="80.955" y="-68.4"/>
      <point x="61.394999999999996" y="-52.02" type="curve"/>
      <point x="34.61499999999999" y="-182.56" type="line"/>
      <point x="70.485" y="-207.245"/>
      <point x="121.955" y="-220.73499999999999"/>
    </contour>
    <contour>
      <point x="172.34" y="-134.03000000000003" type="curve" smooth="yes"/>
      <point x="154.16" y="-134.03000000000003"/>
      <point x="136.86499999999998" y="-129.895"/>
      <point x="118.925" y="-120.83500000000001" type="curve"/>
      <point x="156.155" y="-144.34" type="line"/>
      <point x="225.49" y="-141.385"/>
      <point x="271.24" y="-90.175"/>
      <point x="271.24" y="-14.47500000000001" type="curve" smooth="yes"/>
      <point x="271.24" y="38.67499999999999"/>
      <point x="256.065" y="99.35"/>
      <point x="207.06999999999996" y="221.45" type="curve" smooth="yes"/>
      <point x="154.12" y="355.23499999999996"/>
      <point x="136.135" y="414.65999999999997"/>
      <point x="136.135" y="490.675" type="curve" smooth="yes"/>
      <point x="136.135" y="581.82"/>
      <point x="182.54500000000002" y="644.24"/>
      <point x="242.25500000000002" y="644.24" type="curve" smooth="yes"/>
      <point x="258.76" y="644.24"/>
      <point x="269.69" y="640.7750000000001"/>
      <point x="282.775" y="630.89" type="curve"/>
      <point x="262.485" y="661.4149999999998" type="line"/>
      <point x="221.09" y="650.98"/>
      <point x="185.89000000000004" y="609.075"/>
      <point x="185.74" y="552.435" type="curve" smooth="yes"/>
      <point x="185.74" y="501.44"/>
      <point x="198.425" y="447.58500000000004"/>
      <point x="249.135" y="322.705" type="curve" smooth="yes"/>
      <point x="308.175" y="173.72"/>
      <point x="321.9" y="111.22999999999999"/>
      <point x="321.9" y="50.785000000000004" type="curve" smooth="yes"/>
      <point x="321.8999999999999" y="-57.685"/>
      <point x="265.88" y="-134.03000000000006"/>
    </contour>
  </outline>
</glyph>
<glyph name="copyright" format="2">
  <advance width="632.54"/>
  <unicode hex="00A9"/>
  <outline>
    <contour>
      <point x="316.29999999999995" y="36.75999999999999" type="curve" smooth="yes"/>
      <point x="161.25" y="36.75999999999999"/>
      <point x="82.93" y="148.38"/>
      <point x="82.93" y="350.49" type="curve" smooth="yes"/>
      <point x="82.93" y="553.01"/>
      <point x="161.35" y="663.98"/>
      <point x="316.29999999999995" y="663.98" type="curve" smooth="yes"/>
      <point x="473.08000000000004" y="663.98"/>
      <point x="548.9800000000001" y="553.01"/>
      <point x="548.9800000000001" y="350.49" type="curve" smooth="yes"/>
      <point x="548.9800000000001" y="148.38"/>
      <point x="473.18" y="36.75999999999999"/>
    </contour>
    <contour>
      <point x="316.29999999999995" y="710.0" type="curve" smooth="yes"/>
      <point x="132.18" y="710.0"/>
      <point x="34.2" y="574.8399999999999"/>
      <point x="34.2" y="350.49" type="curve" smooth="yes"/>
      <point x="34.2" y="127.12"/>
      <point x="132.0" y="-10.0"/>
      <point x="316.29999999999995" y="-10.0" type="curve" smooth="yes"/>
      <point x="500.54" y="-10.0"/>
      <point x="598.34" y="127.12"/>
      <point x="598.34" y="350.49" type="curve" smooth="yes"/>
      <point x="598.34" y="574.8399999999999"/>
      <point x="500.42" y="710.0"/>
    </contour>
    <contour>
      <point x="189.17999999999998" y="349.02000000000004" type="curve" smooth="yes"/>
      <point x="189.17999999999998" y="203.45"/>
      <point x="237.62" y="135.88000000000002"/>
      <point x="324.2099999999999" y="135.88000000000002" type="curve" smooth="yes"/>
      <point x="352.92" y="135.88000000000002"/>
      <point x="382.28999999999996" y="138.95"/>
      <point x="411.35" y="151.82999999999998" type="curve"/>
      <point x="396.58" y="238.46" type="line"/>
      <point x="374.22" y="231.82"/>
      <point x="355.47" y="228.73"/>
      <point x="336.55999999999995" y="228.73" type="curve" smooth="yes"/>
      <point x="300.22" y="228.73"/>
      <point x="289.91" y="261.26000000000005"/>
      <point x="289.91" y="345.05" type="curve" smooth="yes"/>
      <point x="289.91" y="443.44000000000005"/>
      <point x="304.32000000000005" y="475.14"/>
      <point x="341.15" y="475.14" type="curve" smooth="yes"/>
      <point x="356.35999999999996" y="475.14"/>
      <point x="381.41999999999996" y="470.32"/>
      <point x="397.28000000000003" y="465.87" type="curve"/>
      <point x="414.22" y="550.4200000000001" type="line"/>
      <point x="390.63" y="562.96"/>
      <point x="355.55" y="568.13"/>
      <point x="324.39" y="568.13" type="curve" smooth="yes"/>
      <point x="243.26" y="568.13"/>
      <point x="189.17999999999998" y="513.36"/>
    </contour>
  </outline>
</glyph>
<glyph name="ordfeminine" format="2">
  <advance width="296.38"/>
  <unicode hex="00AA"/>
  <outline>
    <contour>
      <point x="28.330000000000002" y="251.49" type="line"/>
      <point x="271.64" y="251.49" type="line"/>
      <point x="271.64" y="321.79" type="line"/>
      <point x="28.330000000000002" y="321.79" type="line"/>
    </contour>
    <component base="a.superior" xOffset="9.29"/>
  </outline>
</glyph>
<glyph name="logicalnot" format="2">
  <advance width="436.04"/>
  <unicode hex="00AC"/>
  <outline>
    <contour>
      <point x="44.16" y="315.68" type="line"/>
      <point x="271.0" y="315.68" type="line"/>
      <point x="271.0" y="176.51000000000002" type="line"/>
      <point x="392.15" y="176.51000000000002" type="line"/>
      <point x="392.15" y="436.83000000000004" type="line"/>
      <point x="44.16" y="436.83000000000004" type="line"/>
    </contour>
  </outline>
</glyph>
<glyph name="registered" format="2">
  <advance width="604.4150000000001"/>
  <unicode hex="00AE"/>
  <outline>
    <contour>
      <point x="301.29" y="207.825" type="curve" smooth="yes"/>
      <point x="477.44999999999993" y="207.825"/>
      <point x="570.2149999999999" y="337.77"/>
      <point x="570.2149999999999" y="550.5550000000001" type="curve" smooth="yes"/>
      <point x="570.2149999999999" y="763.725"/>
      <point x="477.48" y="892.235"/>
      <point x="301.29" y="892.235" type="curve" smooth="yes"/>
      <point x="126.475" y="892.235"/>
      <point x="34.2" y="763.725"/>
      <point x="34.2" y="550.5550000000001" type="curve" smooth="yes"/>
      <point x="34.2" y="338.38500000000005"/>
      <point x="126.27" y="207.825"/>
    </contour>
    <contour>
      <point x="301.29" y="252.04999999999998" type="curve" smooth="yes"/>
      <point x="153.92000000000002" y="252.04999999999998"/>
      <point x="80.565" y="358.615"/>
      <point x="80.565" y="550.5550000000001" type="curve" smooth="yes"/>
      <point x="80.565" y="742.9399999999999"/>
      <point x="153.89000000000001" y="848.6499999999999"/>
      <point x="301.29" y="848.6499999999999" type="curve" smooth="yes"/>
      <point x="451.90000000000003" y="848.6499999999999"/>
      <point x="523.4199999999998" y="742.9699999999999"/>
      <point x="523.4199999999998" y="550.5550000000001" type="curve" smooth="yes"/>
      <point x="523.4199999999998" y="358.40999999999997"/>
      <point x="451.725" y="252.04999999999998"/>
    </contour>
    <contour>
      <point x="416.985" y="357.325" type="curve" smooth="yes"/>
      <point x="421.87999999999994" y="357.325"/>
      <point x="428.57" y="357.325"/>
      <point x="433.83" y="358.12" type="curve"/>
      <point x="433.0199999999999" y="451.11" type="line"/>
      <point x="431.22499999999997" y="450.84"/>
      <point x="428.94" y="450.84"/>
      <point x="426.94" y="450.84" type="curve" smooth="yes"/>
      <point x="402.0549999999999" y="450.98499999999996"/>
      <point x="388.2049999999999" y="478.215"/>
      <point x="375.7149999999999" y="516.835" type="curve"/>
      <point x="411.53" y="533.38"/>
      <point x="425.885" y="579.54"/>
      <point x="425.885" y="634.36" type="curve" smooth="yes"/>
      <point x="425.885" y="718.5500000000001"/>
      <point x="384.81500000000005" y="756.375"/>
      <point x="308.595" y="756.375" type="curve" smooth="yes"/>
      <point x="271.285" y="756.375"/>
      <point x="236.69" y="753.88"/>
      <point x="197.68" y="750.465" type="curve"/>
      <point x="197.68" y="361.92" type="line"/>
      <point x="282.78499999999997" y="361.92" type="line"/>
      <point x="282.78499999999997" y="488.24" type="line"/>
      <point x="286.60499999999996" y="487.97"/>
      <point x="290.62" y="487.64"/>
      <point x="294.02" y="487.64" type="curve" smooth="yes"/>
      <point x="296.74" y="487.64"/>
      <point x="298.61500000000007" y="487.64"/>
      <point x="301.16" y="487.90999999999997" type="curve"/>
      <point x="336.44500000000005" y="365.505"/>
      <point x="372.36999999999995" y="357.5"/>
    </contour>
    <contour>
      <point x="301.76" y="547.7200000000001" type="curve" smooth="yes"/>
      <point x="295.915" y="547.7200000000001"/>
      <point x="290.71" y="547.75"/>
      <point x="282.78499999999997" y="548.72" type="curve"/>
      <point x="282.78499999999997" y="675.47" type="line"/>
      <point x="293.72" y="677.5"/>
      <point x="300.41" y="677.7699999999999"/>
      <point x="307.09" y="677.7699999999999" type="curve" smooth="yes"/>
      <point x="334.15999999999997" y="677.7699999999999"/>
      <point x="337.95" y="657.6949999999999"/>
      <point x="337.95" y="619.96" type="curve" smooth="yes"/>
      <point x="337.95" y="570.75"/>
      <point x="332.39000000000004" y="547.7200000000001"/>
    </contour>
  </outline>
</glyph>
<glyph name="degree" format="2">
  <advance width="303.5"/>
  <unicode hex="00B0"/>
  <outline>
    <contour>
      <point x="151.48000000000002" y="412.2" type="curve" smooth="yes"/>
      <point x="238.62999999999997" y="412.2"/>
      <point x="279.23999999999995" y="479.22999999999996"/>
      <point x="279.23999999999995" y="563.5" type="curve" smooth="yes"/>
      <point x="279.23999999999995" y="642.9"/>
      <point x="243.01" y="715.4"/>
      <point x="151.48000000000002" y="715.4" type="curve" smooth="yes"/>
      <point x="59.89" y="715.4"/>
      <point x="24.259999999999998" y="642.9"/>
      <point x="24.259999999999998" y="563.5" type="curve" smooth="yes"/>
      <point x="24.259999999999998" y="479.22999999999996"/>
      <point x="64.33" y="412.2"/>
    </contour>
    <contour>
      <point x="151.48000000000002" y="508.26" type="curve" smooth="yes"/>
      <point x="127.13" y="508.26"/>
      <point x="114.02" y="530.6899999999999"/>
      <point x="114.02" y="562.8299999999999" type="curve" smooth="yes"/>
      <point x="114.02" y="593.51"/>
      <point x="126.35999999999999" y="616.5999999999999"/>
      <point x="151.48000000000002" y="616.5999999999999" type="curve" smooth="yes"/>
      <point x="176.54" y="616.5999999999999"/>
      <point x="189.54" y="593.51"/>
      <point x="189.54" y="562.8299999999999" type="curve" smooth="yes"/>
      <point x="189.54" y="530.6899999999999"/>
      <point x="175.82999999999998" y="508.26"/>
    </contour>
  </outline>
</glyph>
<glyph name="plusminus" format="2">
  <advance width="444.68"/>
  <unicode hex="00B1"/>
  <outline>
    <contour>
      <point x="43.08" y="21.53" type="line"/>
      <point x="401.59999999999997" y="21.53" type="line"/>
      <point x="401.59999999999997" y="142.68" type="line"/>
      <point x="284.28" y="142.68" type="line"/>
      <point x="284.28" y="262.86" type="line"/>
      <point x="401.59999999999997" y="262.86" type="line"/>
      <point x="401.59999999999997" y="384.01000000000005" type="line"/>
      <point x="284.28" y="384.01000000000005" type="line"/>
      <point x="284.28" y="504.3" type="line"/>
      <point x="160.33" y="504.3" type="line"/>
      <point x="160.33" y="384.01000000000005" type="line"/>
      <point x="43.08" y="384.01000000000005" type="line"/>
      <point x="43.08" y="262.86" type="line"/>
      <point x="160.33" y="262.86" type="line"/>
      <point x="160.33" y="142.68" type="line"/>
      <point x="43.08" y="142.68" type="line"/>
    </contour>
  </outline>
</glyph>
<glyph name="uni00B2" format="2">
  <advance width="288.83"/>
  <unicode hex="00B2"/>
  <outline>
    <contour>
      <point x="38.82" y="370.0" type="line"/>
      <point x="257.34" y="370.0" type="line"/>
      <point x="257.34" y="440.88" type="line"/>
      <point x="146.46" y="440.88" type="line"/>
      <point x="221.17" y="542.7299999999999"/>
      <point x="242.98999999999998" y="592.0300000000001"/>
      <point x="242.98999999999998" y="651.61" type="curve" smooth="yes"/>
      <point x="242.98999999999998" y="731.79"/>
      <point x="202.2" y="774.9799999999999"/>
      <point x="132.75" y="774.9799999999999" type="curve" smooth="yes"/>
      <point x="94.04999999999998" y="774.9799999999999"/>
      <point x="59.269999999999996" y="763.74"/>
      <point x="26.72" y="740.05" type="curve"/>
      <point x="57.690000000000005" y="661.8799999999999" type="line"/>
      <point x="78.33000000000001" y="676.35"/>
      <point x="93.58" y="680.6999999999999"/>
      <point x="112.19" y="680.6999999999999" type="curve" smooth="yes"/>
      <point x="135.86" y="680.6999999999999"/>
      <point x="151.29000000000002" y="659.15"/>
      <point x="151.29000000000002" y="629.32" type="curve" smooth="yes"/>
      <point x="151.29000000000002" y="588.0600000000001"/>
      <point x="109.31" y="519.91"/>
      <point x="37.92" y="434.19" type="curve"/>
    </contour>
  </outline>
</glyph>
<glyph name="uni00B3" format="2">
  <advance width="296.44"/>
  <unicode hex="00B3"/>
  <outline>
    <contour>
      <point x="27.35" y="391.65999999999997" type="line"/>
      <point x="63.73" y="371.32"/>
      <point x="93.19" y="363.99"/>
      <point x="133.75" y="363.99" type="curve" smooth="yes"/>
      <point x="214.17" y="363.99"/>
      <point x="263.79" y="408.77"/>
      <point x="263.79" y="486.45" type="curve" smooth="yes"/>
      <point x="263.79" y="531.8499999999999"/>
      <point x="243.53" y="566.46"/>
      <point x="205.63000000000002" y="583.22" type="curve"/>
      <point x="236.6" y="601.6899999999999"/>
      <point x="255.38000000000002" y="636.24"/>
      <point x="255.38000000000002" y="674.43" type="curve" smooth="yes"/>
      <point x="255.38000000000002" y="736.6400000000001"/>
      <point x="212.14" y="775.76"/>
      <point x="136.86" y="775.76" type="curve" smooth="yes"/>
      <point x="93.53" y="775.76"/>
      <point x="56.22" y="765.7599999999999"/>
      <point x="29.470000000000002" y="746.6099999999999" type="curve"/>
      <point x="56.43" y="678.98" type="line"/>
      <point x="66.87" y="685.73"/>
      <point x="86.53" y="691.1800000000001"/>
      <point x="114.38000000000001" y="691.1800000000001" type="curve" smooth="yes"/>
      <point x="146.68" y="691.1800000000001"/>
      <point x="166.75" y="675.0500000000001"/>
      <point x="166.75" y="647.25" type="curve" smooth="yes"/>
      <point x="166.75" y="623.79"/>
      <point x="154.95" y="606.29"/>
      <point x="126.96000000000001" y="606.29" type="curve" smooth="yes"/>
      <point x="85.41" y="606.29" type="line"/>
      <point x="85.41" y="539.7099999999999" type="line"/>
      <point x="126.86000000000001" y="539.7099999999999" type="line" smooth="yes"/>
      <point x="162.52" y="539.7099999999999"/>
      <point x="173.21999999999997" y="522.36"/>
      <point x="173.21999999999997" y="494.84999999999997" type="curve" smooth="yes"/>
      <point x="173.21999999999997" y="462.52"/>
      <point x="154.19" y="443.53999999999996"/>
      <point x="120.67" y="443.53999999999996" type="curve" smooth="yes"/>
      <point x="92.80999999999999" y="443.53999999999996"/>
      <point x="76.66" y="448.09"/>
      <point x="57.18" y="459.85" type="curve"/>
    </contour>
  </outline>
</glyph>
<glyph name="uni00B5" format="2">
  <advance width="436.90000000000003"/>
  <unicode hex="00B5"/>
  <outline>
    <contour>
      <point x="31.35" y="-210.0" type="line"/>
      <point x="162.92999999999998" y="-210.0" type="line"/>
      <point x="162.92999999999998" y="3.9300000000000024" type="line"/>
      <point x="171.27999999999997" y="-4.68"/>
      <point x="183.61999999999998" y="-8.74"/>
      <point x="199.33" y="-8.74" type="curve" smooth="yes"/>
      <point x="227.06" y="-8.74"/>
      <point x="255.47" y="5.839999999999999"/>
      <point x="275.65000000000003" y="24.450000000000003" type="curve"/>
      <point x="291.71000000000004" y="4.03"/>
      <point x="306.27000000000004" y="-10.0"/>
      <point x="349.84000000000003" y="-10.0" type="curve" smooth="yes"/>
      <point x="386.52000000000004" y="-10.0"/>
      <point x="413.73999999999995" y="-0.3400000000000001"/>
      <point x="435.66999999999996" y="11.739999999999998" type="curve"/>
      <point x="424.99" y="122.51" type="line"/>
      <point x="419.44" y="120.1"/>
      <point x="412.35" y="118.77"/>
      <point x="406.41" y="118.77" type="curve" smooth="yes"/>
      <point x="396.05000000000007" y="118.77"/>
      <point x="390.4" y="125.02000000000001"/>
      <point x="390.4" y="147.4" type="curve" smooth="yes"/>
      <point x="390.4" y="544.0" type="line"/>
      <point x="253.15" y="544.0" type="line"/>
      <point x="253.15" y="131.85999999999999" type="line"/>
      <point x="238.08" y="121.64999999999998"/>
      <point x="220.98" y="115.79"/>
      <point x="205.42" y="115.79" type="curve" smooth="yes"/>
      <point x="183.95000000000002" y="115.79"/>
      <point x="169.23" y="128.23000000000002"/>
      <point x="169.23" y="158.05" type="curve" smooth="yes"/>
      <point x="169.23" y="544.0" type="line"/>
      <point x="31.35" y="544.0" type="line"/>
    </contour>
  </outline>
</glyph>
<glyph name="paragraph" format="2">
  <advance width="544.77"/>
  <unicode hex="00B6"/>
  <outline>
    <contour>
      <point x="400.59" y="-210.0" type="line"/>
      <point x="508.36999999999995" y="-210.0" type="line"/>
      <point x="508.36999999999995" y="740.0" type="line"/>
      <point x="400.59" y="740.0" type="line"/>
    </contour>
    <contour>
      <point x="223.18999999999997" y="319.93" type="line"/>
      <point x="182.56" y="329.53999999999996"/>
      <point x="150.23999999999998" y="388.23999999999995"/>
      <point x="150.23999999999998" y="476.7" type="curve" smooth="yes"/>
      <point x="150.23999999999998" y="557.89"/>
      <point x="181.25" y="616.69"/>
      <point x="244.42999999999998" y="618.13" type="curve"/>
      <point x="244.42999999999998" y="-210.0" type="line"/>
      <point x="352.21" y="-210.0" type="line"/>
      <point x="352.21" y="740.0" type="line"/>
      <point x="282.95000000000005" y="740.0" type="line" smooth="yes"/>
      <point x="88.25999999999999" y="740.0"/>
      <point x="28.53" y="620.4899999999999"/>
      <point x="28.53" y="482.22999999999996" type="curve" smooth="yes"/>
      <point x="28.53" y="351.84000000000003"/>
      <point x="84.63" y="254.9"/>
      <point x="207.95" y="229.08999999999997" type="curve"/>
    </contour>
  </outline>
</glyph>
<glyph name="periodcentered" format="2">
  <advance width="184.35"/>
  <unicode hex="00B7"/>
  <outline>
    <contour>
      <point x="17.75" y="315.07" type="curve" smooth="yes"/>
      <point x="17.75" y="255.79"/>
      <point x="39.23" y="228.18999999999997"/>
      <point x="92.39999999999999" y="228.18999999999997" type="curve" smooth="yes"/>
      <point x="145.72" y="228.18999999999997"/>
      <point x="166.6" y="255.79"/>
      <point x="166.6" y="315.07" type="curve" smooth="yes"/>
      <point x="166.6" y="374.8999999999999"/>
      <point x="145.72" y="402.5"/>
      <point x="92.39999999999999" y="402.5" type="curve" smooth="yes"/>
      <point x="38.63" y="402.5"/>
      <point x="17.75" y="374.8999999999999"/>
    </contour>
  </outline>
</glyph>
<glyph name="uni00B9" format="2">
  <advance width="266.76000000000005"/>
  <unicode hex="00B9"/>
  <outline>
    <contour>
      <point x="29.849999999999998" y="370.0" type="line"/>
      <point x="249.74" y="370.0" type="line"/>
      <point x="249.74" y="441.5" type="line"/>
      <point x="189.82999999999998" y="441.5" type="line"/>
      <point x="189.82999999999998" y="768.8899999999999" type="line"/>
      <point x="143.89" y="768.8899999999999" type="line"/>
      <point x="19.44" y="722.2199999999999" type="line"/>
      <point x="36.550000000000004" y="641.67" type="line"/>
      <point x="98.03" y="668.03" type="line"/>
      <point x="98.03" y="441.5" type="line"/>
      <point x="29.849999999999998" y="441.5" type="line"/>
    </contour>
  </outline>
</glyph>
<glyph name="ordmasculine" format="2">
  <advance width="300.64000000000004"/>
  <unicode hex="00BA"/>
  <outline>
    <contour>
      <point x="31.310000000000002" y="251.51999999999998" type="line"/>
      <point x="274.86" y="251.51999999999998" type="line"/>
      <point x="274.86" y="321.82" type="line"/>
      <point x="31.310000000000002" y="321.82" type="line"/>
    </contour>
    <component base="o.superior" xOffset="11.240000000000002"/>
  </outline>
</glyph>
<glyph name="questiondown" format="2">
  <advance width="365.07"/>
  <unicode hex="00BF"/>
  <outline>
    <contour>
      <point x="272.65" y="276.59000000000003" type="line"/>
      <point x="152.69" y="276.59000000000003" type="line"/>
      <point x="152.55" y="204.48000000000002" type="line"/>
      <point x="65.84" y="154.47"/>
      <point x="29.57" y="82.85"/>
      <point x="29.57" y="-17.400000000000002" type="curve" smooth="yes"/>
      <point x="29.57" y="-146.70000000000002"/>
      <point x="103.69" y="-212.37"/>
      <point x="219.01000000000002" y="-212.37" type="curve" smooth="yes"/>
      <point x="276.4" y="-212.37"/>
      <point x="333.96" y="-190.78999999999996"/>
      <point x="372.92" y="-159.12" type="curve"/>
      <point x="324.99999999999994" y="-36.84" type="line"/>
      <point x="291.17" y="-62.63000000000002"/>
      <point x="266.15999999999997" y="-69.16000000000001"/>
      <point x="240.85" y="-69.16000000000001" type="curve" smooth="yes"/>
      <point x="198.7" y="-69.16000000000001"/>
      <point x="172.34" y="-38.94000000000001"/>
      <point x="172.34" y="6.909999999999995" type="curve" smooth="yes"/>
      <point x="172.34" y="53.66"/>
      <point x="189.4" y="96.21"/>
      <point x="275.66" y="143.19" type="curve"/>
    </contour>
    <contour>
      <point x="286.81000000000006" y="457.28000000000003" type="curve" smooth="yes"/>
      <point x="286.81000000000006" y="516.47"/>
      <point x="265.78" y="544.0699999999999"/>
      <point x="212.25" y="544.0699999999999" type="curve" smooth="yes"/>
      <point x="159.68" y="544.0699999999999"/>
      <point x="137.96" y="516.47"/>
      <point x="137.96" y="457.28000000000003" type="curve" smooth="yes"/>
      <point x="137.96" y="397.39"/>
      <point x="159.68" y="369.79"/>
      <point x="212.25" y="369.79" type="curve" smooth="yes"/>
      <point x="266.35" y="369.79"/>
      <point x="286.81000000000006" y="397.39"/>
    </contour>
  </outline>
</glyph>
<glyph name="AE" format="2">
  <advance width="683.6399999999999"/>
  <unicode hex="00C6"/>
  <anchor x="385.20500000000004" y="700.0" name="top"/>
  <outline>
    <contour>
      <point x="6.569999999999999" y="0.0" type="line"/>
      <point x="159.875" y="-0.375" type="line"/>
      <point x="215.115" y="171.17500000000004" type="line"/>
      <point x="327.49" y="171.17500000000004" type="line"/>
      <point x="327.49" y="0.0" type="line"/>
      <point x="668.525" y="0.0" type="line"/>
      <point x="668.525" y="133.63" type="line"/>
      <point x="461.13499999999993" y="133.63" type="line"/>
      <point x="461.13499999999993" y="280.75499999999994" type="line"/>
      <point x="634.4199999999998" y="280.75499999999994" type="line"/>
      <point x="634.4199999999998" y="407.38499999999993" type="line"/>
      <point x="461.13499999999993" y="407.38499999999993" type="line"/>
      <point x="461.13499999999993" y="563.445" type="line"/>
      <point x="656.13" y="563.445" type="line"/>
      <point x="656.13" y="700.0" type="line"/>
      <point x="236.47" y="700.0" type="line"/>
    </contour>
    <contour>
      <point x="247.485" y="301.025" type="line"/>
      <point x="326.1700000000001" y="602.145" type="line"/>
      <point x="326.1700000000001" y="301.025" type="line"/>
    </contour>
  </outline>
</glyph>
<glyph name="multiply" format="2">
  <advance width="423.64"/>
  <unicode hex="00D7"/>
  <outline>
    <contour>
      <point x="124.78000000000002" y="128.45" type="line"/>
      <point x="211.57999999999998" y="236.96999999999997" type="line"/>
      <point x="298.83000000000004" y="128.81" type="line"/>
      <point x="384.33000000000004" y="214.04999999999998" type="line"/>
      <point x="297.84" y="323.49" type="line"/>
      <point x="384.12" y="433.6" type="line"/>
      <point x="298.62" y="518.8399999999999" type="line"/>
      <point x="211.57999999999998" y="410.28" type="line"/>
      <point x="124.75" y="518.9" type="line"/>
      <point x="39.25000000000001" y="433.65999999999997" type="line"/>
      <point x="125.52000000000001" y="323.49" type="line"/>
      <point x="39.28" y="213.69" type="line"/>
    </contour>
  </outline>
</glyph>
<glyph name="Oslash" format="2">
  <advance width="473.8"/>
  <unicode hex="00D8"/>
  <anchor x="237.6" y="700.0" name="top"/>
  <outline>
    <contour>
      <point x="97.44999999999999" y="-10.3" type="line"/>
      <point x="142.65" y="84.35" type="line"/>
      <point x="149.35" y="82.49999999999999" type="line"/>
      <point x="377.29999999999995" y="576.9499999999999" type="line"/>
      <point x="383.55" y="574.1500000000001" type="line"/>
      <point x="449.59999999999997" y="717.0" type="line"/>
      <point x="378.29999999999995" y="717.0" type="line"/>
      <point x="333.25" y="620.75" type="line"/>
      <point x="326.45" y="622.5" type="line"/>
      <point x="101.14999999999999" y="136.6" type="line"/>
      <point x="95.25" y="139.0" type="line"/>
      <point x="26.000000000000004" y="-10.3" type="line"/>
    </contour>
    <contour>
      <point x="237.6" y="108.7" type="curve" smooth="yes"/>
      <point x="181.3" y="108.7"/>
      <point x="152.10000000000002" y="150.35"/>
      <point x="152.10000000000002" y="349.15" type="curve" smooth="yes"/>
      <point x="152.10000000000002" y="549.3499999999999"/>
      <point x="181.7" y="591.3000000000001"/>
      <point x="237.6" y="591.3000000000001" type="curve" smooth="yes"/>
      <point x="294.34999999999997" y="591.3000000000001"/>
      <point x="323.79999999999995" y="550.7"/>
      <point x="323.79999999999995" y="350.40000000000003" type="curve" smooth="yes"/>
      <point x="323.79999999999995" y="150.70000000000002"/>
      <point x="293.95" y="108.7"/>
    </contour>
    <contour>
      <point x="237.2" y="-10.0" type="curve" smooth="yes"/>
      <point x="379.65" y="-10.0"/>
      <point x="454.4" y="72.44999999999999"/>
      <point x="454.4" y="351.75" type="curve" smooth="yes"/>
      <point x="454.4" y="628.65"/>
      <point x="380.29999999999995" y="710.0"/>
      <point x="237.6" y="710.0" type="curve" smooth="yes"/>
      <point x="95.0" y="710.0"/>
      <point x="21.2" y="627.1500000000001"/>
      <point x="21.2" y="348.75" type="curve" smooth="yes"/>
      <point x="21.2" y="72.35"/>
      <point x="95.2" y="-10.0"/>
    </contour>
  </outline>
</glyph>
<glyph name="Thorn" format="2">
  <advance width="453.92999999999995"/>
  <unicode hex="00DE"/>
  <outline>
    <contour>
      <point x="34.980000000000004" y="0.0" type="line"/>
      <point x="174.26" y="0.0" type="line"/>
      <point x="174.26" y="122.76000000000002" type="line"/>
      <point x="210.73" y="119.57000000000001"/>
      <point x="215.22999999999996" y="119.54"/>
      <point x="248.95" y="119.54" type="curve" smooth="yes"/>
      <point x="382.29" y="119.54"/>
      <point x="438.03000000000003" y="202.98"/>
      <point x="438.03000000000003" y="384.34000000000003" type="curve" smooth="yes"/>
      <point x="438.03000000000003" y="559.1"/>
      <point x="386.46000000000004" y="635.01"/>
      <point x="217.58" y="635.01" type="curve" smooth="yes"/>
      <point x="206.97" y="635.01"/>
      <point x="192.68" y="634.61"/>
      <point x="174.89" y="633.76" type="curve"/>
      <point x="174.89" y="700.0" type="line"/>
      <point x="34.980000000000004" y="700.0" type="line"/>
    </contour>
    <contour>
      <point x="218.56" y="250.35" type="curve" smooth="yes"/>
      <point x="203.28" y="250.35"/>
      <point x="193.48999999999998" y="250.51"/>
      <point x="174.89" y="252.41000000000003" type="curve"/>
      <point x="174.89" y="505.81" type="line"/>
      <point x="200.16" y="509.03"/>
      <point x="213.63" y="509.35999999999996"/>
      <point x="227.29999999999998" y="509.35999999999996" type="curve" smooth="yes"/>
      <point x="283.62" y="509.35999999999996"/>
      <point x="298.26000000000005" y="473.87"/>
      <point x="298.26000000000005" y="391.02000000000004" type="curve" smooth="yes"/>
      <point x="298.26000000000005" y="304.58000000000004"/>
      <point x="283.61" y="250.35"/>
    </contour>
  </outline>
</glyph>
<glyph name="germandbls" format="2">
  <advance width="553.17"/>
  <unicode hex="00DF"/>
  <outline>
    <contour>
      <point x="62.15" y="0.0" type="line"/>
      <point x="199.13" y="0.0" type="line"/>
      <point x="199.13" y="515.6100000000001" type="line" smooth="yes"/>
      <point x="199.13" y="588.86"/>
      <point x="231.88000000000002" y="627.28"/>
      <point x="299.98" y="627.28" type="curve" smooth="yes"/>
      <point x="350.49" y="627.28"/>
      <point x="369.84999999999997" y="611.52"/>
      <point x="369.84999999999997" y="579.0600000000001" type="curve" smooth="yes"/>
      <point x="369.84999999999997" y="553.6800000000001"/>
      <point x="359.67" y="541.3299999999999"/>
      <point x="318.79" y="515.5199999999999" type="curve" smooth="yes"/>
      <point x="267.41" y="485.92999999999995"/>
      <point x="239.84" y="445.4800000000001"/>
      <point x="239.84" y="379.83" type="curve" smooth="yes"/>
      <point x="239.84" y="286.98"/>
      <point x="274.84" y="247.10999999999999"/>
      <point x="355.7" y="215.32" type="curve" smooth="yes"/>
      <point x="408.83" y="191.88"/>
      <point x="421.9599999999999" y="181.65"/>
      <point x="421.9599999999999" y="155.46" type="curve" smooth="yes"/>
      <point x="421.9599999999999" y="127.0"/>
      <point x="400.3" y="109.61999999999999"/>
      <point x="358.27" y="109.61999999999999" type="curve" smooth="yes"/>
      <point x="315.53" y="109.61999999999999"/>
      <point x="278.05" y="118.28"/>
      <point x="240.73" y="129.43999999999997" type="curve"/>
      <point x="223.20999999999998" y="16.470000000000002" type="line"/>
      <point x="263.3" y="-1.5100000000000002"/>
      <point x="314.01" y="-9.96"/>
      <point x="365.13" y="-9.96" type="curve" smooth="yes"/>
      <point x="475.73999999999995" y="-9.96"/>
      <point x="549.74" y="48.7"/>
      <point x="549.74" y="163.93999999999997" type="curve" smooth="yes"/>
      <point x="549.74" y="249.70999999999998"/>
      <point x="514.5" y="297.0199999999999"/>
      <point x="429.95000000000005" y="328.5899999999999" type="curve" smooth="yes"/>
      <point x="379.05" y="349.39"/>
      <point x="368.48" y="365.68"/>
      <point x="368.48" y="389.15" type="curve" smooth="yes"/>
      <point x="368.48" y="411.39"/>
      <point x="380.6" y="422.36000000000007"/>
      <point x="414.24999999999994" y="440.87" type="curve" smooth="yes"/>
      <point x="485.0799999999999" y="477.47"/>
      <point x="512.07" y="514.95"/>
      <point x="512.07" y="581.4000000000001" type="curve" smooth="yes"/>
      <point x="512.07" y="690.8100000000001"/>
      <point x="436.12" y="750.0"/>
      <point x="293.62999999999994" y="750.0" type="curve" smooth="yes"/>
      <point x="145.02999999999997" y="750.0"/>
      <point x="62.1" y="673.36"/>
      <point x="62.15" y="539.0600000000001" type="curve" smooth="yes"/>
      <point x="62.15" y="512.4699999999999" type="line"/>
      <point x="8.58" y="504.55" type="line"/>
      <point x="8.58" y="399.46999999999997" type="line"/>
      <point x="62.15" y="399.46999999999997" type="line"/>
    </contour>
  </outline>
</glyph>
<glyph name="ae" format="2">
  <advance width="612.8550000000001"/>
  <unicode hex="00E6"/>
  <anchor x="308.03499999999997" y="544.0" name="top"/>
  <outline>
    <contour>
      <point x="136.72" y="-10.0" type="curve" smooth="yes"/>
      <point x="196.095" y="-10.0"/>
      <point x="238.63500000000002" y="12.524999999999999"/>
      <point x="284.585" y="56.17999999999999" type="curve"/>
      <point x="285.775" y="56.17999999999999" type="line"/>
      <point x="321.60999999999996" y="10.335"/>
      <point x="365.51500000000004" y="-10.0"/>
      <point x="433.44" y="-10.0" type="curve" smooth="yes"/>
      <point x="489.065" y="-10.0"/>
      <point x="539.1149999999999" y="0.5999999999999998"/>
      <point x="591.355" y="21.819999999999997" type="curve"/>
      <point x="572.61" y="140.435" type="line"/>
      <point x="532.395" y="128.82999999999998"/>
      <point x="484.88499999999993" y="120.57999999999998"/>
      <point x="456.565" y="120.57999999999998" type="curve" smooth="yes"/>
      <point x="395.95500000000004" y="120.57999999999998"/>
      <point x="370.275" y="142.65499999999997"/>
      <point x="369.695" y="218.82500000000002" type="curve" smooth="yes"/>
      <point x="369.50499999999994" y="222.58"/>
      <point x="369.50499999999994" y="227.01"/>
      <point x="369.67499999999995" y="229.905" type="curve"/>
      <point x="451.97499999999997" y="233.48"/>
      <point x="548.7349999999999" y="245.69500000000002"/>
      <point x="593.25" y="251.52500000000003" type="curve"/>
      <point x="593.8349999999999" y="267.31499999999994"/>
      <point x="594.875" y="290.315"/>
      <point x="594.875" y="305.68" type="curve" smooth="yes"/>
      <point x="594.875" y="483.40999999999997"/>
      <point x="542.6999999999999" y="554.0"/>
      <point x="419.805" y="554.0" type="curve" smooth="yes"/>
      <point x="372.845" y="554.0"/>
      <point x="335.505" y="535.905"/>
      <point x="305.58" y="495.06" type="curve"/>
      <point x="304.54" y="495.06" type="line"/>
      <point x="273.92" y="534.95"/>
      <point x="237.02000000000004" y="554.0"/>
      <point x="179.685" y="554.0" type="curve" smooth="yes"/>
      <point x="135.45499999999998" y="554.0"/>
      <point x="74.95" y="541.99"/>
      <point x="30.299999999999997" y="524.8" type="curve"/>
      <point x="57.68" y="401.21999999999997" type="line"/>
      <point x="107.61999999999999" y="417.165"/>
      <point x="145.245" y="419.365"/>
      <point x="168.19500000000002" y="419.365" type="curve" smooth="yes"/>
      <point x="208.14" y="419.365"/>
      <point x="229.97" y="400.34499999999997"/>
      <point x="229.97" y="366.455" type="curve" smooth="yes"/>
      <point x="229.97" y="330.07" type="line"/>
      <point x="75.145" y="311.325"/>
      <point x="9.195" y="265.67"/>
      <point x="9.195" y="147.09" type="curve" smooth="yes"/>
      <point x="9.195" y="48.39499999999999"/>
      <point x="57.825" y="-10.0"/>
    </contour>
    <contour>
      <point x="181.695" y="97.57999999999998" type="curve" smooth="yes"/>
      <point x="159.54" y="97.57999999999998"/>
      <point x="144.255" y="118.25"/>
      <point x="144.255" y="160.17499999999998" type="curve" smooth="yes"/>
      <point x="144.255" y="214.585"/>
      <point x="175.925" y="236.88"/>
      <point x="230.57500000000002" y="247.145" type="curve"/>
      <point x="230.615" y="236.42999999999998"/>
      <point x="230.615" y="223.795"/>
      <point x="230.615" y="213.41" type="curve" smooth="yes"/>
      <point x="230.615" y="181.28"/>
      <point x="232.35" y="152.185"/>
      <point x="234.87500000000003" y="128.84" type="curve"/>
      <point x="222.89000000000001" y="112.19"/>
      <point x="200.35500000000002" y="97.57999999999998"/>
    </contour>
    <contour>
      <point x="368.525" y="313.59499999999997" type="curve"/>
      <point x="366.66999999999996" y="416.525"/>
      <point x="387.23" y="444.83500000000004"/>
      <point x="412.95" y="444.83500000000004" type="curve" smooth="yes"/>
      <point x="443.23499999999996" y="444.83500000000004"/>
      <point x="456.125" y="411.705"/>
      <point x="458.575" y="320.41999999999996" type="curve"/>
      <point x="441.775" y="317.5"/>
      <point x="400.42499999999995" y="313.635"/>
    </contour>
  </outline>
</glyph>
<glyph name="eth" format="2">
  <advance width="420.90000000000003"/>
  <unicode hex="00F0"/>
  <outline>
    <contour>
      <point x="285.5" y="420.59999999999997" type="curve"/>
      <point x="292.3" y="517.4499999999999" type="line"/>
      <point x="265.3" y="531.2"/>
      <point x="235.0" y="537.8000000000001"/>
      <point x="203.35" y="537.8000000000001" type="curve" smooth="yes"/>
      <point x="71.0" y="537.8000000000001"/>
      <point x="19.450000000000003" y="446.79999999999995"/>
      <point x="19.450000000000003" y="249.4" type="curve" smooth="yes"/>
      <point x="19.450000000000003" y="69.85"/>
      <point x="77.64999999999999" y="-10.0"/>
      <point x="202.84999999999997" y="-10.0" type="curve" smooth="yes"/>
      <point x="351.85" y="-10.0"/>
      <point x="402.45" y="77.15"/>
      <point x="402.45" y="344.65" type="curve" smooth="yes"/>
      <point x="402.45" y="612.4"/>
      <point x="321.99999999999994" y="738.6"/>
      <point x="148.85" y="738.6" type="curve" smooth="yes"/>
      <point x="103.5" y="738.6"/>
      <point x="62.25" y="728.4"/>
      <point x="24.4" y="715.2" type="curve"/>
      <point x="39.6" y="626.9499999999999" type="line"/>
      <point x="65.65" y="634.5999999999999"/>
      <point x="90.15" y="641.25"/>
      <point x="118.25" y="641.25" type="curve" smooth="yes"/>
      <point x="234.6" y="641.25"/>
      <point x="267.90000000000003" y="582.95"/>
      <point x="267.90000000000003" y="363.55" type="curve" smooth="yes"/>
      <point x="267.90000000000003" y="127.05"/>
      <point x="253.7" y="89.25"/>
      <point x="209.7" y="89.25" type="curve" smooth="yes"/>
      <point x="170.8" y="89.25"/>
      <point x="156.35" y="127.79999999999998"/>
      <point x="156.35" y="250.05" type="curve" smooth="yes"/>
      <point x="156.35" y="404.5"/>
      <point x="178.2" y="437.09999999999997"/>
      <point x="226.29999999999998" y="437.09999999999997" type="curve" smooth="yes"/>
      <point x="245.85" y="437.09999999999997"/>
      <point x="265.35" y="432.7"/>
    </contour>
    <contour>
      <point x="146.85" y="557.1999999999999" type="line"/>
      <point x="256.7" y="633.0500000000001" type="line"/>
      <point x="259.65" y="639.15" type="line"/>
      <point x="396.85" y="740.3500000000001" type="line"/>
      <point x="298.04999999999995" y="740.7500000000001" type="line"/>
      <point x="215.4" y="681.2499999999999" type="line"/>
      <point x="215.9" y="676.5000000000001" type="line"/>
      <point x="50.00000000000001" y="557.6" type="line"/>
    </contour>
  </outline>
</glyph>
<glyph name="divide" format="2">
  <advance width="436.13"/>
  <unicode hex="00F7"/>
  <outline>
    <contour>
      <point x="148.52999999999997" y="131.06" type="curve" smooth="yes"/>
      <point x="148.52999999999997" y="85.55000000000001"/>
      <point x="168.86000000000004" y="64.10000000000002"/>
      <point x="218.29000000000002" y="64.10000000000002" type="curve" smooth="yes"/>
      <point x="267.09999999999997" y="64.10000000000002"/>
      <point x="288.09000000000003" y="85.55000000000001"/>
      <point x="288.09000000000003" y="131.06" type="curve" smooth="yes"/>
      <point x="288.09000000000003" y="176.86"/>
      <point x="267.1" y="198.46"/>
      <point x="218.29000000000002" y="198.46" type="curve" smooth="yes"/>
      <point x="168.71000000000004" y="198.46"/>
      <point x="148.52999999999997" y="176.86"/>
    </contour>
    <contour>
      <point x="148.52999999999997" y="502.46000000000004" type="curve" smooth="yes"/>
      <point x="148.52999999999997" y="457.1"/>
      <point x="168.86000000000004" y="435.95000000000005"/>
      <point x="218.29000000000002" y="435.95000000000005" type="curve" smooth="yes"/>
      <point x="267.09999999999997" y="435.95000000000005"/>
      <point x="288.09000000000003" y="457.1"/>
      <point x="288.09000000000003" y="502.46000000000004" type="curve" smooth="yes"/>
      <point x="288.09000000000003" y="548.86"/>
      <point x="267.09999999999997" y="570.0100000000001"/>
      <point x="218.29000000000002" y="570.0100000000001" type="curve" smooth="yes"/>
      <point x="168.71000000000004" y="570.0100000000001"/>
      <point x="148.52999999999997" y="548.86"/>
    </contour>
    <contour>
      <point x="43.32" y="256.9500000000001" type="line"/>
      <point x="393.26" y="256.9500000000001" type="line"/>
      <point x="393.26" y="378.25" type="line"/>
      <point x="43.32" y="378.25" type="line"/>
    </contour>
  </outline>
</glyph>
<glyph name="oslash" format="2">
  <advance width="429.19999999999993"/>
  <unicode hex="00F8"/>
  <anchor x="213.1" y="544.0" name="top"/>
  <outline>
    <contour>
      <point x="213.1" y="-10.0" type="curve" smooth="yes"/>
      <point x="58.1" y="-10.0"/>
      <point x="19.000000000000004" y="98.70000000000002"/>
      <point x="19.000000000000004" y="273.1" type="curve" smooth="yes"/>
      <point x="19.000000000000004" y="446.15"/>
      <point x="56.2" y="554.0"/>
      <point x="213.1" y="554.0" type="curve" smooth="yes"/>
      <point x="369.95" y="554.0"/>
      <point x="408.15" y="446.15"/>
      <point x="408.15" y="273.1" type="curve" smooth="yes"/>
      <point x="408.15" y="98.70000000000002"/>
      <point x="368.2" y="-10.0"/>
    </contour>
    <contour>
      <point x="213.54999999999998" y="103.74999999999999" type="curve" smooth="yes"/>
      <point x="260.8" y="103.74999999999999"/>
      <point x="276.9" y="129.79999999999998"/>
      <point x="276.9" y="273.1" type="curve" smooth="yes"/>
      <point x="276.9" y="415.3"/>
      <point x="262.1" y="441.1"/>
      <point x="213.54999999999998" y="441.1" type="curve" smooth="yes"/>
      <point x="163.7" y="441.1"/>
      <point x="150.14999999999998" y="415.3"/>
      <point x="150.14999999999998" y="273.1" type="curve" smooth="yes"/>
      <point x="150.14999999999998" y="129.79999999999998"/>
      <point x="165.14999999999998" y="103.74999999999999"/>
    </contour>
    <contour>
      <point x="17.0" y="-3.3000000000000007" type="line"/>
      <point x="91.14999999999998" y="131.65" type="line"/>
      <point x="95.1" y="130.60000000000002" type="line"/>
      <point x="291.84999999999997" y="478.30000000000007" type="line"/>
      <point x="296.7" y="477.25" type="line"/>
      <point x="340.84999999999997" y="554.0" type="line"/>
      <point x="410.15000000000003" y="554.0" type="line"/>
      <point x="340.15000000000003" y="430.8" type="line"/>
      <point x="335.75" y="431.85" type="line"/>
      <point x="136.15" y="76.7" type="line"/>
      <point x="131.3" y="77.75" type="line"/>
      <point x="85.6" y="-3.3000000000000007" type="line"/>
    </contour>
  </outline>
</glyph>
<glyph name="thorn" format="2">
  <advance width="421.43"/>
  <unicode hex="00FE"/>
  <outline>
    <contour>
      <point x="31.35" y="-210.0" type="line"/>
      <point x="167.41" y="-210.0" type="line"/>
      <point x="167.41" y="-6.85" type="line"/>
      <point x="179.53999999999996" y="-9.120000000000001"/>
      <point x="190.24" y="-10.0"/>
      <point x="200.88" y="-10.0" type="curve" smooth="yes"/>
      <point x="347.27000000000004" y="-10.0"/>
      <point x="403.05" y="71.12"/>
      <point x="403.05" y="287.22" type="curve" smooth="yes"/>
      <point x="403.05" y="467.64"/>
      <point x="355.90000000000003" y="554.0"/>
      <point x="257.86999999999995" y="554.0" type="curve" smooth="yes"/>
      <point x="229.88" y="554.0"/>
      <point x="193.77999999999997" y="542.83"/>
      <point x="168.67" y="527.24" type="curve"/>
      <point x="168.67" y="740.0" type="line"/>
      <point x="31.35" y="740.0" type="line"/>
    </contour>
    <contour>
      <point x="202.26" y="99.81" type="curve" smooth="yes"/>
      <point x="192.98999999999998" y="99.81"/>
      <point x="183.17999999999998" y="101.6"/>
      <point x="169.23" y="105.75" type="curve"/>
      <point x="169.23" y="414.18" type="line"/>
      <point x="184.99" y="423.09"/>
      <point x="195.85999999999999" y="426.63"/>
      <point x="210.11" y="426.63" type="curve" smooth="yes"/>
      <point x="243.61" y="426.63"/>
      <point x="258.59" y="387.22999999999996"/>
      <point x="258.59" y="273.00999999999993" type="curve" smooth="yes"/>
      <point x="258.59" y="135.15"/>
      <point x="244.07999999999998" y="99.81"/>
    </contour>
  </outline>
</glyph>
<glyph name="Dcroat" format="2">
  <advance width="468.35499999999996"/>
  <unicode hex="0110"/>
  <outline>
    <contour>
      <point x="1.5299999999999994" y="292.02" type="line"/>
      <point x="237.93499999999997" y="292.02" type="line"/>
      <point x="237.93499999999997" y="413.825" type="line"/>
      <point x="1.5299999999999994" y="413.825" type="line"/>
    </contour>
    <component base="D" xOffset="2.345"/>
  </outline>
</glyph>
<glyph name="dcroat" format="2">
  <advance width="427.4049999999999"/>
  <unicode hex="0111"/>
  <outline>
    <contour>
      <point x="159.06" y="607.425" type="line"/>
      <point x="435.22499999999997" y="607.425" type="line"/>
      <point x="435.22499999999997" y="687.2750000000001" type="line"/>
      <point x="159.06" y="687.2750000000001" type="line"/>
    </contour>
    <component base="d"/>
  </outline>
</glyph>
<glyph name="Hbar" format="2">
  <advance width="472.27000000000004"/>
  <unicode hex="0126"/>
  <outline>
    <contour>
      <point x="4.860000000000001" y="502.01" type="line"/>
      <point x="35.21000000000001" y="502.01" type="line"/>
      <point x="35.21000000000001" y="0.0" type="line"/>
      <point x="173.86" y="0.0" type="line"/>
      <point x="173.86" y="245.71" type="line"/>
      <point x="299.11" y="245.71" type="line"/>
      <point x="299.11" y="0.0" type="line"/>
      <point x="437.06" y="0.0" type="line"/>
      <point x="437.06" y="502.01" type="line"/>
      <point x="467.41" y="502.01" type="line"/>
      <point x="467.41" y="610.3900000000001" type="line"/>
      <point x="437.06" y="610.3900000000001" type="line"/>
      <point x="437.06" y="700.0" type="line"/>
      <point x="299.11" y="700.0" type="line"/>
      <point x="299.11" y="610.3900000000001" type="line"/>
      <point x="173.86" y="610.3900000000001" type="line"/>
      <point x="173.86" y="700.0" type="line"/>
      <point x="35.21000000000001" y="700.0" type="line"/>
      <point x="35.21000000000001" y="610.3900000000001" type="line"/>
      <point x="4.860000000000001" y="610.3900000000001" type="line"/>
    </contour>
    <contour>
      <point x="173.86" y="384.79" type="line"/>
      <point x="173.86" y="502.01" type="line"/>
      <point x="299.11" y="502.01" type="line"/>
      <point x="299.11" y="384.79" type="line"/>
    </contour>
  </outline>
</glyph>
<glyph name="hbar" format="2">
  <advance width="421.91499999999996"/>
  <unicode hex="0127"/>
  <outline>
    <contour>
      <point x="-5.145" y="607.425" type="line"/>
      <point x="259.675" y="607.425" type="line"/>
      <point x="259.675" y="687.2750000000001" type="line"/>
      <point x="-5.145" y="687.2750000000001" type="line"/>
    </contour>
    <component base="h"/>
  </outline>
</glyph>
<glyph name="Idotaccent" format="2">
  <advance width="208.61"/>
  <unicode hex="0130"/>
  <outline>
    <contour>
      <point x="105.25" y="746.37" type="curve" smooth="yes"/>
      <point x="158.92999999999998" y="746.37"/>
      <point x="183.87999999999997" y="772.64"/>
      <point x="183.87999999999997" y="828.47" type="curve" smooth="yes"/>
      <point x="183.87999999999997" y="885.56"/>
      <point x="157.67" y="911.1999999999999"/>
      <point x="105.25" y="911.1999999999999" type="curve" smooth="yes"/>
      <point x="52.2" y="911.1999999999999"/>
      <point x="25.990000000000002" y="885.56"/>
      <point x="25.990000000000002" y="828.47" type="curve" smooth="yes"/>
      <point x="25.990000000000002" y="772.01"/>
      <point x="52.50000000000001" y="746.37"/>
    </contour>
    <component base="I"/>
  </outline>
</glyph>
<glyph name="dotlessi" format="2">
  <advance width="201.84"/>
  <unicode hex="0131"/>
  <anchor x="165.84" y="7.0" name="ogonek"/>
  <anchor x="102.17999999999999" y="0.0" name="bottom"/>
  <anchor x="100.92" y="544.0" name="top"/>
  <outline>
    <contour>
      <point x="31.35" y="0.0" type="line"/>
      <point x="170.48999999999998" y="0.0" type="line"/>
      <point x="170.48999999999998" y="544.0" type="line"/>
      <point x="31.35" y="544.0" type="line"/>
    </contour>
  </outline>
</glyph>
<glyph name="kgreenlandic" format="2">
  <advance width="405.85"/>
  <unicode hex="0138"/>
  <anchor x="208.2" y="544.0" name="top"/>
  <anchor x="208.2" y="0.0" name="bottom"/>
  <outline>
    <contour>
      <point x="363.29999999999995" y="-9.15" type="curve" smooth="yes"/>
      <point x="375.65000000000003" y="-9.15"/>
      <point x="387.25" y="-8.15"/>
      <point x="399.75" y="-5.0" type="curve"/>
      <point x="398.9" y="138.39999999999998" type="line"/>
      <point x="395.34999999999997" y="138.39999999999998"/>
      <point x="392.0" y="137.79999999999998"/>
      <point x="388.95" y="137.79999999999998" type="curve" smooth="yes"/>
      <point x="362.45000000000005" y="137.79999999999998"/>
      <point x="340.7" y="154.2"/>
      <point x="273.6" y="248.70000000000002" type="curve" smooth="yes"/>
      <point x="158.0" y="411.75" type="line"/>
      <point x="158.0" y="544.0" type="line"/>
      <point x="33.3" y="544.0" type="line"/>
      <point x="33.3" y="0.0" type="line"/>
      <point x="158.0" y="0.0" type="line"/>
      <point x="158.0" y="198.75000000000003" type="line"/>
      <point x="237.89999999999998" y="86.1" type="line" smooth="yes"/>
      <point x="293.5" y="7.6"/>
      <point x="319.55" y="-9.15"/>
    </contour>
    <contour>
      <point x="241.5" y="222.55" type="line"/>
      <point x="314.65" y="319.05"/>
      <point x="381.2" y="431.79999999999995"/>
      <point x="397.74999999999994" y="537.9999999999999" type="curve"/>
      <point x="269.29999999999995" y="547.15" type="line"/>
      <point x="257.5" y="443.15000000000003"/>
      <point x="216.95" y="380.65"/>
      <point x="156.95000000000002" y="305.2" type="curve"/>
    </contour>
  </outline>
</glyph>
<glyph name="Ldot" format="2">
  <advance width="367.2"/>
  <unicode hex="013F"/>
  <outline>
    <contour>
      <point x="235.08" y="388.93" type="curve" smooth="yes"/>
      <point x="235.08" y="347.38"/>
      <point x="249.89999999999998" y="328.59999999999997"/>
      <point x="287.95000000000005" y="328.59999999999997" type="curve" smooth="yes"/>
      <point x="326.93" y="328.59999999999997"/>
      <point x="341.45000000000005" y="347.38"/>
      <point x="341.45000000000005" y="388.93" type="curve" smooth="yes"/>
      <point x="341.45000000000005" y="431.18"/>
      <point x="326.93" y="449.96000000000004"/>
      <point x="287.95000000000005" y="449.96000000000004" type="curve" smooth="yes"/>
      <point x="249.6" y="449.96000000000004"/>
      <point x="235.08" y="431.18"/>
    </contour>
    <component base="L"/>
  </outline>
</glyph>
<glyph name="ldot" format="2">
  <advance width="313.45000000000005"/>
  <unicode hex="0140"/>
  <outline>
    <contour>
      <point x="257.59999999999997" y="314.63" type="curve" smooth="yes"/>
      <point x="289.3" y="314.63"/>
      <point x="305.98999999999995" y="331.30999999999995"/>
      <point x="305.98999999999995" y="373.84" type="curve" smooth="yes"/>
      <point x="305.98999999999995" y="417.0"/>
      <point x="289.3" y="433.67999999999995"/>
      <point x="257.59999999999997" y="433.67999999999995" type="curve" smooth="yes"/>
      <point x="226.53" y="433.67999999999995"/>
      <point x="209.83999999999997" y="417.0"/>
      <point x="209.83999999999997" y="373.84" type="curve" smooth="yes"/>
      <point x="209.83999999999997" y="331.30999999999995"/>
      <point x="226.83" y="314.63"/>
    </contour>
    <component base="l"/>
  </outline>
</glyph>
<glyph name="Lslash" format="2">
  <advance width="384.39"/>
  <unicode hex="0141"/>
  <outline>
    <contour>
      <point x="10.9" y="205.75000000000003" type="line"/>
      <point x="52.17000000000001" y="233.85" type="line"/>
      <point x="52.17000000000001" y="0.0" type="line"/>
      <point x="373.69" y="0.0" type="line"/>
      <point x="373.69" y="134.67000000000002" type="line"/>
      <point x="191.45" y="134.67000000000002" type="line"/>
      <point x="191.45" y="305.89" type="line"/>
      <point x="312.10999999999996" y="383.35" type="line"/>
      <point x="312.10999999999996" y="516.67" type="line"/>
      <point x="191.45" y="439.48" type="line"/>
      <point x="191.45" y="700.0" type="line"/>
      <point x="52.17000000000001" y="700.0" type="line"/>
      <point x="52.17000000000001" y="367.44" type="line"/>
      <point x="10.9" y="339.34000000000003" type="line"/>
    </contour>
  </outline>
</glyph>
<glyph name="lslash" format="2">
  <advance width="251.70999999999998"/>
  <unicode hex="0142"/>
  <outline>
    <contour>
      <point x="161.67999999999998" y="-10.0" type="curve" smooth="yes"/>
      <point x="193.90999999999997" y="-10.0"/>
      <point x="224.51" y="0.5799999999999987"/>
      <point x="244.23000000000002" y="11.17" type="curve"/>
      <point x="234.35000000000002" y="140.03" type="line"/>
      <point x="222.78" y="137.20999999999998"/>
      <point x="213.20999999999998" y="135.71999999999997"/>
      <point x="206.05999999999997" y="135.71999999999997" type="curve" smooth="yes"/>
      <point x="188.89000000000001" y="135.71999999999997"/>
      <point x="177.48999999999998" y="144.90999999999997"/>
      <point x="177.48999999999998" y="194.92000000000002" type="curve" smooth="yes"/>
      <point x="177.48999999999998" y="333.65000000000003" type="line"/>
      <point x="238.2" y="384.92" type="line"/>
      <point x="238.2" y="501.70000000000005" type="line"/>
      <point x="177.48999999999998" y="450.43" type="line"/>
      <point x="177.48999999999998" y="740.0" type="line"/>
      <point x="40.24" y="740.0" type="line"/>
      <point x="40.24" y="339.22999999999996" type="line"/>
      <point x="2.6100000000000008" y="307.22" type="line"/>
      <point x="2.6100000000000008" y="190.71" type="line"/>
      <point x="40.38" y="222.52" type="line"/>
      <point x="40.52" y="159.36" type="line" smooth="yes"/>
      <point x="41.71" y="33.29"/>
      <point x="79.75" y="-10.0"/>
    </contour>
  </outline>
</glyph>
<glyph name="Eng" format="2">
  <advance width="476.8"/>
  <unicode hex="014A"/>
  <outline>
    <contour>
      <point x="34.974999999999994" y="0.0" type="line"/>
      <point x="158.04999999999998" y="0.0" type="line"/>
      <point x="158.04999999999998" y="393.075" type="line"/>
      <point x="307.725" y="-1.4999999999999991" type="line"/>
      <point x="307.725" y="-8.45" type="line" smooth="yes"/>
      <point x="307.575" y="-40.22500000000001"/>
      <point x="288.4" y="-55.35"/>
      <point x="254.07500000000002" y="-55.35" type="curve" smooth="yes"/>
      <point x="241.15" y="-55.35"/>
      <point x="227.2" y="-54.625"/>
      <point x="209.225" y="-47.95" type="curve"/>
      <point x="185.275" y="-171.25" type="line"/>
      <point x="210.6" y="-184.475"/>
      <point x="240.55" y="-195.17499999999998"/>
      <point x="285.4" y="-195.17499999999998" type="curve" smooth="yes"/>
      <point x="388.75" y="-195.17499999999998"/>
      <point x="441.825" y="-131.25"/>
      <point x="441.825" y="-13.85" type="curve" smooth="yes"/>
      <point x="441.825" y="700.0" type="line"/>
      <point x="319.09999999999997" y="700.0" type="line"/>
      <point x="319.09999999999997" y="288.92499999999995" type="line"/>
      <point x="177.37499999999997" y="700.3" type="line"/>
      <point x="34.974999999999994" y="700.3" type="line"/>
    </contour>
  </outline>
</glyph>
<glyph name="eng" format="2">
  <advance width="422.40999999999997"/>
  <unicode hex="014B"/>
  <outline>
    <contour>
      <point x="392.32" y="20.0" type="curve"/>
      <point x="392.32" y="426.58" type="line" smooth="yes"/>
      <point x="392.32" y="506.78"/>
      <point x="353.61999999999995" y="554.0"/>
      <point x="279.51" y="554.0" type="curve" smooth="yes"/>
      <point x="233.63000000000002" y="554.0"/>
      <point x="193.11" y="538.16"/>
      <point x="156.35000000000002" y="510.39" type="curve"/>
      <point x="156.35000000000002" y="544.0" type="line"/>
      <point x="31.35" y="544.0" type="line"/>
      <point x="31.35" y="0.0" type="line"/>
      <point x="169.23" y="0.0" type="line"/>
      <point x="169.23" y="408.54" type="line"/>
      <point x="183.67999999999998" y="417.34"/>
      <point x="201.04000000000002" y="424.78000000000003"/>
      <point x="217.98000000000002" y="424.78000000000003" type="curve" smooth="yes"/>
      <point x="241.68" y="424.78000000000003"/>
      <point x="254.44000000000003" y="410.3"/>
      <point x="254.44000000000003" y="381.21999999999997" type="curve" smooth="yes"/>
      <point x="254.44000000000003" y="16.38" type="line" smooth="yes"/>
      <point x="254.44000000000003" y="-29.58"/>
      <point x="245.17999999999998" y="-54.480000000000004"/>
      <point x="227.23" y="-64.08000000000001" type="curve" smooth="yes"/>
      <point x="222.78" y="-65.61000000000001"/>
      <point x="216.16" y="-66.07000000000001"/>
      <point x="211.76" y="-66.23" type="curve"/>
      <point x="208.12" y="-211.57" type="line"/>
      <point x="224.57" y="-213.67000000000002"/>
      <point x="241.87" y="-213.34"/>
      <point x="262.12" y="-211.54" type="curve" smooth="yes"/>
      <point x="343.67" y="-200.5"/>
      <point x="392.32" y="-117.51"/>
    </contour>
  </outline>
</glyph>
<glyph name="OE" format="2">
  <advance width="650.7300000000001"/>
  <unicode hex="0152"/>
  <outline>
    <contour>
      <point x="635.615" y="0.0" type="line"/>
      <point x="635.615" y="133.63" type="line"/>
      <point x="431.39" y="133.63" type="line"/>
      <point x="431.39" y="290.05499999999995" type="line"/>
      <point x="601.36" y="290.05499999999995" type="line"/>
      <point x="601.36" y="416.685" type="line"/>
      <point x="431.39" y="416.685" type="line"/>
      <point x="431.39" y="563.595" type="line"/>
      <point x="623.0699999999999" y="563.595" type="line"/>
      <point x="623.0699999999999" y="700.0" type="line"/>
      <point x="399.305" y="700.0" type="line"/>
      <point x="350.7099999999999" y="706.265"/>
      <point x="302.87" y="708.3500000000001"/>
      <point x="255.99499999999998" y="708.3500000000001" type="curve" smooth="yes"/>
      <point x="87.92000000000002" y="708.3500000000001"/>
      <point x="18.555" y="606.0100000000001"/>
      <point x="18.555" y="353.18000000000006" type="curve" smooth="yes"/>
      <point x="18.555" y="70.01"/>
      <point x="99.94500000000001" y="-8.950000000000001"/>
      <point x="253.005" y="-8.950000000000001" type="curve" smooth="yes"/>
      <point x="303.095" y="-8.950000000000001"/>
      <point x="364.435" y="-7.305"/>
      <point x="430.805" y="0.0" type="curve"/>
    </contour>
    <contour>
      <point x="292.29" y="121.335" type="line"/>
      <point x="279.915" y="119.335"/>
      <point x="261.89" y="117.40999999999998"/>
      <point x="244.41500000000002" y="117.40999999999998" type="curve" smooth="yes"/>
      <point x="191.005" y="117.40999999999998"/>
      <point x="162.54999999999998" y="165.635"/>
      <point x="162.54999999999998" y="350.42" type="curve" smooth="yes"/>
      <point x="162.54999999999998" y="538.2149999999999"/>
      <point x="189.62" y="581.155"/>
      <point x="245.595" y="581.155" type="curve" smooth="yes"/>
      <point x="261.67500000000007" y="581.155"/>
      <point x="275.7950000000001" y="579.0400000000001"/>
      <point x="292.29" y="577.04" type="curve"/>
    </contour>
  </outline>
</glyph>
